<svg width="2057" height="2057" viewBox="0 0 2057 2057" fill="none" xmlns="http://www.w3.org/2000/svg">
<path opacity="0.2" d="M1406.49 1313.79C1510.81 1313.79 1595.38 1229.22 1595.38 1124.9C1595.38 1020.57 1510.81 936 1406.49 936C1302.16 936 1217.59 1020.57 1217.59 1124.9C1217.59 1229.22 1302.16 1313.79 1406.49 1313.79Z" fill="black"/>
<path opacity="0.5" d="M1028.69 1313.79C1133.02 1313.79 1217.59 1229.22 1217.59 1124.9C1217.59 1020.57 1133.02 936 1028.69 936C924.367 936 839.795 1020.57 839.795 1124.9C839.795 1229.22 924.367 1313.79 1028.69 1313.79Z" fill="black"/>
<path d="M650.896 1313.79C755.221 1313.79 839.792 1229.22 839.792 1124.9C839.792 1020.57 755.221 936 650.896 936C546.572 936 462 1020.57 462 1124.9C462 1229.22 546.572 1313.79 650.896 1313.79Z" fill="black"/>
<path fill-rule="evenodd" clip-rule="evenodd" d="M317 966.044C317 898.795 371.517 844.276 438.768 844.276H1618.98C1686.23 844.276 1740.75 898.795 1740.75 966.044V1284.51C1740.75 1351.76 1686.23 1406.28 1618.98 1406.28H438.768C371.517 1406.28 317 1351.76 317 1284.51V966.044ZM438.768 891.109C397.383 891.109 363.834 924.656 363.834 966.044V1284.51C363.834 1325.9 397.383 1359.45 438.768 1359.45H1618.98C1660.37 1359.45 1693.91 1325.9 1693.91 1284.51V966.044C1693.91 924.656 1660.37 891.109 1618.98 891.109H438.768Z" fill="black"/>
<path fill-rule="evenodd" clip-rule="evenodd" d="M1326.39 650H1278.12V809.36L1162.32 693.566L1128.56 727.321L1244.35 843.11H1085V891.385H1244.32L1128.47 1007.23L1162.25 1041.01L1278.12 925.14V1084.5H1326.39V925.155L1442.26 1041.02L1476.02 1007.27L1360.14 891.385H1519.5V843.11H1360.14L1475.93 727.321L1442.16 693.546L1326.39 809.315V650Z" fill="white"/>
</svg>
