<svg width="2057" height="2057" viewBox="0 0 2057 2057" fill="none" xmlns="http://www.w3.org/2000/svg">
<g clip-path="url(#clip0_285_6356)">
<path d="M1263.65 1114.77C1265.99 1112.43 1265.99 1108.64 1263.65 1106.29L1225.5 1068.14C1223.16 1065.8 1219.36 1065.8 1217.02 1068.14C1214.68 1070.48 1214.68 1074.28 1217.02 1076.62L1250.94 1110.53L1217.02 1144.45C1214.68 1146.79 1214.68 1150.59 1217.02 1152.93C1219.36 1155.27 1223.16 1155.27 1225.5 1152.93L1263.65 1114.77ZM830.159 1116.53H1259.41V1104.54H830.159V1116.53Z" fill="#63C8D8"/>
<path d="M943.425 943.226C941.084 945.567 941.084 949.363 943.425 951.704L981.578 989.857C983.92 992.198 987.715 992.198 990.057 989.857C992.398 987.516 992.398 983.72 990.057 981.379L956.143 947.465L990.057 913.551C992.398 911.21 992.398 907.414 990.057 905.072C987.716 902.731 983.92 902.731 981.578 905.072L943.425 943.226ZM1213.85 941.47L947.664 941.47L947.664 953.46L1213.85 953.46L1213.85 941.47Z" fill="#63C8D8"/>
<path d="M818.169 1150.1C839.814 1150.1 857.737 1133.13 857.737 1111.73C857.737 1090.34 839.814 1073.36 818.169 1073.36C796.523 1073.36 778.601 1090.34 778.601 1111.73C778.601 1133.13 796.523 1150.1 818.169 1150.1Z" fill="white" stroke="#63C8D8" stroke-width="11.9904"/>
<path d="M1225.84 984.635C1204.2 984.635 1186.27 967.66 1186.27 946.266C1186.27 924.872 1204.2 907.897 1225.84 907.897C1247.49 907.897 1265.41 924.872 1265.41 946.266C1265.41 967.66 1247.49 984.635 1225.84 984.635Z" fill="white" stroke="#63C8D8" stroke-width="11.9904"/>
<g filter="url(#filter0_d_285_6356)">
<path d="M999.114 1163.29L962.053 969.047L1125.12 1066.17L1043.59 1088.58L999.114 1163.29Z" fill="white"/>
<path d="M999.114 1163.29L962.053 969.047L1125.12 1066.17L1043.59 1088.58L999.114 1163.29Z" stroke="#010101" stroke-width="11.9904" stroke-linecap="square"/>
</g>
<g opacity="0.5">
<path d="M342.003 256.663H1110.9C1235.78 256.663 1337.01 357.897 1337.01 482.774V630.639C1337.01 657.521 1315.22 679.313 1288.34 679.313H342.003C315.121 679.313 293.329 657.521 293.329 630.639V305.337C293.329 278.455 315.121 256.663 342.003 256.663Z" stroke="black" stroke-opacity="0.3" stroke-width="20.9439"/>
<path d="M557.874 523.57H611.223C633.669 523.57 651.235 512.51 651.235 492.016C651.235 477.215 640.175 466.642 625.536 464.04C638.223 460.624 647.494 451.353 647.494 437.365C647.494 420.938 634.97 409.715 610.247 409.715H557.874V523.57ZM579.018 455.745V427.769H607.482C618.868 427.769 626.024 431.835 626.024 441.432C626.024 451.028 618.868 455.745 607.482 455.745H579.018ZM579.018 505.516V473.474H608.133C620.819 473.474 629.115 478.679 629.115 489.414C629.115 500.311 620.819 505.516 608.133 505.516H579.018Z" fill="black" fill-opacity="0.8"/>
<path d="M696.438 526.01C712.378 526.01 719.86 515.6 723.113 510.233V523.57H742.794V442.57H722.95V480.63C722.95 493.642 720.022 509.42 704.571 509.42C695.95 509.42 690.583 504.377 690.583 491.853V442.57H670.739V496.57C670.739 514.299 679.685 526.01 696.438 526.01Z" fill="black" fill-opacity="0.8"/>
<path d="M796.299 523.57H820.372V507.305H803.131C797.926 507.305 795.649 505.028 795.649 499.823V458.022H817.119V442.57H795.649V417.034H775.805V442.57H758.239V458.022H775.805V502.914C775.805 515.763 783.125 523.57 796.299 523.57Z" fill="black" fill-opacity="0.8"/>
<path d="M865.572 523.57H889.644V507.305H872.403C867.199 507.305 864.921 505.028 864.921 499.823V458.022H886.391V442.57H864.921V417.034H845.078V442.57H827.512V458.022H845.078V502.914C845.078 515.763 852.397 523.57 865.572 523.57Z" fill="black" fill-opacity="0.8"/>
<path d="M940.398 526.01C963.982 526.01 981.223 508.769 981.223 483.07C981.223 457.697 964.145 440.13 940.398 440.13C916.651 440.13 899.572 457.697 899.572 483.07C899.572 507.793 916.813 526.01 940.398 526.01ZM940.398 509.908C928.362 509.908 920.067 501.45 920.067 483.395C920.067 465.341 928.362 456.233 940.398 456.233C952.434 456.233 960.567 465.341 960.567 483.395C960.567 501.45 952.434 509.908 940.398 509.908Z" fill="black" fill-opacity="0.8"/>
<path d="M1000.43 523.57H1020.27V486.648C1020.27 476.727 1020.6 456.721 1038.81 456.721C1047.76 456.721 1053.45 461.926 1053.45 474.124V523.57H1073.3V469.733C1073.3 452.004 1065.33 440.13 1045.97 440.13C1030.19 440.13 1022.39 450.703 1019.78 455.419V442.57H1000.43V523.57Z" fill="black" fill-opacity="0.8"/>
</g>
<g opacity="0.5">
<path d="M343.862 1262.77H1112.76C1237.63 1262.77 1338.87 1364.01 1338.87 1488.88V1636.75C1338.87 1663.63 1317.08 1685.42 1290.19 1685.42H343.862C316.98 1685.42 295.188 1663.63 295.188 1636.75V1311.45C295.188 1284.56 316.98 1262.77 343.862 1262.77Z" fill="black" stroke="black" stroke-width="20.9439"/>
<path d="M559.732 1529.68H613.082C635.527 1529.68 653.094 1518.62 653.094 1498.12C653.094 1483.32 642.034 1472.75 627.395 1470.15C640.082 1466.73 649.353 1457.46 649.353 1443.47C649.353 1427.04 636.829 1415.82 612.106 1415.82H559.732V1529.68ZM580.877 1461.85V1433.87H609.341C620.726 1433.87 627.883 1437.94 627.883 1447.54C627.883 1457.13 620.726 1461.85 609.341 1461.85H580.877ZM580.877 1511.62V1479.58H609.991C622.678 1479.58 630.973 1484.78 630.973 1495.52C630.973 1506.42 622.678 1511.62 609.991 1511.62H580.877Z" fill="white"/>
<path d="M698.297 1532.12C714.237 1532.12 721.718 1521.71 724.971 1516.34V1529.68H744.652V1448.68H724.809V1486.74C724.809 1499.75 721.881 1515.53 706.429 1515.53C697.809 1515.53 692.441 1510.48 692.441 1497.96V1448.68H672.598V1502.68C672.598 1520.41 681.544 1532.12 698.297 1532.12Z" fill="white"/>
<path d="M798.158 1529.68H822.23V1513.41H804.989C799.785 1513.41 797.507 1511.13 797.507 1505.93V1464.13H818.977V1448.68H797.507V1423.14H777.664V1448.68H760.098V1464.13H777.664V1509.02C777.664 1521.87 784.983 1529.68 798.158 1529.68Z" fill="white"/>
<path d="M867.431 1529.68H891.503V1513.41H874.262C869.057 1513.41 866.78 1511.13 866.78 1505.93V1464.13H888.25V1448.68H866.78V1423.14H846.937V1448.68H829.37V1464.13H846.937V1509.02C846.937 1521.87 854.256 1529.68 867.431 1529.68Z" fill="white"/>
<path d="M942.257 1532.12C965.841 1532.12 983.082 1514.87 983.082 1489.18C983.082 1463.8 966.004 1446.24 942.257 1446.24C918.509 1446.24 901.431 1463.8 901.431 1489.18C901.431 1513.9 918.672 1532.12 942.257 1532.12ZM942.257 1516.01C930.22 1516.01 921.925 1507.56 921.925 1489.5C921.925 1471.45 930.22 1462.34 942.257 1462.34C954.293 1462.34 962.425 1471.45 962.425 1489.5C962.425 1507.56 954.293 1516.01 942.257 1516.01Z" fill="white"/>
<path d="M1002.29 1529.68H1022.13V1492.75C1022.13 1482.83 1022.46 1462.83 1040.67 1462.83C1049.62 1462.83 1055.31 1468.03 1055.31 1480.23V1529.68H1075.15V1475.84C1075.15 1458.11 1067.19 1446.24 1047.83 1446.24C1032.05 1446.24 1024.25 1456.81 1021.64 1461.53V1448.68H1002.29V1529.68Z" fill="white"/>
</g>
<g opacity="0.5">
<path d="M284.716 1807.61C284.716 1778.75 308.11 1755.36 336.968 1755.36H1565.99C1681.43 1755.36 1775 1848.93 1775 1964.36V2206.68C1775 2235.54 1751.61 2258.93 1722.75 2258.93H336.968C308.11 2258.93 284.716 2235.54 284.716 2206.68V1807.61Z" fill="black" fill-opacity="0.3"/>
<mask id="path-11-inside-1_285_6356" fill="white">
<path fill-rule="evenodd" clip-rule="evenodd" d="M559.997 1904.01L565.993 1919.01L590.051 1979.15H649.884H667.073L654.137 1990.47L605.9 2032.68L623.967 2092.9L629.121 2110.08L614.199 2100.13L560.037 2064.02L505.85 2100.96L491.018 2111.07L496.009 2093.83L514.106 2031.31L465.938 1990.54L452.481 1979.15H470.11H529.942L554 1919.01L559.997 1904.01ZM559.997 1938.79L540.312 1988.01L538.688 1992.07H534.315H487.739L525.646 2024.15L528.842 2026.85L527.678 2030.88L513.407 2080.18L556.359 2050.9L559.957 2048.45L563.579 2050.86L606.442 2079.44L592.334 2032.41L591.14 2028.43L594.267 2025.69L632.695 1992.07H585.679H581.306L579.682 1988.01L559.997 1938.79Z"/>
</mask>
<path fill-rule="evenodd" clip-rule="evenodd" d="M559.997 1904.01L565.993 1919.01L590.051 1979.15H649.884H667.073L654.137 1990.47L605.9 2032.68L623.967 2092.9L629.121 2110.08L614.199 2100.13L560.037 2064.02L505.85 2100.96L491.018 2111.07L496.009 2093.83L514.106 2031.31L465.938 1990.54L452.481 1979.15H470.11H529.942L554 1919.01L559.997 1904.01ZM559.997 1938.79L540.312 1988.01L538.688 1992.07H534.315H487.739L525.646 2024.15L528.842 2026.85L527.678 2030.88L513.407 2080.18L556.359 2050.9L559.957 2048.45L563.579 2050.86L606.442 2079.44L592.334 2032.41L591.14 2028.43L594.267 2025.69L632.695 1992.07H585.679H581.306L579.682 1988.01L559.997 1938.79Z" fill="white"/>
<path d="M565.993 1919.01L546.612 1926.76L546.612 1926.76L565.993 1919.01ZM559.997 1904.01L579.378 1896.26L559.997 1847.81L540.615 1896.26L559.997 1904.01ZM590.051 1979.15L570.67 1986.9L575.919 2000.03H590.051V1979.15ZM667.073 1979.15L680.818 1994.86L722.628 1958.28H667.073V1979.15ZM654.137 1990.47L640.391 1974.76L654.137 1990.47ZM605.9 2032.68L592.154 2016.97L582.047 2025.81L585.906 2038.68L605.9 2032.68ZM623.967 2092.9L603.973 2098.9L603.973 2098.9L623.967 2092.9ZM629.121 2110.08L617.542 2127.45L665.77 2159.6L649.115 2104.08L629.121 2110.08ZM614.199 2100.13L625.778 2082.76L625.778 2082.76L614.199 2100.13ZM560.037 2064.02L571.616 2046.66L559.907 2038.85L548.279 2046.78L560.037 2064.02ZM505.85 2100.96L517.608 2118.21L517.608 2118.21L505.85 2100.96ZM491.018 2111.07L470.966 2105.27L454.835 2161L502.775 2128.32L491.018 2111.07ZM496.009 2093.83L475.957 2088.03L475.957 2088.03L496.009 2093.83ZM514.106 2031.31L534.157 2037.11L537.919 2024.11L527.591 2015.37L514.106 2031.31ZM465.938 1990.54L452.453 2006.47L452.453 2006.47L465.938 1990.54ZM452.481 1979.15V1958.28H395.504L438.996 1995.08L452.481 1979.15ZM529.942 1979.15V2000.03H544.075L549.324 1986.9L529.942 1979.15ZM554 1919.01L534.619 1911.25L534.619 1911.25L554 1919.01ZM540.312 1988.01L520.93 1980.26L520.93 1980.26L540.312 1988.01ZM559.997 1938.79L579.378 1931.04L559.997 1882.59L540.616 1931.04L559.997 1938.79ZM538.688 1992.07V2012.94H552.82L558.069 1999.82L538.688 1992.07ZM487.739 1992.07V1971.19H430.762L474.254 2008L487.739 1992.07ZM525.646 2024.15L539.131 2008.22L539.131 2008.22L525.646 2024.15ZM528.842 2026.85L548.893 2032.66L552.655 2019.66L542.327 2010.92L528.842 2026.85ZM527.678 2030.88L547.729 2036.68L547.729 2036.68L527.678 2030.88ZM513.407 2080.18L493.356 2074.37L477.225 2130.11L525.165 2097.43L513.407 2080.18ZM556.359 2050.9L544.601 2033.65L544.601 2033.65L556.359 2050.9ZM559.957 2048.45L571.536 2031.08L559.827 2023.27L548.199 2031.2L559.957 2048.45ZM563.579 2050.86L552 2068.23L552 2068.23L563.579 2050.86ZM606.442 2079.44L594.863 2096.8L643.091 2128.96L626.436 2073.44L606.442 2079.44ZM592.334 2032.41L572.34 2038.41L572.34 2038.41L592.334 2032.41ZM591.14 2028.43L577.394 2012.72L567.287 2021.56L571.146 2034.43L591.14 2028.43ZM594.267 2025.69L580.521 2009.98L580.521 2009.98L594.267 2025.69ZM632.695 1992.07L646.441 2007.78L688.251 1971.19H632.695V1992.07ZM581.306 1992.07L561.925 1999.82L567.174 2012.94H581.306V1992.07ZM579.682 1988.01L599.064 1980.26L599.064 1980.26L579.682 1988.01ZM585.375 1911.25L579.378 1896.26L540.615 1911.77L546.612 1926.76L585.375 1911.25ZM609.433 1971.4L585.375 1911.25L546.612 1926.76L570.67 1986.9L609.433 1971.4ZM649.884 1958.28H590.051V2000.03H649.884V1958.28ZM667.073 1958.28H649.884V2000.03H667.073V1958.28ZM667.882 2006.18L680.818 1994.86L653.327 1963.44L640.391 1974.76L667.882 2006.18ZM619.646 2048.39L667.882 2006.18L640.391 1974.76L592.154 2016.97L619.646 2048.39ZM643.961 2086.9L625.894 2026.68L585.906 2038.68L603.973 2098.9L643.961 2086.9ZM649.115 2104.08L643.961 2086.9L603.973 2098.9L609.127 2116.08L649.115 2104.08ZM602.62 2117.5L617.542 2127.45L640.7 2092.71L625.778 2082.76L602.62 2117.5ZM548.458 2081.39L602.62 2117.5L625.778 2082.76L571.616 2046.66L548.458 2081.39ZM517.608 2118.21L571.795 2081.27L548.279 2046.78L494.093 2083.71L517.608 2118.21ZM502.775 2128.32L517.608 2118.21L494.093 2083.71L479.26 2093.83L502.775 2128.32ZM475.957 2088.03L470.966 2105.27L511.069 2116.88L516.06 2099.63L475.957 2088.03ZM494.055 2025.5L475.957 2088.03L516.06 2099.63L534.157 2037.11L494.055 2025.5ZM452.453 2006.47L500.621 2047.24L527.591 2015.37L479.423 1974.61L452.453 2006.47ZM438.996 1995.08L452.453 2006.47L479.423 1974.61L465.966 1963.22L438.996 1995.08ZM470.11 1958.28H452.481V2000.03H470.11V1958.28ZM529.942 1958.28H470.11V2000.03H529.942V1958.28ZM534.619 1911.25L510.561 1971.4L549.324 1986.9L573.381 1926.76L534.619 1911.25ZM540.615 1896.26L534.619 1911.25L573.381 1926.76L579.378 1911.77L540.615 1896.26ZM559.693 1995.76L579.378 1946.55L540.616 1931.04L520.93 1980.26L559.693 1995.76ZM558.069 1999.82L559.693 1995.76L520.93 1980.26L519.306 1984.32L558.069 1999.82ZM534.315 2012.94H538.688V1971.19H534.315V2012.94ZM487.739 2012.94H534.315V1971.19H487.739V2012.94ZM539.131 2008.22L501.224 1976.13L474.254 2008L512.161 2040.08L539.131 2008.22ZM542.327 2010.92L539.131 2008.22L512.161 2040.08L515.357 2042.79L542.327 2010.92ZM547.729 2036.68L548.893 2032.66L508.79 2021.05L507.627 2025.07L547.729 2036.68ZM533.459 2085.98L547.729 2036.68L507.627 2025.07L493.356 2074.37L533.459 2085.98ZM544.601 2033.65L501.65 2062.93L525.165 2097.43L568.117 2068.15L544.601 2033.65ZM548.199 2031.2L544.601 2033.65L568.117 2068.15L571.714 2065.69L548.199 2031.2ZM575.158 2033.49L571.536 2031.08L548.378 2065.81L552 2068.23L575.158 2033.49ZM618.021 2062.07L575.158 2033.49L552 2068.23L594.863 2096.8L618.021 2062.07ZM572.34 2038.41L586.448 2085.43L626.436 2073.44L612.328 2026.41L572.34 2038.41ZM571.146 2034.43L572.34 2038.41L612.328 2026.41L611.134 2022.43L571.146 2034.43ZM580.521 2009.98L577.394 2012.72L604.885 2044.14L608.013 2041.4L580.521 2009.98ZM618.949 1976.36L580.521 2009.98L608.013 2041.4L646.441 2007.78L618.949 1976.36ZM585.679 2012.94H632.695V1971.19H585.679V2012.94ZM581.306 2012.94H585.679V1971.19H581.306V2012.94ZM560.301 1995.76L561.925 1999.82L600.687 1984.32L599.064 1980.26L560.301 1995.76ZM540.616 1946.55L560.301 1995.76L599.064 1980.26L579.378 1931.04L540.616 1946.55Z" fill="white" mask="url(#path-11-inside-1_285_6356)"/>
<path d="M887.852 2069.3H947.887C973.145 2069.3 992.912 2056.85 992.912 2033.79C992.912 2017.13 980.466 2005.24 963.993 2002.31C978.27 1998.46 988.703 1988.03 988.703 1972.29C988.703 1953.8 974.609 1941.18 946.788 1941.18H887.852V2069.3ZM911.646 1992.97V1961.49H943.677C956.489 1961.49 964.542 1966.07 964.542 1976.87C964.542 1987.67 956.489 1992.97 943.677 1992.97H911.646ZM911.646 2048.98V2012.92H944.409C958.685 2012.92 968.02 2018.78 968.02 2030.86C968.02 2043.12 958.685 2048.98 944.409 2048.98H911.646Z" fill="white"/>
<path d="M1043.78 2072.04C1061.72 2072.04 1070.14 2060.33 1073.8 2054.29V2069.3H1095.94V1978.15H1073.61V2020.98C1073.61 2035.62 1070.32 2053.37 1052.93 2053.37C1043.23 2053.37 1037.19 2047.7 1037.19 2033.61V1978.15H1014.86V2038.91C1014.86 2058.86 1024.93 2072.04 1043.78 2072.04Z" fill="white"/>
<path d="M1156.15 2069.3H1183.24V2050.99H1163.84C1157.98 2050.99 1155.42 2048.43 1155.42 2042.58V1995.54H1179.58V1978.15H1155.42V1949.41H1133.09V1978.15H1113.32V1995.54H1133.09V2046.05C1133.09 2060.51 1141.33 2069.3 1156.15 2069.3Z" fill="white"/>
<path d="M1234.11 2069.3H1261.2V2050.99H1241.79C1235.94 2050.99 1233.37 2048.43 1233.37 2042.58V1995.54H1257.54V1978.15H1233.37V1949.41H1211.05V1978.15H1191.28V1995.54H1211.05V2046.05C1211.05 2060.51 1219.28 2069.3 1234.11 2069.3Z" fill="white"/>
<path d="M1318.31 2072.04C1344.85 2072.04 1364.25 2052.64 1364.25 2023.72C1364.25 1995.17 1345.03 1975.4 1318.31 1975.4C1291.59 1975.4 1272.37 1995.17 1272.37 2023.72C1272.37 2051.54 1291.77 2072.04 1318.31 2072.04ZM1318.31 2053.92C1304.76 2053.92 1295.43 2044.41 1295.43 2024.09C1295.43 2003.77 1304.76 1993.52 1318.31 1993.52C1331.85 1993.52 1341 2003.77 1341 2024.09C1341 2044.41 1331.85 2053.92 1318.31 2053.92Z" fill="white"/>
<path d="M1385.86 2069.3H1408.19V2027.75C1408.19 2016.58 1408.56 1994.07 1429.06 1994.07C1439.12 1994.07 1445.53 1999.93 1445.53 2013.66V2069.3H1467.86V2008.71C1467.86 1988.76 1458.89 1975.4 1437.11 1975.4C1419.36 1975.4 1410.57 1987.3 1407.64 1992.61V1978.15H1385.86V2069.3Z" fill="white"/>
<mask id="path-14-inside-2_285_6356" fill="white">
<path fill-rule="evenodd" clip-rule="evenodd" d="M559.997 1904.01L565.993 1919.01L590.051 1979.15H649.884H667.073L654.137 1990.47L605.9 2032.68L623.967 2092.9L629.121 2110.08L614.199 2100.13L560.037 2064.02L505.85 2100.96L491.018 2111.07L496.009 2093.83L514.106 2031.31L465.938 1990.54L452.481 1979.15H470.11H529.942L554 1919.01L559.997 1904.01ZM559.997 1938.79L540.312 1988.01L538.688 1992.07H534.315H487.739L525.646 2024.15L528.842 2026.85L527.678 2030.88L513.407 2080.18L556.359 2050.9L559.957 2048.45L563.579 2050.86L606.442 2079.44L592.334 2032.41L591.14 2028.43L594.267 2025.69L632.695 1992.07H585.679H581.306L579.682 1988.01L559.997 1938.79Z"/>
</mask>
<path fill-rule="evenodd" clip-rule="evenodd" d="M559.997 1904.01L565.993 1919.01L590.051 1979.15H649.884H667.073L654.137 1990.47L605.9 2032.68L623.967 2092.9L629.121 2110.08L614.199 2100.13L560.037 2064.02L505.85 2100.96L491.018 2111.07L496.009 2093.83L514.106 2031.31L465.938 1990.54L452.481 1979.15H470.11H529.942L554 1919.01L559.997 1904.01ZM559.997 1938.79L540.312 1988.01L538.688 1992.07H534.315H487.739L525.646 2024.15L528.842 2026.85L527.678 2030.88L513.407 2080.18L556.359 2050.9L559.957 2048.45L563.579 2050.86L606.442 2079.44L592.334 2032.41L591.14 2028.43L594.267 2025.69L632.695 1992.07H585.679H581.306L579.682 1988.01L559.997 1938.79Z" fill="white"/>
<path d="M565.993 1919.01L546.612 1926.76L546.612 1926.76L565.993 1919.01ZM559.997 1904.01L579.378 1896.26L559.997 1847.81L540.615 1896.26L559.997 1904.01ZM590.051 1979.15L570.67 1986.9L575.919 2000.03H590.051V1979.15ZM667.073 1979.15L680.818 1994.86L722.628 1958.28H667.073V1979.15ZM654.137 1990.47L640.391 1974.76L654.137 1990.47ZM605.9 2032.68L592.154 2016.97L582.047 2025.81L585.906 2038.68L605.9 2032.68ZM623.967 2092.9L603.973 2098.9L603.973 2098.9L623.967 2092.9ZM629.121 2110.08L617.542 2127.45L665.77 2159.6L649.115 2104.08L629.121 2110.08ZM614.199 2100.13L625.778 2082.76L625.778 2082.76L614.199 2100.13ZM560.037 2064.02L571.616 2046.66L559.907 2038.85L548.279 2046.78L560.037 2064.02ZM505.85 2100.96L517.608 2118.21L517.608 2118.21L505.85 2100.96ZM491.018 2111.07L470.966 2105.27L454.835 2161L502.775 2128.32L491.018 2111.07ZM496.009 2093.83L475.957 2088.03L475.957 2088.03L496.009 2093.83ZM514.106 2031.31L534.157 2037.11L537.919 2024.11L527.591 2015.37L514.106 2031.31ZM465.938 1990.54L452.453 2006.47L452.453 2006.47L465.938 1990.54ZM452.481 1979.15V1958.28H395.504L438.996 1995.08L452.481 1979.15ZM529.942 1979.15V2000.03H544.075L549.324 1986.9L529.942 1979.15ZM554 1919.01L534.619 1911.25L534.619 1911.25L554 1919.01ZM540.312 1988.01L520.93 1980.26L520.93 1980.26L540.312 1988.01ZM559.997 1938.79L579.378 1931.04L559.997 1882.59L540.616 1931.04L559.997 1938.79ZM538.688 1992.07V2012.94H552.82L558.069 1999.82L538.688 1992.07ZM487.739 1992.07V1971.19H430.762L474.254 2008L487.739 1992.07ZM525.646 2024.15L539.131 2008.22L539.131 2008.22L525.646 2024.15ZM528.842 2026.85L548.893 2032.66L552.655 2019.66L542.327 2010.92L528.842 2026.85ZM527.678 2030.88L547.729 2036.68L547.729 2036.68L527.678 2030.88ZM513.407 2080.18L493.356 2074.37L477.225 2130.11L525.165 2097.43L513.407 2080.18ZM556.359 2050.9L544.601 2033.65L544.601 2033.65L556.359 2050.9ZM559.957 2048.45L571.536 2031.08L559.827 2023.27L548.199 2031.2L559.957 2048.45ZM563.579 2050.86L552 2068.23L552 2068.23L563.579 2050.86ZM606.442 2079.44L594.863 2096.8L643.091 2128.96L626.436 2073.44L606.442 2079.44ZM592.334 2032.41L572.34 2038.41L572.34 2038.41L592.334 2032.41ZM591.14 2028.43L577.394 2012.72L567.287 2021.56L571.146 2034.43L591.14 2028.43ZM594.267 2025.69L580.521 2009.98L580.521 2009.98L594.267 2025.69ZM632.695 1992.07L646.441 2007.78L688.251 1971.19H632.695V1992.07ZM581.306 1992.07L561.925 1999.82L567.174 2012.94H581.306V1992.07ZM579.682 1988.01L599.064 1980.26L599.064 1980.26L579.682 1988.01ZM585.375 1911.25L579.378 1896.26L540.615 1911.77L546.612 1926.76L585.375 1911.25ZM609.433 1971.4L585.375 1911.25L546.612 1926.76L570.67 1986.9L609.433 1971.4ZM649.884 1958.28H590.051V2000.03H649.884V1958.28ZM667.073 1958.28H649.884V2000.03H667.073V1958.28ZM667.882 2006.18L680.818 1994.86L653.327 1963.44L640.391 1974.76L667.882 2006.18ZM619.646 2048.39L667.882 2006.18L640.391 1974.76L592.154 2016.97L619.646 2048.39ZM643.961 2086.9L625.894 2026.68L585.906 2038.68L603.973 2098.9L643.961 2086.9ZM649.115 2104.08L643.961 2086.9L603.973 2098.9L609.127 2116.08L649.115 2104.08ZM602.62 2117.5L617.542 2127.45L640.7 2092.71L625.778 2082.76L602.62 2117.5ZM548.458 2081.39L602.62 2117.5L625.778 2082.76L571.616 2046.66L548.458 2081.39ZM517.608 2118.21L571.795 2081.27L548.279 2046.78L494.093 2083.71L517.608 2118.21ZM502.775 2128.32L517.608 2118.21L494.093 2083.71L479.26 2093.83L502.775 2128.32ZM475.957 2088.03L470.966 2105.27L511.069 2116.88L516.06 2099.63L475.957 2088.03ZM494.055 2025.5L475.957 2088.03L516.06 2099.63L534.157 2037.11L494.055 2025.5ZM452.453 2006.47L500.621 2047.24L527.591 2015.37L479.423 1974.61L452.453 2006.47ZM438.996 1995.08L452.453 2006.47L479.423 1974.61L465.966 1963.22L438.996 1995.08ZM470.11 1958.28H452.481V2000.03H470.11V1958.28ZM529.942 1958.28H470.11V2000.03H529.942V1958.28ZM534.619 1911.25L510.561 1971.4L549.324 1986.9L573.381 1926.76L534.619 1911.25ZM540.615 1896.26L534.619 1911.25L573.381 1926.76L579.378 1911.77L540.615 1896.26ZM559.693 1995.76L579.378 1946.55L540.616 1931.04L520.93 1980.26L559.693 1995.76ZM558.069 1999.82L559.693 1995.76L520.93 1980.26L519.306 1984.32L558.069 1999.82ZM534.315 2012.94H538.688V1971.19H534.315V2012.94ZM487.739 2012.94H534.315V1971.19H487.739V2012.94ZM539.131 2008.22L501.224 1976.13L474.254 2008L512.161 2040.08L539.131 2008.22ZM542.327 2010.92L539.131 2008.22L512.161 2040.08L515.357 2042.79L542.327 2010.92ZM547.729 2036.68L548.893 2032.66L508.79 2021.05L507.627 2025.07L547.729 2036.68ZM533.459 2085.98L547.729 2036.68L507.627 2025.07L493.356 2074.37L533.459 2085.98ZM544.601 2033.65L501.65 2062.93L525.165 2097.43L568.117 2068.15L544.601 2033.65ZM548.199 2031.2L544.601 2033.65L568.117 2068.15L571.714 2065.69L548.199 2031.2ZM575.158 2033.49L571.536 2031.08L548.378 2065.81L552 2068.23L575.158 2033.49ZM618.021 2062.07L575.158 2033.49L552 2068.23L594.863 2096.8L618.021 2062.07ZM572.34 2038.41L586.448 2085.43L626.436 2073.44L612.328 2026.41L572.34 2038.41ZM571.146 2034.43L572.34 2038.41L612.328 2026.41L611.134 2022.43L571.146 2034.43ZM580.521 2009.98L577.394 2012.72L604.885 2044.14L608.013 2041.4L580.521 2009.98ZM618.949 1976.36L580.521 2009.98L608.013 2041.4L646.441 2007.78L618.949 1976.36ZM585.679 2012.94H632.695V1971.19H585.679V2012.94ZM581.306 2012.94H585.679V1971.19H581.306V2012.94ZM560.301 1995.76L561.925 1999.82L600.687 1984.32L599.064 1980.26L560.301 1995.76ZM540.616 1946.55L560.301 1995.76L599.064 1980.26L579.378 1931.04L540.616 1946.55Z" fill="white" mask="url(#path-14-inside-2_285_6356)"/>
</g>
<g opacity="0.5">
<path d="M345.718 -246.396H1114.61C1239.49 -246.396 1340.72 -145.162 1340.72 -20.2848V127.58C1340.72 154.461 1318.93 176.253 1292.05 176.253H345.718C318.836 176.253 297.044 154.461 297.044 127.58V-197.722C297.044 -224.604 318.836 -246.396 345.718 -246.396Z" fill="white" stroke="black" stroke-width="20.9439"/>
<path d="M561.59 20.5083H614.939C637.385 20.5083 654.951 9.44809 654.951 -11.0459C654.951 -25.8471 643.891 -36.4195 629.253 -39.0219C641.939 -42.4375 651.21 -51.7086 651.21 -65.6966C651.21 -82.1243 638.686 -93.3473 613.963 -93.3473H561.59V20.5083ZM582.734 -47.3171V-75.293H611.198C622.584 -75.293 629.741 -71.2267 629.741 -61.6303C629.741 -52.0339 622.584 -47.3171 611.198 -47.3171H582.734ZM582.734 2.4541V-29.5881H611.849C624.536 -29.5881 632.831 -24.3833 632.831 -13.6483C632.831 -2.75073 624.536 2.4541 611.849 2.4541H582.734Z" fill="black"/>
<path d="M700.154 22.9481C716.094 22.9481 723.576 12.5385 726.829 7.17098V20.5083H746.51V-60.4918H726.666V-22.4315C726.666 -9.41941 723.739 6.35772 708.287 6.35772C699.666 6.35772 694.299 1.31555 694.299 -11.2086V-60.4918H674.456V-6.49169C674.456 11.2373 683.401 22.9481 700.154 22.9481Z" fill="black"/>
<path d="M800.016 20.5083H824.088V4.24326H806.847C801.642 4.24326 799.365 1.96615 799.365 -3.23868V-45.04H820.835V-60.4918H799.365V-86.028H779.522V-60.4918H761.955V-45.04H779.522V-0.148313C779.522 12.7011 786.841 20.5083 800.016 20.5083Z" fill="black"/>
<path d="M869.288 20.5083H893.361V4.24326H876.12C870.915 4.24326 868.638 1.96615 868.638 -3.23868V-45.04H890.108V-60.4918H868.638V-86.028H848.794V-60.4918H831.228V-45.04H848.794V-0.148313C848.794 12.7011 856.114 20.5083 869.288 20.5083Z" fill="black"/>
<path d="M944.114 22.9481C967.699 22.9481 984.94 5.70711 984.94 -19.9917C984.94 -45.3653 967.861 -62.9315 944.114 -62.9315C920.367 -62.9315 903.289 -45.3653 903.289 -19.9917C903.289 4.73121 920.53 22.9481 944.114 22.9481ZM944.114 6.84568C932.078 6.84568 923.783 -1.61218 923.783 -19.6664C923.783 -37.7207 932.078 -46.8291 944.114 -46.8291C956.15 -46.8291 964.283 -37.7207 964.283 -19.6664C964.283 -1.61218 956.15 6.84568 944.114 6.84568Z" fill="black"/>
<path d="M1004.14 20.5083H1023.99V-16.4134C1023.99 -26.3351 1024.31 -46.3412 1042.53 -46.3412C1051.48 -46.3412 1057.17 -41.1363 1057.17 -28.9375V20.5083H1077.01V-33.3291C1077.01 -51.058 1069.04 -62.9315 1049.69 -62.9315C1033.91 -62.9315 1026.1 -52.3592 1023.5 -47.6424V-60.4918H1004.14V20.5083Z" fill="black"/>
</g>
<path d="M281 807.572C281 774.907 307.48 748.426 340.146 748.426H1109.04C1239.7 748.426 1345.62 854.348 1345.62 985.009V1132.87C1345.62 1165.54 1319.14 1192.02 1286.48 1192.02H340.146C307.48 1192.02 281 1165.54 281 1132.87V807.572Z" fill="white"/>
<path d="M340.146 758.898H1109.04C1233.92 758.898 1335.15 860.131 1335.15 985.009V1132.87C1335.15 1159.76 1313.36 1181.55 1286.48 1181.55H340.146C313.264 1181.55 291.472 1159.76 291.472 1132.87V807.572C291.472 780.69 313.264 758.898 340.146 758.898Z" stroke="black" stroke-opacity="0.8" stroke-width="20.9439"/>
<path d="M556.999 1028.67H610.348C632.794 1028.67 650.36 1017.61 650.36 997.118C650.36 982.316 639.3 971.744 624.662 969.142C637.348 965.726 646.619 956.455 646.619 942.467C646.619 926.039 634.095 914.816 609.372 914.816H556.999V1028.67ZM578.143 960.846V932.871H606.607C617.993 932.871 625.149 936.937 625.149 946.533C625.149 956.13 617.993 960.846 606.607 960.846H578.143ZM578.143 1010.62V978.575H607.258C619.945 978.575 628.24 983.78 628.24 994.515C628.24 1005.41 619.945 1010.62 607.258 1010.62H578.143Z" fill="black"/>
<path d="M695.563 1031.11C711.503 1031.11 718.985 1020.7 722.238 1015.33V1028.67H741.919V947.672H722.075V985.732C722.075 998.744 719.148 1014.52 703.696 1014.52C695.075 1014.52 689.708 1009.48 689.708 996.955V947.672H669.864V1001.67C669.864 1019.4 678.81 1031.11 695.563 1031.11Z" fill="black"/>
<path d="M795.425 1028.67H819.497V1012.41H802.256C797.051 1012.41 794.774 1010.13 794.774 1004.92V963.124H816.244V947.672H794.774V922.136H774.931V947.672H757.364V963.124H774.931V1008.02C774.931 1020.86 782.25 1028.67 795.425 1028.67Z" fill="black"/>
<path d="M864.697 1028.67H888.77V1012.41H871.529C866.324 1012.41 864.047 1010.13 864.047 1004.92V963.124H885.517V947.672H864.047V922.136H844.203V947.672H826.637V963.124H844.203V1008.02C844.203 1020.86 851.523 1028.67 864.697 1028.67Z" fill="black"/>
<path d="M939.523 1031.11C963.107 1031.11 980.348 1013.87 980.348 988.172C980.348 962.798 963.27 945.232 939.523 945.232C915.776 945.232 898.698 962.798 898.698 988.172C898.698 1012.89 915.939 1031.11 939.523 1031.11ZM939.523 1015.01C927.487 1015.01 919.192 1006.55 919.192 988.497C919.192 970.443 927.487 961.334 939.523 961.334C951.559 961.334 959.692 970.443 959.692 988.497C959.692 1006.55 951.559 1015.01 939.523 1015.01Z" fill="black"/>
<path d="M999.554 1028.67H1019.4V991.75C1019.4 981.828 1019.72 961.822 1037.94 961.822C1046.89 961.822 1052.58 967.027 1052.58 979.226V1028.67H1072.42V974.834C1072.42 957.106 1064.45 945.232 1045.1 945.232C1029.32 945.232 1021.51 955.804 1018.91 960.521V947.672H999.554V1028.67Z" fill="black"/>
<rect x="342.322" y="678.094" width="36.7671" height="36.4136" transform="rotate(45 342.322 678.094)" fill="black"/>
<rect x="372.068" y="648.346" width="36.7671" height="36.4136" transform="rotate(45 372.068 648.346)" fill="black"/>
<rect x="312.323" y="648.099" width="36.7671" height="36.4136" transform="rotate(45 312.323 648.099)" fill="black"/>
<rect x="342.071" y="618.348" width="36.7671" height="36.4136" transform="rotate(45 342.071 618.348)" fill="black"/>
</g>
<defs>
<filter id="filter0_d_285_6356" x="937.735" y="946.454" width="218.476" height="254.718" filterUnits="userSpaceOnUse" color-interpolation-filters="sRGB">
<feFlood flood-opacity="0" result="BackgroundImageFix"/>
<feColorMatrix in="SourceAlpha" type="matrix" values="0 0 0 0 0 0 0 0 0 0 0 0 0 0 0 0 0 0 127 0" result="hardAlpha"/>
<feOffset dy="5.31002"/>
<feGaussianBlur stdDeviation="7.96503"/>
<feColorMatrix type="matrix" values="0 0 0 0 0 0 0 0 0 0 0 0 0 0 0 0 0 0 0.35 0"/>
<feBlend mode="normal" in2="BackgroundImageFix" result="effect1_dropShadow_285_6356"/>
<feBlend mode="normal" in="SourceGraphic" in2="effect1_dropShadow_285_6356" result="shape"/>
</filter>
<clipPath id="clip0_285_6356">
<rect width="2057" height="2057" fill="white"/>
</clipPath>
</defs>
</svg>
