<svg width="2057" height="2057" viewBox="0 0 2057 2057" fill="none" xmlns="http://www.w3.org/2000/svg">
<rect x="299.419" y="795.621" width="466.757" height="466.757" rx="55.2573" fill="white" stroke="#feb95d" stroke-width="36.8382"/>
<rect x="1289.82" y="795.621" width="466.757" height="466.757" rx="55.2573" fill="#feb95d" stroke="#feb95d" stroke-width="36.8382"/>
<path d="M1372.4 993.201H1372.39H1342.21C1334.71 993.201 1330.52 1001.84 1335.16 1007.72L1335.16 1007.72L1453.4 1157.52L1453.4 1157.52C1461.15 1167.32 1476 1167.3 1483.77 1157.54L1483.78 1157.53L1483.79 1157.52L1694.6 890.379C1694.61 890.371 1694.61 890.363 1694.62 890.356C1699.34 884.446 1694.98 875.865 1687.57 875.865H1657.4C1651.49 875.865 1645.86 878.572 1642.21 883.247C1642.21 883.252 1642.21 883.257 1642.2 883.261L1468.57 1103.21L1387.57 1000.57C1387.57 1000.57 1387.57 1000.57 1387.56 1000.57C1385.76 998.278 1383.45 996.423 1380.83 995.146C1378.2 993.869 1375.32 993.204 1372.4 993.201Z" fill="white" stroke="white" stroke-width="11.0515"/>
<path d="M1263.65 1114.77C1265.99 1112.43 1265.99 1108.64 1263.65 1106.3L1225.5 1068.14C1223.16 1065.8 1219.36 1065.8 1217.02 1068.14C1214.68 1070.48 1214.68 1074.28 1217.02 1076.62L1250.94 1110.53L1217.02 1144.45C1214.68 1146.79 1214.68 1150.59 1217.02 1152.93C1219.36 1155.27 1223.16 1155.27 1225.5 1152.93L1263.65 1114.77ZM830.159 1116.53H1259.41V1104.54H830.159V1116.53Z" fill="#ff7272"/>
<path d="M943.425 943.226C941.084 945.567 941.084 949.363 943.425 951.705L981.578 989.858C983.92 992.199 987.715 992.199 990.057 989.858C992.398 987.517 992.398 983.721 990.057 981.379L956.143 947.465L990.057 913.552C992.398 911.21 992.398 907.414 990.057 905.073C987.716 902.732 983.92 902.732 981.578 905.073L943.425 943.226ZM1213.85 941.47L947.664 941.47L947.664 953.461L1213.85 953.461L1213.85 941.47Z" fill="#ff7272"/>
<path d="M818.168 1150.1C839.814 1150.1 857.737 1133.13 857.737 1111.73C857.737 1090.34 839.814 1073.36 818.168 1073.36C796.523 1073.36 778.6 1090.34 778.6 1111.73C778.6 1133.13 796.523 1150.1 818.168 1150.1Z" fill="white" stroke="#ff7272" stroke-width="11.9904"/>
<path d="M1225.84 984.636C1204.2 984.636 1186.27 967.661 1186.27 946.266C1186.27 924.872 1204.2 907.897 1225.84 907.897C1247.49 907.897 1265.41 924.872 1265.41 946.266C1265.41 967.661 1247.49 984.636 1225.84 984.636Z" fill="white" stroke="#ff7272" stroke-width="11.9904"/>
<g filter="url(#filter0_d_285_6273)">
<path d="M999.114 1163.29L962.053 969.048L1125.12 1066.17L1043.59 1088.58L999.114 1163.29Z" fill="white"/>
<path d="M999.114 1163.29L962.053 969.048L1125.12 1066.17L1043.59 1088.58L999.114 1163.29Z" stroke="#010101" stroke-width="11.9904" stroke-linecap="square"/>
</g>
<defs>
<filter id="filter0_d_285_6273" x="937.735" y="946.454" width="218.476" height="254.718" filterUnits="userSpaceOnUse" color-interpolation-filters="sRGB">
<feFlood flood-opacity="0" result="BackgroundImageFix"/>
<feColorMatrix in="SourceAlpha" type="matrix" values="0 0 0 0 0 0 0 0 0 0 0 0 0 0 0 0 0 0 127 0" result="hardAlpha"/>
<feOffset dy="5.31002"/>
<feGaussianBlur stdDeviation="7.96503"/>
<feColorMatrix type="matrix" values="0 0 0 0 0 0 0 0 0 0 0 0 0 0 0 0 0 0 0.35 0"/>
<feBlend mode="normal" in2="BackgroundImageFix" result="effect1_dropShadow_285_6273"/>
<feBlend mode="normal" in="SourceGraphic" in2="effect1_dropShadow_285_6273" result="shape"/>
</filter>
</defs>
</svg>
