<svg width="136" height="24" viewBox="0 0 136 24" fill="none" xmlns="http://www.w3.org/2000/svg">
<path d="M17.325 0L19.275 2.7L6.225 20.775H10.125L21.3 5.4L23.25 8.1L11.775 23.925H0L17.325 0ZM15.675 23.925H27.45L29.775 20.775L31.125 18.9L29.175 16.2L25.875 20.775H21.975L27.225 13.5L25.275 10.8L15.675 23.925Z" fill="#161742"/>
<path d="M131.475 7.2002C129.825 7.2002 128.775 7.5752 127.575 8.2502C127.05 7.5752 126.15 7.2002 124.8 7.2002C123.375 7.2002 122.4 7.7252 121.425 8.3252V7.3502H118.425V20.7752H121.575V10.6502C122.55 10.1252 123.3 9.9002 123.75 9.9002C125.1 9.9002 125.4 10.3502 125.4 12.2252V20.8502H128.55V12.1502C128.55 11.5502 128.55 10.9502 128.475 10.4252C129.3 9.9752 130.2 9.8252 130.65 9.8252C132 9.8252 132.375 10.2752 132.375 12.1502V20.7752H135.525V12.1502C135.375 9.3752 134.7 7.2002 131.475 7.2002Z" fill="#161742"/>
<path d="M86.025 14.7752C86.025 16.7252 85.5 18.1502 83.475 18.1502H81.225V18.0002V16.8752V15.6752V9.9752C81.9 9.9002 82.95 9.82519 83.475 9.82519C85.5 9.82519 86.025 11.2502 86.025 13.2002V14.7752ZM83.475 7.20019C82.875 7.20019 82.05 7.2752 81.225 7.3502V2.7002H78.075V15.6752V19.3502V19.5002V20.5502V20.7752H83.4H83.475C87.3 20.7752 89.175 18.5252 89.175 14.7752V13.2002C89.175 9.45019 87.375 7.20019 83.475 7.20019Z" fill="#161742"/>
<path d="M45.0749 12.9002H40.0499V12.8252C40.0499 10.9502 41.0999 9.9002 42.5999 9.9002C44.0999 9.9002 45.0749 10.9502 45.0749 12.8252V12.9002ZM42.5999 7.2002C38.9249 7.2002 36.8999 9.5252 36.8999 13.2752V15.0002C36.8999 19.6502 40.2749 21.0002 42.6749 21.0002C44.3999 21.0002 45.3749 20.9252 46.4999 20.7002C46.7249 20.6252 47.0249 20.6252 47.2499 20.5502L47.6999 20.4752V20.0252V19.9502V18.3752V18.0002H47.2499C47.1749 18.0002 47.1749 18.0002 47.0999 18.0002L46.3499 18.0752C45.3749 18.1502 44.1749 18.2252 42.8249 18.2252C40.5749 18.2252 39.9749 16.5752 39.9749 15.2252V15.1502H47.3999H47.7749H48.2249V14.5502V14.3252V13.2752C48.2249 9.6752 46.2749 7.2002 42.5999 7.2002Z" fill="#161742"/>
<path d="M99.6001 12.9002H94.575V12.8252C94.575 10.9502 95.625 9.9002 97.125 9.9002C98.625 9.9002 99.6001 10.9502 99.6001 12.8252V12.9002ZM97.125 7.2002C93.45 7.2002 91.425 9.5252 91.425 13.2752V15.0002C91.425 19.6502 94.8 21.0002 97.2 21.0002C98.925 21.0002 99.9 20.9252 101.025 20.7002C101.25 20.6252 101.55 20.6252 101.775 20.5502L102.225 20.4752V20.0252V19.9502V18.3752V18.0002L101.7 18.0752C101.625 18.0752 101.625 18.0752 101.55 18.0752L100.8 18.1502C99.825 18.2252 98.625 18.3002 97.275 18.3002C95.025 18.3002 94.425 16.6502 94.425 15.3002V15.2252H101.85H102.225H102.675V14.6252V14.4002V13.3502C102.75 9.6752 100.8 7.2002 97.125 7.2002Z" fill="#161742"/>
<path d="M71.625 17.7752C70.95 18.1502 70.05 18.4502 69.225 18.4502C68.025 18.4502 67.5001 18.1502 67.5001 16.9502V16.8752C67.5001 15.5252 67.9501 14.8502 70.125 14.8502H71.625V17.7752ZM69.525 7.2002C68.1 7.2002 66.8251 7.3502 65.9251 7.5002H65.7751C65.7001 7.5002 65.6251 7.5002 65.5501 7.5752L65.1001 7.6502V8.0252V8.1002V9.6002V9.6752V10.0502L65.9251 9.9752C66.7501 9.9002 68.175 9.8252 69.525 9.8252C70.95 9.8252 71.625 10.2002 71.625 11.7752V12.7502H70.125C66.0001 12.7502 64.3501 14.1752 64.3501 16.8752V16.9502C64.3501 20.1752 66.5251 20.9252 68.475 20.9252C69.6 20.9252 70.725 20.5502 71.85 19.8752V19.9502V20.2502V20.7002H72.3H74.25H74.7V20.2502V19.9502V11.7002C74.775 8.7002 72.9 7.2002 69.525 7.2002Z" fill="#161742"/>
<path d="M112.2 17.7752C111.525 18.1502 110.625 18.4502 109.8 18.4502C108.6 18.4502 108.075 18.1502 108.075 16.9502V16.8752C108.075 15.5252 108.525 14.8502 110.7 14.8502H112.2V17.7752ZM110.1 7.2002C108.675 7.2002 107.4 7.3502 106.5 7.5002H106.35C106.275 7.5002 106.2 7.5002 106.125 7.5752L105.675 7.6502V8.0252V8.1002V9.6002V9.6752V10.0502L106.5 9.9752C107.325 9.9002 108.75 9.8252 110.1 9.8252C111.525 9.8252 112.2 10.2002 112.2 11.7752V12.7502H110.7C106.575 12.7502 104.925 14.1752 104.925 16.8752V16.9502C104.925 20.1752 107.1 20.9252 109.05 20.9252C110.175 20.9252 111.3 20.5502 112.425 19.8752V19.9502V20.2502V20.7002H112.875H114.9H115.35V20.2502V19.9502V11.7002C115.275 8.7002 113.475 7.2002 110.1 7.2002Z" fill="#161742"/>
<path d="M59.4751 7.35059L56.1751 11.8506L52.9501 7.35059H49.7251L54.6001 14.1006L49.7251 20.7756H52.9501L56.1751 16.2756L59.4751 20.7756H62.7001L57.8251 14.1006L62.7001 7.35059H59.4751Z" fill="#161742"/>
</svg>
