<svg width="141" height="25" viewBox="0 0 141 25" fill="none" xmlns="http://www.w3.org/2000/svg">
<path d="M139.548 7.185C139.548 6.6444 139.169 6.284 138.544 6.284L137.316 6.3066L137.338 9.0544H138.008V8.1084H138.41L138.99 9.0544H139.772L139.079 7.9958C139.223 7.9157 139.342 7.798 139.424 7.6553C139.507 7.5127 139.55 7.3502 139.548 7.185ZM138.41 7.5454H137.985V6.8471H138.477C138.565 6.8373 138.654 6.8623 138.725 6.9168C138.795 6.9714 138.842 7.0513 138.856 7.1399V7.1625C138.854 7.2181 138.841 7.2728 138.817 7.323C138.793 7.3732 138.759 7.4178 138.717 7.4538C138.675 7.4899 138.626 7.5167 138.573 7.5325C138.52 7.5482 138.464 7.5526 138.41 7.5454ZM39.3638 19.8882C38.2251 19.8882 37.4436 18.9873 37.4436 17.6584V11.5996H42.1324V7.3201H37.4548L37.4101 2.41H32.2301L32.2747 18.762C32.2747 22.073 34.4629 24.3253 37.6781 24.3253C39.375 24.3253 40.9826 24.0776 42.2552 23.4919V19.3251C41.3515 19.7482 40.3587 19.9415 39.3638 19.8882ZM51.7334 7.0498C46.9106 7.0498 43.2042 10.8338 43.2042 15.8565C43.2042 20.8342 46.9106 24.3028 52.0236 24.3028C54.9039 24.3028 57.6056 23.2667 59.2578 21.127L55.2835 19.3026C54.4797 20.0459 53.2517 20.3387 52.1576 20.3387C50.3714 20.3387 48.5852 19.4152 48.3396 17.5232H60.1956C60.3738 16.8472 60.4638 16.1506 60.4635 15.4511C60.4635 10.2932 56.7348 7.0498 51.7445 7.0498H51.7334ZM48.3396 14.2123C48.4958 11.9599 50.1034 10.9239 51.8673 10.9239C53.8545 10.9239 55.3505 12.05 55.3505 13.9871V14.2123H48.3396ZM27.3068 19.8882C26.1681 19.8882 25.3866 18.9873 25.3866 17.6584V11.5996H30.0755V7.3201H25.3978L25.3531 2.41H20.1731L20.2178 18.762C20.2178 22.073 22.4059 24.3253 25.6211 24.3253C27.318 24.3253 28.9256 24.0776 30.1983 23.4919V19.3251C29.2952 19.7502 28.3019 19.9437 27.3068 19.8882ZM9.1097 7.0498C4.6665 7.0498 0 10.0004 0 15.9466C0 20.9018 3.3045 24.3704 7.4798 24.3704C9.8689 24.3704 11.6774 23.4019 12.8608 21.6901L13.0171 24.0775H18.0296V16.1493C18.0296 10.113 13.6199 7.0498 9.1097 7.0498ZM9.1097 19.7981C6.8546 19.7981 5.2247 18.1088 5.2247 15.7214C5.2247 13.3339 6.8323 11.6446 9.1097 11.6446C11.2085 11.6446 12.9501 13.4915 12.9501 15.7214C12.9501 17.9512 11.2085 19.7981 9.1097 19.7981ZM138.298 5.0452C136.668 5.0678 135.619 6.1264 135.641 7.703C135.663 9.2797 136.735 10.3157 138.365 10.2932C139.95 10.2707 141.022 9.2121 141 7.6129C140.977 6.0138 139.906 5.0227 138.298 5.0452ZM138.365 9.8427C137.092 9.8653 136.222 9.0094 136.222 7.703C136.222 6.3967 137.048 5.5182 138.32 5.4957C139.593 5.4732 140.441 6.3291 140.464 7.658C140.464 8.9418 139.615 9.8202 138.376 9.8427H138.365ZM112.978 7.3426L109.361 17.9287L105.7 7.3426H100.073L106.816 24.055H111.862L118.605 7.3426H112.978ZM126.397 7.0498C121.575 7.0498 117.868 10.8338 117.868 15.8565C117.868 20.8342 121.575 24.3028 126.688 24.3028C129.568 24.3028 132.27 23.2667 133.922 21.127L129.947 19.3026C129.144 20.0459 127.916 20.3387 126.822 20.3387C125.035 20.3387 123.249 19.4152 123.004 17.5232H134.86C135.038 16.8472 135.128 16.1506 135.127 15.4511C135.127 10.2932 131.399 7.0498 126.397 7.0498ZM130.014 14.2123H123.004C123.16 11.9599 124.767 10.9239 126.531 10.9239C128.518 10.9239 130.014 12.05 130.014 13.9871V14.2123ZM96.076 0C94.245 0 92.861 1.2388 92.861 2.9731C92.861 4.7074 94.245 5.9912 96.076 5.9912C97.907 5.9912 99.291 4.7299 99.291 2.9731C99.291 1.2163 97.929 0 96.076 0ZM72.565 7.0273C71.518 7.0103 70.4849 7.2668 69.5654 7.772C68.6459 8.2772 67.8717 9.0139 67.3181 9.9103L67.1395 7.3426H62.1381V24.055H67.3181V15.2934C67.4298 13.1987 69.1043 11.5996 70.9352 11.5996C72.989 11.5996 73.927 13.1537 73.927 15.1132V24.0325H79.085V14.3024C79.085 10.068 76.528 7.0273 72.565 7.0273ZM88.373 19.8882C87.234 19.8882 86.453 18.9873 86.453 17.6584V11.5996H91.142V7.3201H86.453L86.408 2.41H81.228L81.273 18.762C81.273 22.073 83.461 24.3253 86.676 24.3253C88.373 24.3253 89.981 24.0776 91.253 23.4919V19.3251C90.354 19.7484 89.365 19.9418 88.373 19.8882ZM93.464 7.3426V24.055H98.689V7.3426C97.914 7.8604 97.005 8.1366 96.076 8.1366C95.147 8.1366 94.238 7.8604 93.464 7.3426Z" fill="#161742"/>
</svg>
