<svg width="224" height="35" viewBox="0 0 224 35" fill="none" xmlns="http://www.w3.org/2000/svg">
<path fill-rule="evenodd" clip-rule="evenodd" d="M25.8 0.199951V33.9H20.4V31.4C20.4 31.2 20.3 31 20.1 31C19.9 30.9 19.7 30.9999 19.6 31.0999C17.7 33.1999 14.9 34.5 11.8 34.5C8.6 34.5 5.6 33.2 3.4 31C1.2 28.7 0 25.6 0 22.2C0 15.3 5.2 9.89995 11.8 9.89995C14.9 9.89995 17.8 11.1 19.6 13.1C19.7 13.2 19.9 13.3 20.1 13.2C20.3 13.1 20.4 13 20.4 12.8V0.199951H25.8ZM5.4 22.2C5.4 26.5 8.7 29.7999 13 29.7999C17.3 29.7999 20.6 26.5 20.6 22.2C20.6 17.9 17.3 14.6 13 14.6C8.8 14.6 5.4 17.9 5.4 22.2Z" fill="#212938"/>
<path fill-rule="evenodd" clip-rule="evenodd" d="M54.3992 10.3999V33.8999H49.0992V31.3999C49.0992 31.1999 48.9992 30.9999 48.7992 30.9999C48.5992 30.8999 48.3992 30.9999 48.2992 31.0999C46.3992 33.2999 43.5992 34.4999 40.4992 34.4999C33.8992 34.4999 28.6992 29.0999 28.6992 22.1999C28.6992 15.2999 33.8992 9.8999 40.4992 9.8999C43.6992 9.8999 46.4992 10.9999 48.2992 13.0999C48.3992 13.1999 48.5992 13.2999 48.7992 13.1999C48.9992 13.0999 49.0992 12.9999 49.0992 12.7999V10.3999H54.3992ZM34.0992 22.1999C34.0992 26.4999 37.3992 29.7999 41.6992 29.7999C45.9992 29.7999 49.2992 26.4999 49.2992 22.1999C49.2992 17.8999 45.9992 14.5999 41.6992 14.5999C37.4992 14.5999 34.0992 17.8999 34.0992 22.1999Z" fill="#212938"/>
<path fill-rule="evenodd" clip-rule="evenodd" d="M99.8992 10.3999V33.8999H94.5992V31.3999C94.5992 31.1999 94.4992 30.9999 94.2992 30.9999C94.0992 30.8999 93.8992 30.9999 93.7992 31.0999C91.8992 33.2999 89.0992 34.4999 85.9992 34.4999C79.3992 34.4999 74.1992 29.0999 74.1992 22.1999C74.1992 15.2999 79.3992 9.8999 85.9992 9.8999C89.1992 9.8999 91.9992 10.9999 93.7992 13.0999C93.8992 13.1999 94.0992 13.2999 94.2992 13.1999C94.4992 13.0999 94.5992 12.9999 94.5992 12.7999V10.3999H99.8992ZM79.5992 22.1999C79.5992 26.4999 82.8992 29.7999 87.1992 29.7999C91.4992 29.7999 94.7992 26.4999 94.7992 22.1999C94.7992 17.8999 91.4992 14.5999 87.1992 14.5999C82.8992 14.5999 79.5992 17.8999 79.5992 22.1999Z" fill="#212938"/>
<path fill-rule="evenodd" clip-rule="evenodd" d="M109.9 31.0999C109.8 31.0999 109.8 31.0999 109.7 31.0999C109.5 31.1999 109.4 31.3 109.4 31.5V33.9H104V0.199951H109.4V12.9C109.4 13.1 109.5 13.3 109.7 13.3C109.9 13.4 110.1 13.3 110.2 13.2C112.1 11.1 114.9 9.79995 118 9.79995C121.2 9.79995 124.2 11.1 126.4 13.3C128.6 15.6 129.8 18.7 129.8 22.1C129.8 29 124.6 34.4 118 34.4C114.9 34.4 112 33.2 110.2 31.2C110.1 31.2 110 31.0999 109.9 31.0999ZM116.8 14.6C112.5 14.6 109.2 17.9 109.2 22.2C109.2 26.5 112.5 29.7999 116.8 29.7999C121.1 29.7999 124.4 26.5 124.4 22.2C124.4 17.9 121 14.6 116.8 14.6Z" fill="#212938"/>
<path d="M145.3 15.1999C145.8 15.1999 146.3 15.1999 146.6 15.2999V9.9999C146.4 9.9999 146.1 9.8999 145.7 9.8999C142.9 9.8999 140.3 11.2999 139 13.4999C138.9 13.6999 138.7 13.7999 138.5 13.6999C138.3 13.5999 138.2 13.4999 138.2 13.2999V10.3999H132.9V33.8999H138.3V23.5999C138.1 18.3999 140.9 15.1999 145.3 15.1999Z" fill="#212938"/>
<path d="M155.3 10.3999H149.9V33.8999H155.3V10.3999Z" fill="#212938"/>
<path d="M152.601 0.199951C150.801 0.199951 149.301 1.59995 149.301 3.39995C149.301 5.19995 150.801 6.59995 152.601 6.59995C154.401 6.59995 155.901 5.19995 155.901 3.39995C155.901 1.69995 154.401 0.199951 152.601 0.199951Z" fill="#212938"/>
<path d="M171.3 9.8999C163.9 9.8999 158.5 15.0999 158.5 22.1999C158.5 25.6999 159.8 28.7999 162.1 30.9999C164.4 33.1999 167.7 34.4999 171.3 34.4999C174.3 34.4999 176.7 33.8999 181.1 30.7999L178.1 27.6999C175.9 29.0999 173.9 29.7999 171.9 29.7999C167.4 29.7999 164 26.4999 164 22.1999C164 17.8999 167.4 14.5999 171.9 14.5999C174 14.5999 176 15.2999 178 16.6999L181.4 13.5999C177.3 10.1999 173.7 9.8999 171.3 9.8999Z" fill="#212938"/>
<path d="M190.401 23.6C190.501 23.5 190.601 23.5 190.701 23.5C190.801 23.5 190.901 23.6 191.001 23.7L199.601 34H206.201L195.101 21C194.901 20.8 195.001 20.6 195.101 20.4L205.301 10.5H198.801L190.001 19C189.901 19.1 189.701 19.2 189.501 19.1C189.301 19 189.201 18.9 189.201 18.7V0.199951H183.801V33.9H189.201V24.7999C189.201 24.6999 189.301 24.6 189.301 24.5L190.401 23.6Z" fill="#212938"/>
<path d="M215.101 34.4999C219.501 34.4999 224.001 31.8999 224.001 26.9999C224.001 23.7999 221.901 21.5999 217.601 20.1999L214.701 19.2999C212.701 18.6999 211.801 17.7999 211.801 16.4999C211.801 15.0999 213.101 14.0999 215.001 14.0999C216.801 14.0999 218.401 15.1999 219.401 17.1999L223.701 14.9999C222.101 11.7999 218.801 9.8999 215.001 9.8999C210.201 9.8999 206.701 12.8999 206.701 16.9999C206.701 20.2999 208.701 22.4999 212.801 23.6999L215.801 24.5999C217.901 25.1999 218.801 25.9999 218.801 27.3999C218.801 29.3999 216.901 30.0999 215.301 30.0999C213.101 30.0999 211.201 28.6999 210.201 26.4999L205.801 28.6999C207.201 32.2999 210.801 34.4999 215.101 34.4999Z" fill="#212938"/>
<path d="M69.3004 34.2999C71.0004 34.2999 72.5004 34.2 73.4004 34V29.5C72.7004 29.6 71.5004 29.7 70.7004 29.7C68.5004 29.7 66.9004 29.2999 66.9004 24.7999V15.2C66.9004 15 67.1004 14.8 67.4004 14.8H72.6004V10.6H67.4004C67.1004 10.6 66.9004 10.4 66.9004 10.2V3.19995H61.6004V9.99995C61.6004 10.2 61.4004 10.4 61.1004 10.4H57.4004V14.6H61.1004C61.4004 14.6 61.6004 14.8 61.6004 15V25.9C61.5004 34.3 67.2004 34.2999 69.3004 34.2999Z" fill="#212938"/>
</svg>
