<svg width="224" height="38" viewBox="0 0 224 38" fill="none" xmlns="http://www.w3.org/2000/svg">
<path fill-rule="evenodd" clip-rule="evenodd" d="M219.906 9.95088H219.105V10.9459H219.906C220.274 10.9459 220.517 10.7817 220.517 10.4484C220.517 10.1151 220.294 9.95088 219.906 9.95088ZM218.119 9.04044H219.92C220.915 9.04044 221.562 9.57775 221.562 10.4136C221.566 10.6465 221.507 10.8761 221.393 11.0789C221.278 11.2818 221.112 11.4505 220.91 11.5678L221.617 12.5927V12.7966H220.592L219.906 11.8016H219.105V12.7966H218.11L218.119 9.04044ZM223.159 10.9907C223.159 9.00064 221.821 7.45836 219.771 7.45836C217.721 7.45836 216.423 8.90611 216.423 10.9907C216.423 12.9807 217.761 14.528 219.771 14.528C221.781 14.528 223.159 13.0006 223.159 10.9907ZM224 10.9907C224 13.3588 222.418 15.329 219.771 15.329C217.124 15.329 215.587 13.3389 215.587 10.9907C215.587 8.64243 217.149 6.65737 219.771 6.65737C222.393 6.65737 223.98 8.62751 223.98 10.9907H224ZM124.573 0.214604H123.861C122.85 0.195702 121.842 0.340179 120.876 0.642463C119.93 0.939827 119.084 1.49039 118.428 2.2345C117.761 3.01448 117.288 3.9422 117.05 4.94095C116.772 6.10072 116.638 7.29056 116.652 8.48323V11.0603H113.811C113.349 11.0589 112.904 11.2389 112.573 11.5617C112.242 11.8845 112.051 12.3244 112.04 12.7867C112.029 13.2769 112.208 13.7525 112.538 14.115C112.876 14.4601 113.329 14.6675 113.811 14.6971H116.632V35.712C116.633 35.9485 116.681 36.1824 116.774 36.4002C116.866 36.618 117 36.8153 117.17 36.9806C117.523 37.3063 117.988 37.4843 118.468 37.4781C118.935 37.4716 119.381 37.2807 119.708 36.9471C120.035 36.6135 120.217 36.1642 120.214 35.6971V14.6971H123.269C123.748 14.6726 124.2 14.4704 124.538 14.13C124.883 13.7822 125.076 13.3116 125.075 12.8215V12.7519C125.062 12.2887 124.867 11.8491 124.533 11.5281C124.199 11.207 123.752 11.0301 123.289 11.0355H120.214V8.4683C120.208 7.59151 120.312 6.7174 120.523 5.86632C120.625 5.40962 120.827 4.98134 121.115 4.6126C121.356 4.36155 121.657 4.17655 121.99 4.07529C122.576 3.90807 123.183 3.83255 123.791 3.85141H123.886H124.025H124.189H124.592C124.833 3.85141 125.071 3.80405 125.293 3.71204C125.515 3.62003 125.717 3.48518 125.887 3.31517C126.057 3.14516 126.192 2.94333 126.284 2.7212C126.376 2.49907 126.423 2.261 126.423 2.02057C126.423 1.78014 126.376 1.54206 126.284 1.31994C126.192 1.09781 126.057 0.895978 125.887 0.725969C125.717 0.555959 125.515 0.421102 125.293 0.329093C125.071 0.237085 124.833 0.189729 124.592 0.189729L124.573 0.214604ZM187.557 13.8116C187.73 13.643 187.868 13.4419 187.963 13.2199C188.057 12.998 188.107 12.7594 188.11 12.518C188.108 12.2827 188.058 12.0502 187.962 11.8352C187.866 11.6203 187.727 11.4276 187.552 11.2693C187.39 11.0992 187.194 10.9639 186.978 10.8714C186.762 10.7789 186.529 10.7312 186.294 10.7312C186.058 10.7312 185.826 10.7789 185.609 10.8714C185.393 10.9639 185.198 11.0992 185.035 11.2693L170.99 24.9359V1.90614C170.987 1.66636 170.937 1.42956 170.842 1.20928C170.747 0.988995 170.61 0.789537 170.438 0.622296C170.266 0.455054 170.063 0.323305 169.84 0.234573C169.617 0.14584 169.379 0.101863 169.14 0.105152C168.904 0.106534 168.672 0.154257 168.455 0.245597C168.238 0.336937 168.041 0.470104 167.876 0.637489C167.54 0.974785 167.349 1.43002 167.344 1.90614V35.6175C167.349 36.0922 167.54 36.546 167.875 36.8817C168.211 37.2174 168.665 37.4083 169.14 37.4135C169.623 37.4201 170.089 37.2348 170.436 36.8981C170.783 36.5614 170.982 36.1009 170.99 35.6175V30.0553L175.572 25.4832L184.906 36.7418C185.064 36.9791 185.289 37.1643 185.552 37.2742C185.798 37.365 186.057 37.4121 186.319 37.4135C186.742 37.4212 187.155 37.2863 187.493 37.0304H187.518C187.701 36.8549 187.848 36.6443 187.949 36.4109C188.05 36.1776 188.103 35.9264 188.105 35.6722C188.101 35.2346 187.945 34.8121 187.662 34.4782L178.159 22.9309L187.562 13.8315L187.557 13.8116ZM162.184 11.4932C162.355 11.6612 162.491 11.8618 162.583 12.0831C162.676 12.3044 162.723 12.5419 162.722 12.7817V35.6175C162.718 36.0926 162.527 36.5471 162.191 36.8831C161.855 37.2191 161.401 37.4096 160.926 37.4135C160.45 37.4082 159.994 37.2172 159.657 36.8811C159.489 36.7161 159.356 36.5195 159.264 36.3026C159.173 36.0857 159.125 35.8528 159.125 35.6175V33.3886C158.004 34.6454 156.632 35.653 155.097 36.3463C153.563 37.0396 151.9 37.4031 150.216 37.4134C148.532 37.4237 146.865 37.0806 145.322 36.4062C143.779 35.7317 142.395 34.741 141.259 33.4981C138.912 30.9657 137.607 27.6401 137.607 24.1871C137.607 20.7342 138.912 17.4086 141.259 14.8762C142.397 13.6398 143.781 12.6539 145.321 11.9813C146.861 11.3088 148.524 10.9644 150.205 10.97C151.886 10.9756 153.547 11.3311 155.082 12.014C156.618 12.6968 157.995 13.6919 159.125 14.9359V12.7568C159.125 12.5168 159.173 12.2791 159.266 12.0578C159.359 11.8365 159.495 11.6361 159.667 11.4683C160.008 11.1486 160.458 10.9707 160.926 10.9707C161.393 10.9707 161.843 11.1486 162.184 11.4683V11.4932ZM159.125 24.2145C159.143 21.6696 158.196 19.2123 156.473 17.3389C155.68 16.453 154.708 15.7442 153.623 15.259C152.537 14.7738 151.361 14.5231 150.172 14.5231C148.983 14.5231 147.807 14.7738 146.721 15.259C145.635 15.7442 144.664 16.453 143.871 17.3389C142.144 19.2106 141.191 21.6677 141.204 24.2145C141.198 26.7441 142.155 29.1813 143.881 31.0304C144.682 31.9056 145.656 32.6046 146.742 33.0827C147.827 33.5609 149.001 33.8079 150.187 33.8079C151.373 33.8079 152.546 33.5609 153.632 33.0827C154.718 32.6046 155.692 31.9056 156.493 31.0304C158.213 29.1693 159.161 26.7238 159.145 24.1896L159.125 24.2145ZM14.4287 23.5479C12.8833 22.8776 11.3002 22.2978 9.68739 21.8115C8.27372 21.4086 6.88911 20.9099 5.54313 20.319C5.06635 20.0863 4.64027 19.7617 4.2894 19.3638C4.00584 19.0333 3.85357 18.6101 3.86154 18.1747C3.84938 17.5809 4.02334 16.9981 4.35905 16.5081C4.93349 15.7642 5.71108 15.2026 6.59785 14.8912C7.40841 14.564 8.27125 14.3853 9.1451 14.3638C10.6983 14.3374 12.2166 14.8254 13.4635 15.7519C13.961 16.1051 14.369 16.4683 14.757 16.7469C14.9431 16.9028 15.1468 17.0364 15.364 17.1449C15.5828 17.2633 15.8267 17.3281 16.0754 17.3339C16.2463 17.3345 16.4154 17.3006 16.5729 17.2344C16.7332 17.1685 16.8812 17.076 17.0108 16.9608C17.1445 16.8359 17.2541 16.6875 17.3341 16.523C17.4018 16.3658 17.4373 16.1966 17.4386 16.0255C17.4321 15.7093 17.3466 15.3997 17.1899 15.125C16.8702 14.5771 16.4578 14.0889 15.9709 13.6822C15.0728 12.9134 14.0671 12.2798 12.9859 11.8016C11.8958 11.2817 10.7103 10.9921 9.5033 10.9509C6.83167 10.9509 4.60283 11.5578 2.98094 12.6723C2.13244 13.2091 1.41231 13.9258 0.871505 14.7718C0.289102 15.8052 -0.0111636 16.9736 0.000859512 18.1598V18.3489C-0.0210752 19.5772 0.377395 20.7761 1.13021 21.7469C2.18991 23.0802 3.75706 23.8812 5.29437 24.4483C6.83168 25.0155 8.35904 25.3538 9.32918 25.6772C10.6729 26.0693 11.9706 26.6047 13.1998 27.2742C13.674 27.5467 14.0953 27.9023 14.4436 28.324C14.7288 28.7162 14.8852 29.1873 14.8913 29.6722V29.712C14.8996 30.3875 14.6884 31.0475 14.2894 31.5926C13.6396 32.3801 12.7756 32.9624 11.8018 33.2692C10.943 33.5747 10.0414 33.7427 9.13017 33.7667C7.39045 33.8047 5.66762 33.4188 4.1103 32.6423C3.54314 32.3588 3.08543 32.0802 2.66752 31.8413C2.46354 31.7319 2.26951 31.6274 2.06553 31.5428C1.86075 31.4564 1.64104 31.4107 1.41876 31.4085C1.26388 31.408 1.1103 31.4367 0.966033 31.4931C0.818907 31.5519 0.68521 31.6399 0.572997 31.7518C0.413975 31.8934 0.280962 32.0618 0.179967 32.2493C0.087086 32.4399 0.0394146 32.6493 0.0406629 32.8612C0.0496463 33.2073 0.160394 33.543 0.359069 33.8264C0.707871 34.2891 1.13567 34.6866 1.62274 35.0005C2.25842 35.415 2.92354 35.7825 3.61278 36.1C5.35143 36.8758 7.22683 37.2986 9.13017 37.3438C11.6924 37.3438 13.9113 36.7518 15.7769 35.3538C16.6843 34.6978 17.4249 33.8378 17.939 32.8432C18.4532 31.8485 18.7266 30.747 18.7371 29.6274C18.7603 28.4989 18.4784 27.3851 17.9212 26.4036C17.067 25.1254 15.851 24.1311 14.4287 23.5479ZM132.025 0.105152C131.55 0.109027 131.096 0.300357 130.762 0.637489C130.593 0.803091 130.459 1.00054 130.368 1.21834C130.277 1.43614 130.229 1.66994 130.229 1.90614V35.6175C130.229 35.853 130.276 36.0862 130.367 36.3032C130.459 36.5203 130.593 36.7168 130.762 36.8811C131.015 37.1341 131.338 37.3067 131.689 37.3776C132.04 37.4484 132.405 37.4144 132.737 37.2797C133.069 37.1449 133.354 36.9155 133.556 36.6199C133.759 36.3244 133.87 35.9757 133.876 35.6175V1.90614C133.873 1.66636 133.822 1.42956 133.728 1.20928C133.633 0.988995 133.496 0.789537 133.324 0.622296C133.152 0.455054 132.949 0.323305 132.726 0.234573C132.503 0.14584 132.265 0.101863 132.025 0.105152ZM214.806 23.3488V23.5279C214.806 23.7626 214.756 23.9945 214.659 24.2081C214.562 24.4218 214.42 24.6122 214.244 24.7668C213.899 25.0652 213.456 25.2279 213 25.2245H192.821C193.319 30.1498 197.264 33.7816 201.96 33.8214H203.149C204.73 33.7962 206.267 33.2989 207.562 32.3936C208.906 31.4909 210.032 30.3015 210.861 28.911C211.017 28.6378 211.248 28.415 211.527 28.2692C211.785 28.1267 212.074 28.053 212.368 28.0553C212.69 28.0552 213.006 28.141 213.284 28.304C213.534 28.4813 213.739 28.7152 213.881 28.9867C214.024 29.2582 214.101 29.5596 214.105 29.8662C214.105 30.1935 214.017 30.5149 213.851 30.7966C212.705 32.6365 211.178 34.2092 209.373 35.4085C207.531 36.6468 205.369 37.3227 203.149 37.3538H201.94C200.247 37.3393 198.573 36.9853 197.019 36.3128C195.464 35.6403 194.061 34.6629 192.891 33.4384C190.503 30.97 189.164 27.6733 189.154 24.2394C189.141 20.7436 190.486 17.3792 192.906 14.8563C194.085 13.6272 195.501 12.6494 197.068 11.9817C198.635 11.3139 200.321 10.9701 202.025 10.9708C205.295 10.9661 208.435 12.2494 210.766 14.5429C213.126 16.8817 214.553 19.9996 214.781 23.314L214.806 23.3488ZM210.866 21.6474C210.401 19.6468 209.279 17.8598 207.679 16.572C206.079 15.2841 204.094 14.5697 202.04 14.5429C199.97 14.5586 197.965 15.2652 196.343 16.5505C194.72 17.8358 193.574 19.6262 193.085 21.6374L210.866 21.6474ZM33.6027 11.0156C30.8977 11.0204 28.2923 12.0373 26.2993 13.8663V12.8165C26.2993 12.349 26.1214 11.899 25.8018 11.5578C25.6411 11.3878 25.4475 11.252 25.2329 11.1588C25.0183 11.0656 24.787 11.0169 24.553 11.0156C24.3156 11.0122 24.0799 11.0565 23.8599 11.1458C23.6398 11.2351 23.44 11.3677 23.2721 11.5356C23.1041 11.7035 22.9716 11.9034 22.8823 12.1234C22.793 12.3434 22.7487 12.5791 22.752 12.8165V36.1548L22.8266 36.2294C22.8542 36.3161 22.8944 36.3983 22.9461 36.4732C23.1947 36.9127 23.6054 37.2377 24.0903 37.3786H24.165H24.553C24.818 37.3767 25.0794 37.3173 25.3192 37.2045C25.5327 37.1068 25.7215 36.9623 25.8714 36.7816C25.8714 36.7816 25.8963 36.7369 25.9212 36.717C26.0118 36.6047 26.0871 36.4809 26.145 36.3488C26.1906 36.2272 26.2272 36.1025 26.2545 35.9757V35.911V21.8563C26.2953 19.9248 27.0835 18.0843 28.4535 16.722C29.4643 15.6929 30.7595 14.9892 32.173 14.7012C33.5865 14.4133 35.0538 14.5542 36.3866 15.106C37.7195 15.6577 38.857 16.5951 39.6535 17.7978C40.4499 19.0006 40.8688 20.4138 40.8564 21.8563V35.6175C40.8586 35.9709 40.9645 36.3159 41.1609 36.6098C41.3573 36.9036 41.6357 37.1334 41.9614 37.2706C42.2872 37.4077 42.646 37.4463 42.9935 37.3815C43.3409 37.3167 43.6617 37.1514 43.9161 36.906C44.0876 36.7383 44.2236 36.5378 44.3159 36.3164C44.4082 36.095 44.455 35.8573 44.4534 35.6175V21.8563C44.4429 18.9827 43.296 16.2299 41.2631 14.1988C39.2302 12.1678 36.4764 11.0234 33.6027 11.0156ZM69.3638 14.8912C71.7134 17.4164 73.0196 20.7378 73.0196 24.1871C73.0196 27.6365 71.7134 30.9579 69.3638 33.4831C68.2364 34.7215 66.8628 35.7108 65.331 36.3878C63.7992 37.0647 62.143 37.4144 60.4683 37.4144C58.7936 37.4144 57.1373 37.0647 55.6056 36.3878C54.0738 35.7108 52.7002 34.7215 51.5728 33.4831C49.2133 30.9628 47.9005 27.6396 47.9005 24.1871C47.9005 20.7347 49.2133 17.4115 51.5728 14.8912C52.7023 13.6562 54.0765 12.6699 55.608 11.9952C57.1395 11.3204 58.7947 10.9719 60.4683 10.9719C62.1419 10.9719 63.7971 11.3204 65.3286 11.9952C66.8601 12.6699 68.2343 13.6562 69.3638 14.8912ZM69.4135 24.1896C69.4299 21.6519 68.4842 19.2023 66.7668 17.3339C65.9766 16.4455 65.0072 15.7345 63.9225 15.2476C62.8378 14.7607 61.6623 14.509 60.4733 14.509C59.2843 14.509 58.1088 14.7607 57.024 15.2476C55.9393 15.7345 54.97 16.4455 54.1798 17.3339C52.4551 19.1992 51.5021 21.6492 51.5131 24.1896C51.5025 26.7196 52.4561 29.1586 54.1798 31.0105C54.973 31.894 55.9433 32.6006 57.0276 33.0843C58.1119 33.5681 59.2859 33.818 60.4733 33.818C61.6606 33.818 62.8346 33.5681 63.9189 33.0843C65.0033 32.6006 65.9736 31.894 66.7668 31.0105C68.4832 29.1555 69.4295 26.7169 69.4135 24.1896ZM108.219 11.1698C108.015 11.0815 107.795 11.0358 107.573 11.0355C107.215 11.0368 106.865 11.1419 106.566 11.3379C106.266 11.5339 106.03 11.8125 105.886 12.1399L99.0204 30.9359L93.7269 18.3339C93.5766 17.9968 93.3265 17.7137 93.0105 17.523C92.7012 17.3312 92.3445 17.2296 91.9806 17.2295C91.6221 17.2332 91.2721 17.3391 90.9716 17.5347C90.6711 17.7304 90.4326 18.0076 90.2841 18.3339L84.9657 30.9458L78.0603 12.1549C77.944 11.809 77.712 11.5139 77.4036 11.319C77.1066 11.1283 76.7614 11.0265 76.4085 11.0255C76.1764 11.0258 75.9465 11.0714 75.7319 11.1598C75.3143 11.3545 74.9872 11.7017 74.8179 12.1302C74.6485 12.5587 74.6498 13.0358 74.8215 13.4633L83.2841 36.2841C83.3558 36.4652 83.4566 36.6332 83.5826 36.7816C83.6962 36.9023 83.829 37.0031 83.9757 37.0801C84.0193 37.1186 84.0659 37.1535 84.115 37.1846C84.1936 37.2301 84.2794 37.2621 84.3687 37.2791C84.5678 37.3537 84.778 37.3941 84.9906 37.3985C85.33 37.3911 85.66 37.2857 85.9408 37.0951C86.2305 36.9043 86.4531 36.6277 86.5776 36.304H86.6025L91.9707 23.4682L97.3488 36.2543C97.4664 36.5719 97.6738 36.8485 97.9458 37.0503C98.203 37.2463 98.5062 37.3731 98.8264 37.4184H99.0502C99.256 37.42 99.4602 37.3829 99.6522 37.309C99.8153 37.2449 99.9692 37.1596 100.11 37.0553C100.396 36.8287 100.619 36.5322 100.757 36.1946L109.214 13.4932C109.389 13.0601 109.387 12.5755 109.207 12.1444C109.027 11.7132 108.685 11.3702 108.254 11.1897L108.219 11.1698Z" fill="#212938"/>
</svg>
