<svg width="224" height="33" viewBox="0 0 224 33" fill="none" xmlns="http://www.w3.org/2000/svg">
<path fill-rule="evenodd" clip-rule="evenodd" d="M53.9165 10.0703C51.6605 10.0703 49.4699 10.855 47.737 12.2936V10.2992H42.1133V32.2381H47.9658V18.2116C49.241 16.5441 51.2027 15.5632 53.2953 15.4978C54.08 15.4651 54.8974 15.5632 55.6494 15.8575V10.2338C55.0609 10.1357 54.4723 10.0703 53.9165 10.0703Z" fill="#212938"/>
<path fill-rule="evenodd" clip-rule="evenodd" d="M2.84454 25.5353C4.51204 26.9413 6.63727 27.726 8.8279 27.6933C10.3973 27.6933 11.6071 26.9086 11.6071 25.8296C11.6071 22.56 1.01357 23.7371 1.01357 16.6748C1.01357 12.457 5.06787 9.84131 9.38373 9.84131C11.9994 9.84131 14.5824 10.626 16.773 12.0646L14.0265 16.3151C12.8168 15.3996 11.3455 14.8765 9.84147 14.8111C8.20668 14.8111 6.86614 15.4323 6.86614 16.5767C6.86614 19.4212 17.4596 18.3096 17.4596 25.895C17.4596 30.1128 13.3399 32.6631 8.76251 32.6631C5.6237 32.6631 2.55028 31.6168 0 29.7531L2.84454 25.5353Z" fill="#212938"/>
<path fill-rule="evenodd" clip-rule="evenodd" d="M39.5954 21.056C39.5954 14.9419 35.3123 9.84131 29.2635 9.84131C22.7897 9.84131 18.6373 15.1707 18.6373 21.2849C18.3758 27.3336 23.084 32.4342 29.1 32.6958C29.427 32.6958 29.754 32.6958 30.0809 32.6958C33.4813 32.7285 36.7509 31.3225 39.0396 28.7722L35.7046 25.4373C34.2987 27.0067 32.3042 27.9222 30.2117 27.9548C27.171 28.0529 24.588 25.7642 24.2937 22.7562H39.432C39.5627 22.2004 39.5954 21.6118 39.5954 21.056ZM24.588 18.4403C25.013 16.1843 26.9748 14.5822 29.2635 14.5822C31.4541 14.5822 33.3178 16.2497 33.5794 18.4403H24.588Z" fill="#212938"/>
<path fill-rule="evenodd" clip-rule="evenodd" d="M69.5765 23.6715L75.5599 10.2988H81.6413L71.6037 32.2378H67.5494L57.5117 10.2988H63.5932L69.5765 23.6715Z" fill="#212938"/>
<path fill-rule="evenodd" clip-rule="evenodd" d="M86.5774 0C88.6699 0.0326959 90.3047 1.76558 90.272 3.82542C90.2393 5.91796 88.5064 7.55276 86.4466 7.52006C84.3867 7.48736 82.752 5.81987 82.752 3.76003C82.752 1.66749 84.4194 0 86.512 0C86.512 0 86.5447 0 86.5774 0Z" fill="#212938"/>
<path d="M89.4893 10.2988H83.6367V32.2378H89.4893V10.2988Z" fill="#212938"/>
<path fill-rule="evenodd" clip-rule="evenodd" d="M113.717 27.7587C111.461 30.9956 107.734 32.8266 103.811 32.6958C97.5003 32.8592 92.2689 27.8568 92.1055 21.5792C91.942 15.3015 96.9445 10.0375 103.222 9.87402C103.418 9.87402 103.647 9.87402 103.843 9.87402C107.407 9.84132 110.808 11.4761 113.031 14.2553L108.878 17.8845C107.701 16.2497 105.838 15.3015 103.843 15.2688C100.606 15.2688 97.958 17.8845 97.958 21.1214C97.958 21.1868 97.958 21.2195 97.958 21.2849C97.8599 24.4891 100.345 27.1375 103.549 27.2682C103.713 27.2682 103.843 27.2682 104.007 27.2682C106.132 27.2355 108.061 26.1566 109.238 24.391L113.717 27.7587Z" fill="#212938"/>
<path fill-rule="evenodd" clip-rule="evenodd" d="M134.969 28.7395C132.68 31.2898 129.41 32.7284 126.01 32.663C119.961 32.9573 114.861 28.2818 114.566 22.233C114.566 21.9061 114.566 21.5791 114.566 21.2522C114.566 15.138 118.719 9.80859 125.193 9.80859C131.241 9.80859 135.524 14.9092 135.524 21.0233C135.524 21.5791 135.492 22.135 135.394 22.6908H120.255C120.55 25.6988 123.133 27.9875 126.173 27.8894C128.266 27.824 130.26 26.9086 131.666 25.3719L134.969 28.7395ZM129.541 18.4403C129.28 16.2497 127.416 14.6149 125.225 14.5822C122.937 14.5822 120.975 16.1843 120.55 18.4403H129.541Z" fill="#212938"/>
<path fill-rule="evenodd" clip-rule="evenodd" d="M137.846 32.238V10.2991H143.469V12.0646C145.202 10.626 147.393 9.84131 149.649 9.84131C152.559 9.84131 155.338 11.1164 157.234 13.3725C158.935 15.5631 159.719 18.3096 159.49 21.056V32.2053H153.638V20.5983C153.801 19.0943 153.344 17.6229 152.33 16.4786C151.447 15.6612 150.27 15.2034 149.028 15.2688C146.935 15.3342 144.973 16.3151 143.698 17.9826V32.238H137.846Z" fill="#212938"/>
<path fill-rule="evenodd" clip-rule="evenodd" d="M174.564 9.84131C167.469 9.84131 161.715 15.5631 161.715 22.6254C161.715 26.1566 163.153 29.5569 165.736 31.9764C166.652 32.8265 168.025 32.9246 169.039 32.1399C172.276 29.7204 176.722 29.7204 179.959 32.1399C180.973 32.8919 182.379 32.8265 183.261 31.9437C188.395 27.0721 188.624 18.9635 183.752 13.7975C181.332 11.3126 178.03 9.874 174.564 9.84131ZM174.499 29.0665C171.066 29.1646 168.221 26.4508 168.123 23.0178C168.123 22.9197 168.123 22.7889 168.123 22.6908C168.123 19.1596 170.968 16.3151 174.499 16.3151C178.03 16.3151 180.875 19.1596 180.875 22.6908C180.973 26.1239 178.259 28.9684 174.826 29.0665C174.695 29.0665 174.597 29.0665 174.499 29.0665Z" fill="#212938"/>
<path fill-rule="evenodd" clip-rule="evenodd" d="M198.856 32.2378H194.474L185.777 10.2988H191.63L196.404 22.8214L201.079 10.2988H205.951L210.594 22.8214L215.4 10.2988H221.252L212.555 32.2378H208.207L203.531 19.7479L198.856 32.2378Z" fill="#212938"/>
<path d="M221.318 29.753H220.827V30.6684H220.402V28.1182H221.416C221.874 28.1182 222.233 28.4778 222.233 28.9356C222.233 29.2625 222.037 29.5568 221.743 29.6876L222.331 30.6684H221.874L221.318 29.753ZM220.827 29.3933H221.449C221.677 29.3933 221.874 29.1971 221.874 28.9683C221.874 28.7394 221.677 28.5432 221.449 28.5432H220.86L220.827 29.3933Z" fill="#212938"/>
<path d="M221.252 27.1048C222.56 27.1048 223.606 28.151 223.606 29.4589C223.606 30.7667 222.56 31.813 221.252 31.813C219.944 31.813 218.898 30.7667 218.898 29.4589C218.898 28.151 219.944 27.1048 221.252 27.1048ZM221.252 26.7124C219.748 26.7124 218.506 27.9222 218.506 29.4589C218.506 30.9956 219.716 32.2053 221.252 32.2053C222.756 32.2053 223.999 30.9956 223.999 29.4589C223.999 27.9548 222.756 26.7124 221.252 26.7124Z" fill="#212938"/>
</svg>
