<svg width="224" height="60" viewBox="0 0 224 60" fill="none" xmlns="http://www.w3.org/2000/svg">
<path d="M33.5531 44.7603L38.2878 58.3367C38.4448 58.6768 38.6802 58.8337 39.0988 58.8337H48.202C48.6991 58.8337 48.7775 58.5983 48.699 58.1013L29.8909 5.86225C29.8124 5.44371 29.7339 5.36523 29.3154 5.36523H18.0148C17.7009 5.36523 17.5178 5.60066 17.5178 5.94072C17.3608 8.6874 17.1254 9.52448 16.7853 10.3354L0.0175708 58.0228C-0.0609138 58.5983 0.122235 58.8337 0.593076 58.8337H8.72845C9.22547 58.8337 9.46089 58.6768 9.64401 58.1797L14.1172 44.7603H33.5531ZM16.7069 35.8925C19.1658 28.4634 22.4095 18.9416 23.7174 13.5006H23.7959C25.4178 19.2032 29.2369 30.5038 30.9634 35.8925H16.7069Z" fill="#212938"/>
<path d="M72.879 59.6447C77.7707 59.6447 82.9763 58.7553 88.2604 56.4794C88.6789 56.3225 88.7574 56.1394 88.7574 55.747C88.6004 54.2821 88.4173 52.1633 88.4173 50.5414V1.36295C88.4173 1.04905 88.4173 0.89209 88.025 0.89209H79.1572C78.8171 0.89209 78.6601 1.04905 78.6601 1.46759V18.1307C77.2737 17.9738 76.3058 17.8953 75.1548 17.8953C60.846 17.8953 52.0566 27.3386 52.0566 39.1362C52.0566 52.8172 61.0814 59.6447 72.879 59.6447ZM78.6601 50.5414C77.1952 51.0123 75.5734 51.1954 73.9254 51.1954C67.438 51.1954 62.1278 47.5332 62.1278 38.6392C62.1278 30.7654 67.5949 26.1091 74.8409 26.1091C76.3058 26.1091 77.5876 26.2661 78.6601 26.6846V50.5414Z" fill="#212938"/>
<path d="M117.046 17.895C104.829 17.895 97.2695 27.2599 97.2695 38.822C97.2695 49.1547 103.286 59.6444 116.862 59.6444C128.346 59.6444 136.403 51.1951 136.403 38.5604C136.403 27.4168 129.576 17.895 117.046 17.895ZM116.549 26.1089C123.454 26.1089 126.384 32.0469 126.384 38.822C126.384 47.1928 122.068 51.3521 117.046 51.3521C110.846 51.3521 107.184 46.1465 107.184 38.6389C107.184 30.9221 111.081 26.1089 116.549 26.1089Z" fill="#212938"/>
<path d="M145.572 0.89209C145.232 0.89209 144.996 1.04905 144.996 1.46759V57.1334C144.996 57.3689 145.232 57.7874 145.572 57.8659C149.469 59.0692 153.55 59.6447 157.762 59.6447C169.821 59.6447 181.54 52.1633 181.54 37.0958C181.54 26.1876 174.058 17.8953 162.339 17.8953C159.645 17.8953 157.134 18.3138 154.936 19.0463L154.832 1.54606C154.832 0.970568 154.675 0.89209 154.099 0.89209H145.572ZM171.521 38.0898C171.521 47.1146 165.348 51.3523 158.677 51.3523C157.291 51.3523 156.061 51.2738 154.936 50.9338V27.1816C156.218 26.6846 157.762 26.2661 160.613 26.2661C167.048 26.2661 171.521 30.3469 171.521 38.0898Z" fill="#212938"/>
<path d="M214.634 41.0194C218.61 41.0194 221.88 40.9409 223.005 40.6793C223.423 40.6008 223.58 40.4439 223.659 40.1038C223.894 39.2144 223.999 37.3571 223.999 35.0813C223.999 27.3383 219.343 17.895 207.31 17.895C195.015 17.895 188.188 27.9138 188.188 39.2144C188.188 49.2332 193.472 59.6444 208.277 59.6444C213.823 59.6444 217.407 58.755 220.494 57.2901C220.807 57.1331 220.964 56.8716 220.964 56.4007V49.6256C220.964 49.2332 220.729 49.1547 220.494 49.3117C217.407 50.6196 214.059 51.2736 210.396 51.2736C202.104 51.2736 198.337 46.6958 198.102 41.0194H214.634ZM198.102 34.0088C198.756 30.0327 201.267 25.7165 206.891 25.7165C213.091 25.7165 214.712 30.9221 214.712 33.2764C214.712 33.3548 214.712 33.6949 214.712 33.9303C214.372 34.0088 213.326 34.0088 210.239 34.0088H198.102Z" fill="#212938"/>
</svg>
