<svg width="2057" height="2057" viewBox="0 0 2057 2057" fill="none" xmlns="http://www.w3.org/2000/svg">
<path d="M1158.83 438H896.353C784.008 438 692.934 529.074 692.934 641.419C692.934 753.764 784.008 844.838 896.353 844.838H1158.83C1271.18 844.838 1362.25 753.764 1362.25 641.419C1362.25 529.074 1271.18 438 1158.83 438Z" fill="#63C8D8"/>
<path fill-rule="evenodd" clip-rule="evenodd" d="M1158.83 825.153C1260.3 825.153 1342.56 742.893 1342.56 641.419C1342.56 539.946 1260.3 457.686 1158.83 457.686C1057.36 457.686 975.095 539.946 975.095 641.419C975.095 742.893 1057.36 825.153 1158.83 825.153Z" fill="black" stroke="#63C8D8" stroke-opacity="0.101987" stroke-width="6.56191"/>
<path d="M1158.83 1195.9H896.353C789.444 1195.9 702.777 1282.57 702.777 1389.48V1389.48C702.777 1496.39 789.444 1583.05 896.353 1583.05H1158.83C1265.74 1583.05 1352.41 1496.39 1352.41 1389.48V1389.48C1352.41 1282.57 1265.74 1195.9 1158.83 1195.9Z" fill="#63C8D8"/>
<path fill-rule="evenodd" clip-rule="evenodd" d="M896.352 1573.21C997.825 1573.21 1080.09 1490.95 1080.09 1389.48C1080.09 1288 997.825 1205.74 896.352 1205.74C794.879 1205.74 712.618 1288 712.618 1389.48C712.618 1490.95 794.879 1573.21 896.352 1573.21Z" fill="black"/>
<path d="M896.352 1576.49C999.637 1576.49 1083.37 1492.76 1083.37 1389.48C1083.37 1286.19 999.637 1202.46 896.352 1202.46C793.067 1202.46 709.337 1286.19 709.337 1389.48C709.337 1492.76 793.067 1576.49 896.352 1576.49Z" stroke="#FAFAFA" stroke-opacity="0.04" stroke-width="6.56191"/>
<path d="M1158.83 1195.9H896.353C789.444 1195.9 702.777 1282.57 702.777 1389.48V1389.48C702.777 1496.39 789.444 1583.05 896.353 1583.05H1158.83C1265.74 1583.05 1352.41 1496.39 1352.41 1389.48V1389.48C1352.41 1282.57 1265.74 1195.9 1158.83 1195.9Z" stroke="#63C8D8" stroke-width="19.6857"/>
<path d="M1383.69 634.042C1379.84 637.891 1379.84 644.131 1383.69 647.979L1446.41 710.695C1450.26 714.544 1456.5 714.544 1460.34 710.695C1464.19 706.847 1464.19 700.607 1460.34 696.758L1404.6 641.011L1460.34 585.263C1464.19 581.414 1464.19 575.175 1460.34 571.326C1456.5 567.477 1450.26 567.477 1446.41 571.326L1383.69 634.042ZM1390.66 1411.66C1608.27 1411.66 1784.86 1237.04 1784.86 1021.41H1765.15C1765.15 1225.96 1597.58 1391.95 1390.66 1391.95V1411.66ZM1784.86 1021.41C1784.86 805.783 1608.27 631.156 1390.66 631.156V650.866C1597.58 650.866 1765.15 816.859 1765.15 1021.41H1784.86Z" fill="#ff91e7"/>
<path d="M672.309 1396.95C676.157 1393.1 676.157 1386.86 672.309 1383.01L609.593 1320.3C605.744 1316.45 599.504 1316.45 595.656 1320.3C591.807 1324.15 591.807 1330.39 595.656 1334.23L651.404 1389.98L595.656 1445.73C591.807 1449.58 591.807 1455.82 595.656 1459.67C599.504 1463.52 605.744 1463.52 609.593 1459.67L672.309 1396.95ZM665.34 619.33C447.728 619.33 271.145 793.957 271.145 1009.58H290.855C290.855 805.033 458.422 639.04 665.34 639.04V619.33ZM271.145 1009.58C271.145 1225.21 447.728 1399.84 665.34 1399.84V1380.13C458.422 1380.13 290.855 1214.13 290.855 1009.58H271.145Z" fill="#ff91e7"/>
<path d="M1374.89 1443.2C1397.75 1443.2 1416.28 1424.67 1416.28 1401.81C1416.28 1378.95 1397.75 1360.42 1374.89 1360.42C1352.03 1360.42 1333.5 1378.95 1333.5 1401.81C1333.5 1424.67 1352.03 1443.2 1374.89 1443.2Z" fill="black" stroke="#ff91e7" stroke-width="19.7098"/>
<path d="M681.109 587.794C658.249 587.794 639.718 606.325 639.718 629.185C639.718 652.044 658.249 670.575 681.109 670.575C703.968 670.575 722.499 652.044 722.499 629.185C722.499 606.325 703.968 587.794 681.109 587.794Z" fill="black" stroke="#ff91e7" stroke-width="19.7098"/>
<g filter="url(#filter0_d_285_6342)">
<path d="M570.947 1618.34L535.111 1433.07L692.789 1525.71L613.95 1547.08L570.947 1618.34Z" fill="black"/>
<path d="M570.947 1618.34L535.111 1433.07L692.789 1525.71L613.95 1547.08L570.947 1618.34Z" stroke="#FAFAFA" stroke-width="13.0929" stroke-linecap="square"/>
</g>
<defs>
<filter id="filter0_d_285_6342" x="512.838" y="1411.36" width="209.787" height="242.404" filterUnits="userSpaceOnUse" color-interpolation-filters="sRGB">
<feFlood flood-opacity="0" result="BackgroundImageFix"/>
<feColorMatrix in="SourceAlpha" type="matrix" values="0 0 0 0 0 0 0 0 0 0 0 0 0 0 0 0 0 0 127 0" result="hardAlpha"/>
<feOffset dy="4.36431"/>
<feGaussianBlur stdDeviation="6.54646"/>
<feColorMatrix type="matrix" values="0 0 0 0 0 0 0 0 0 0 0 0 0 0 0 0 0 0 0.35 0"/>
<feBlend mode="normal" in2="BackgroundImageFix" result="effect1_dropShadow_285_6342"/>
<feBlend mode="normal" in="SourceGraphic" in2="effect1_dropShadow_285_6342" result="shape"/>
</filter>
</defs>
</svg>
