<svg width="2057" height="2057" viewBox="0 0 2057 2057" fill="none" xmlns="http://www.w3.org/2000/svg">
<circle r="696" transform="matrix(-1 0 0 1 1028 1029)" fill="none"/>
<mask id="mask0_287_2895" style="mask-type:alpha" maskUnits="userSpaceOnUse" x="332" y="333" width="1392" height="1392">
<circle r="696" transform="matrix(-1 0 0 1 1028 1029)" fill="#63c8d8"/>
</mask>
<g mask="url(#mask0_287_2895)">
<path d="M815.094 1310.21C914.156 1607.12 1178.8 1698.81 1318.73 1330.03C1337.97 1279.32 1287.66 1260.44 1252.47 1238.12C1228.37 1222.84 1215.71 1209.58 1217.18 1195.92C1224.1 1131.44 1254.1 952.062 1254.1 952.062L1257.15 946.283C1257.15 946.283 1256.42 944.663 1259.29 947.528C1262.28 950.515 1269.18 981.705 1296.38 981.705C1320.76 981.705 1345.52 970.805 1357.36 895.376C1361.65 868.079 1359.22 796.516 1329.01 783.593C1316.53 778.253 1305.01 776.345 1293.78 782.753C1282.54 789.161 1306.74 760.847 1181.79 656.722C1100.57 589.039 972.283 579.119 920.516 590.547C868.75 601.974 816.984 627.314 794.088 680.974C766.306 746.083 819.971 795.249 808.184 943.533C810.332 997.107 807.257 1114.69 954.686 1154.1C982.687 1161.58 974 1202.49 932 1212.49C865 1233.49 815.041 1284.76 815.041 1310.35" fill="#63c8d8"/>
<path fill-rule="evenodd" clip-rule="evenodd" d="M815.057 848.69L814.898 847.296C810.757 810.889 806.744 775.608 787.757 743.919C781.298 748.34 782.052 753.942 784.071 759.133C803.987 810.336 802.158 863.53 800.331 916.696C800.17 921.353 800.01 926.009 799.865 930.664C797.784 997.091 814.352 1057.48 858.646 1108.23C874.019 1125.84 894.368 1137.95 915.146 1148.54C936.485 1159.4 940.97 1168.62 934.313 1192.09C934.07 1192.95 933.771 1193.81 933.471 1194.67C932.108 1198.59 930.727 1202.56 934.513 1206.44C939.035 1211.07 943.974 1209.75 949.317 1208.32C949.52 1208.27 949.723 1208.21 949.926 1208.16C1000.27 1194.73 1045.3 1170.64 1086.94 1139.88C1092.86 1135.51 1097.73 1129.55 1102.44 1123.78L1102.44 1123.78L1102.74 1123.41C1105.22 1120.37 1105.66 1115.63 1102.19 1112.95C1098.95 1110.45 1096.39 1112.5 1093.55 1114.79C1093.19 1115.08 1092.82 1115.38 1092.44 1115.67C1069.97 1133.1 1045.23 1144.55 1016.23 1147.43C1002.82 1148.77 989.552 1148.27 976.292 1147.78H976.292H976.291C968.83 1147.51 961.374 1147.23 953.899 1147.28C943.66 1147.35 935.248 1142.6 927.239 1138.07C926.288 1137.54 925.342 1137 924.399 1136.48C896.554 1121.04 870.117 1103.72 852.164 1075.82C836.078 1050.82 826.335 1023.59 820.598 994.933C813.355 958.76 814.011 922.191 814.676 885.111C814.893 873.026 815.111 860.887 815.057 848.69ZM1318.32 773.314C1296.42 771.554 1284.23 784.523 1273.96 799.543C1261.34 818.016 1254.61 838.955 1251.63 861.062C1251.13 864.77 1250.61 868.713 1252.85 872.346C1257.26 872.94 1257.68 869.436 1257.75 866.807C1258.3 846.134 1267.47 828.1 1276.69 810.646C1283.27 798.194 1292.94 786.13 1308.06 783.067C1325.29 779.574 1341.14 795.056 1348.93 815.332C1363.36 852.888 1360.97 889.85 1347.54 926.249C1341.67 942.177 1334.35 958.403 1319.7 969.516C1304.86 980.77 1286.99 978.785 1276.1 963.839C1275.47 962.985 1274.82 962.139 1274.16 961.291L1274.15 961.291L1274.15 961.291C1272.16 958.728 1270.15 956.146 1269.07 953.239C1266.96 947.539 1263.74 942.119 1257.84 942.913C1251.02 943.832 1249.73 951.219 1249.09 956.989C1243.29 1009.42 1235.24 1061.51 1227.19 1113.62L1227.19 1113.62C1225.19 1126.54 1223.19 1139.47 1221.23 1152.4C1218.63 1169.51 1215.62 1194.09 1217.64 1204.54C1217.78 1205.28 1217.86 1206.01 1217.94 1206.71C1218.25 1209.45 1218.5 1211.7 1222.09 1212.24C1226.97 1212.97 1229.17 1210.15 1229.77 1205.77C1232.09 1188.76 1232.73 1182.24 1233.72 1156.23C1234.69 1131.01 1239.43 1106.16 1244.17 1081.31L1244.17 1081.31C1245.89 1072.29 1247.61 1063.27 1249.15 1054.24C1254.39 1023.49 1259.52 992.292 1259.98 957.267C1260.67 958.298 1261.36 959.315 1262.03 960.316C1269.57 971.586 1275.74 980.785 1286.52 984.367C1304.42 990.317 1320.08 985.912 1332.63 971.767C1346.93 955.645 1356.22 937.298 1361.44 915.988C1369.76 882.077 1371.3 848.858 1360.51 815.343C1355.34 799.264 1336.81 770.698 1318.32 773.314ZM1283.65 900.816C1279.28 903.957 1275.32 906.806 1271.67 895.438C1272.84 853.142 1286.4 826.144 1307.53 825.122C1296.25 839.687 1285.44 853.903 1284.53 873.622C1289.26 871.468 1292.3 868.08 1295.22 864.832C1297.25 862.57 1299.22 860.376 1301.65 858.716C1302.69 858.009 1303.71 857.226 1304.73 856.436C1309.46 852.791 1314.36 849.006 1322.53 851.847C1318.7 857.677 1313.42 861.792 1308.2 865.867C1302.17 870.574 1296.2 875.228 1292.61 882.409C1303.22 890.051 1307.79 900.11 1302.28 912.251C1297.5 922.786 1290.43 931.49 1276.43 932.125C1276.96 925.801 1281.13 921.198 1285.19 916.725C1290.12 911.286 1294.88 906.04 1292.68 898.125C1289.48 896.624 1286.48 898.781 1283.65 900.816Z" fill="black"/>
<path d="M406.306 1843.64L1715 1844.49C1715 1844.49 1642.06 1568.42 1622.63 1536.75C1603.2 1505.08 1525.08 1398.44 1525.95 1380.33C1526.81 1362.22 1524.46 1297.85 1511.27 1272.36C1498.09 1246.88 1456.02 1212.01 1439.62 1209.45C1423.22 1206.9 1367.97 1204.35 1333.44 1195.85C1298.91 1187.35 1267.02 1176.86 1231.93 1176.86C1226.23 1176.86 1231.74 1189.16 1231.74 1189.16C1231.74 1189.16 1229.92 1309.67 1066.94 1317.23C945.427 1322.87 905.175 1201.39 905.175 1201.39C905.175 1201.39 931.878 1177.99 923.771 1177.31C828.192 1169.24 778.02 1190.33 749.021 1195.85C722.26 1200.95 699.815 1200.95 673.054 1219.66C642.369 1241.1 626.511 1289.62 592.185 1363.99C552.836 1449.25 397.978 1707.99 406.325 1844.2" fill="black"/>
<path fill-rule="evenodd" clip-rule="evenodd" d="M718.815 1846.45C719.563 1829.72 719.933 1813 720.302 1796.28V1796.28C721.111 1759.65 721.92 1723.03 726.715 1686.39C731.115 1652.8 736.176 1619.25 741.714 1585.93C750.814 1531.13 763.029 1476.8 775.308 1422.57C779.536 1403.9 786.793 1385.66 794.59 1368.05C800.277 1355.21 805.047 1342.02 809.817 1328.84C815.279 1313.74 820.741 1298.64 827.581 1284.05C828.781 1281.49 830.289 1279.16 831.843 1276.76C834.744 1272.28 837.807 1267.54 839.336 1260.59C886.796 1352.64 959.751 1400.37 1062.55 1400.81C1163.72 1401.24 1238.58 1355.33 1293.05 1272.47C1301.67 1279.3 1305.59 1289.09 1309.16 1298.01C1309.61 1299.13 1310.05 1300.23 1310.5 1301.31C1329.1 1346.53 1346.55 1392.02 1351.97 1441.42C1355.1 1469.98 1359.56 1498.51 1364.01 1527L1364.01 1527L1364.01 1527C1364.6 1530.75 1365.18 1534.5 1365.77 1538.25C1372.69 1582.78 1378.71 1627.57 1382.04 1672.61C1386.27 1729.83 1390.76 1787.04 1395.44 1845.35C1400.13 1846.46 1404.52 1846.46 1410 1846.46C1406.48 1822.09 1405.6 1797.26 1404.8 1772.7C1403.21 1723.71 1397.51 1675.21 1391.82 1626.66C1390.26 1613.33 1388.69 1600 1387.21 1586.66C1384.15 1559 1380.11 1531.49 1376.08 1503.98L1376.08 1503.98C1372.1 1476.88 1368.13 1449.77 1365.08 1422.53C1360.23 1379.15 1343.2 1338.56 1325.18 1298.69L1324.35 1296.85L1324.35 1296.85C1313.92 1273.77 1303.54 1250.77 1286.84 1231.27C1273.92 1216.19 1259.33 1202.75 1242 1192.77C1228.1 1184.76 1223.56 1186.48 1218.87 1201.66C1209.31 1232.65 1192.6 1259.28 1165.59 1277.4C1122.84 1306.09 1076.54 1319.04 1024.28 1303.96C987.84 1293.44 957.71 1275.26 936.015 1244.61C927.615 1232.75 920.026 1220.04 917.496 1205.14C919.384 1204.43 921.244 1203.75 923.078 1203.08L923.078 1203.08L923.079 1203.08C927.406 1201.5 931.586 1199.98 935.648 1198.19L935.699 1198.17C938.645 1196.87 942.422 1195.21 940.848 1190.86C939.63 1187.49 936.73 1185.04 932.967 1185.56C899.858 1190.06 868.468 1197.16 846.559 1226.11C826.072 1253.16 811.094 1282.33 799.25 1314.04C796.752 1320.73 794.227 1327.41 791.703 1334.09L791.703 1334.09C779.143 1367.33 766.593 1400.54 757.351 1434.85C753.704 1448.4 750.95 1462.18 748.196 1475.96L748.196 1475.96L748.195 1475.97C747.023 1481.84 745.85 1487.7 744.609 1493.55C742.953 1501.35 741.197 1509.14 739.442 1516.93L739.44 1516.93C735.404 1534.83 731.367 1552.74 728.541 1570.83C726.596 1583.27 724.457 1595.68 722.317 1608.1L722.316 1608.1L722.316 1608.11C716.226 1643.44 710.136 1678.78 708.541 1714.75C707.755 1732.48 706.44 1750.18 705.124 1767.87L705.124 1767.88C704.016 1782.77 702.909 1797.67 702.117 1812.58C701.687 1820.68 702.515 1828.85 703.375 1837.33C703.655 1840.09 703.939 1842.89 704.183 1845.73C709.034 1846.35 713.926 1846.59 718.815 1846.45ZM903.926 1215.19L903.928 1215.2C911.809 1233.4 919.681 1251.58 933.21 1266.8C967.5 1305.36 1011.95 1323 1062.59 1324.42C1096.67 1325.38 1130.13 1318.45 1159.52 1299.84C1188.12 1281.72 1212.57 1259.69 1224.54 1226.8C1224.97 1225.62 1225.38 1224.4 1225.8 1223.18C1227.73 1217.43 1229.74 1211.48 1234.44 1207.43C1247.63 1210.39 1251.14 1218.53 1248.99 1230.04C1248.64 1231.92 1248.37 1233.82 1248.11 1235.73C1247.56 1239.66 1247.02 1243.6 1245.71 1247.26C1233.2 1282.17 1208.79 1307.8 1177.43 1326.51C1152.76 1341.23 1126.03 1351.01 1096.6 1354.63C1036.25 1362.04 980.082 1354.11 930.284 1317.4C899.966 1295.05 881.408 1265.51 876.943 1228.24C875.168 1213.44 884.114 1206.6 901.615 1209.86H901.611C902.386 1211.64 903.156 1213.41 903.926 1215.19ZM1265.13 1230.76C1245.12 1311.59 1188.18 1350.36 1111.43 1367.32C1072.41 1377.03 1035.44 1375.37 998.291 1365.88C956.96 1355.31 920.665 1336.98 893.544 1303.72C876.885 1283.29 864.626 1260.7 864.192 1233.21C849.202 1240.92 847.661 1246.16 857.693 1264.65C880.184 1306.12 912.139 1339.5 954.331 1361.09C1000.75 1384.84 1050.68 1391.06 1102.91 1383.32C1157.07 1375.3 1201.64 1350.12 1240.64 1313.95C1254.68 1300.93 1265.27 1285.07 1275.83 1269.25C1278.08 1265.87 1280.33 1262.5 1282.62 1259.16C1285.33 1255.18 1283.53 1252.01 1280.91 1248.97C1277.39 1244.89 1273.87 1240.83 1270.2 1236.6C1268.54 1234.69 1266.85 1232.75 1265.13 1230.76Z" fill="#63c8d8"/>
<path fill-rule="evenodd" clip-rule="evenodd" d="M1506.95 1846.46C1502.44 1831.3 1500.74 1815.59 1499.04 1799.86C1498.19 1791.96 1497.34 1784.06 1496.12 1776.21C1495.21 1770.3 1494.33 1764.38 1493.44 1758.46L1493.44 1758.46C1489.89 1734.65 1486.33 1710.86 1480.99 1687.28C1479.45 1680.5 1477.8 1673.75 1476.15 1666.99L1476.15 1666.99C1472.96 1653.9 1469.76 1640.79 1467.37 1627.47C1463.45 1604.78 1456.62 1582.68 1447.04 1561.68C1432.14 1529.64 1425.28 1495.97 1424.77 1461.2C1424.52 1443.82 1422.31 1426.68 1420.09 1409.54C1418.45 1396.77 1416.8 1384 1415.96 1371.13C1414.38 1346.86 1415.58 1322.85 1417.07 1296.73C1420.85 1299.74 1424.49 1302.68 1428.06 1305.56L1428.06 1305.56C1435.57 1311.62 1442.73 1317.4 1450.1 1322.89C1492.93 1354.77 1526.4 1394.95 1554.97 1439.1C1566.12 1456.33 1575.46 1474.63 1584.79 1492.92L1584.8 1492.92C1588.56 1500.3 1592.33 1507.68 1596.21 1514.98C1612.18 1545.02 1624.5 1576.42 1636.45 1607.76C1638.6 1613.37 1640.76 1618.99 1642.93 1624.6C1660.76 1670.88 1678.69 1717.39 1685.71 1766.76C1687.72 1780.92 1691.64 1794.52 1695.59 1808.24C1699.1 1820.41 1702.63 1832.67 1704.88 1845.5C1710.43 1846.46 1715.65 1846.46 1722 1846.46C1721.08 1843.26 1720.14 1840.07 1719.21 1836.87L1719.21 1836.86L1719.21 1836.86C1710.76 1807.83 1702.26 1778.66 1697.94 1748.27C1695.75 1732.92 1691.25 1717.85 1686.77 1702.84C1685.74 1699.39 1684.71 1695.94 1683.71 1692.49C1679.29 1677.25 1673.53 1662.47 1667.78 1647.68L1667.78 1647.68C1662.78 1634.84 1657.78 1621.99 1653.64 1608.83C1648.74 1593.21 1642.13 1578.1 1635.53 1563.01C1633.1 1557.45 1630.67 1551.89 1628.32 1546.3C1611.66 1506.63 1590.92 1468.92 1569.27 1431.79L1568.96 1431.26C1561.59 1418.61 1554 1405.59 1542.91 1395.14C1534.28 1387 1533.78 1376.44 1533.28 1365.96V1365.96C1533.09 1361.99 1532.9 1358.02 1532.27 1354.21C1531.83 1351.52 1531.39 1348.83 1530.95 1346.14L1530.95 1346.14C1525.87 1314.91 1520.76 1283.54 1504.69 1255.77C1487.93 1226.8 1460.15 1210.76 1427.62 1202.99C1404.08 1197.34 1380.07 1193.75 1355.89 1192.26C1345.93 1191.66 1336.15 1188.54 1326.35 1185.42C1321.08 1183.74 1315.8 1182.06 1310.48 1180.77C1305.45 1179.54 1300.44 1178.21 1295.43 1176.88L1295.43 1176.88C1276.35 1171.8 1257.25 1166.72 1237.05 1167.59C1236.7 1167.6 1236.34 1167.61 1235.99 1167.63C1231.91 1167.76 1227.74 1167.9 1227.08 1172.99C1226.42 1178.06 1229.95 1178.71 1233.62 1179.38C1234.28 1179.5 1234.94 1179.62 1235.59 1179.77C1249.58 1182.97 1263.56 1186.25 1277.54 1189.53L1277.54 1189.53L1277.54 1189.53C1303.97 1195.74 1330.41 1201.94 1356.96 1207.6C1368.52 1210.07 1380.48 1210.83 1392.4 1211.58L1392.4 1211.58C1395.36 1211.77 1398.31 1211.96 1401.25 1212.17C1409.76 1212.79 1417.88 1213.88 1424.98 1218.42C1399.18 1234.24 1384.01 1255.62 1384.44 1286.06C1384.7 1304.07 1383.95 1322.07 1383.21 1340.07V1340.07C1382.23 1363.8 1381.25 1387.53 1382.56 1411.27C1384.26 1442.19 1387.84 1472.88 1392.47 1503.6C1395.16 1521.42 1397.24 1539.38 1399.32 1557.34C1401.29 1574.27 1403.25 1591.19 1405.72 1608C1408.19 1624.79 1409.85 1641.63 1411.5 1658.47L1411.5 1658.47C1413.04 1674.05 1414.57 1689.63 1416.75 1705.16C1419.3 1723.35 1421.15 1741.64 1423.01 1759.93C1424.61 1775.74 1426.21 1791.55 1428.27 1807.31C1428.79 1811.32 1429.04 1815.37 1429.29 1819.46C1429.81 1827.99 1430.35 1836.67 1433.41 1845.49C1438.99 1846.44 1444.7 1846.48 1450.3 1845.61C1441.69 1812.54 1437.64 1779.1 1433.65 1746.1C1433.5 1744.84 1433.35 1743.58 1433.19 1742.33C1431.23 1726.1 1429.78 1709.8 1428.34 1693.5C1425.99 1666.93 1423.63 1640.34 1419.01 1614.02C1417.15 1603.41 1416.31 1592.69 1415.48 1581.98V1581.98V1581.98C1414.4 1568.1 1413.32 1554.23 1410 1540.56C1401.68 1506.31 1399 1471.05 1397.05 1436.16C1394.18 1384.75 1393.47 1333.08 1396.68 1281.59C1397.69 1265.26 1401.28 1248.68 1416.22 1235.37C1414.64 1240.25 1412.86 1244.91 1411.14 1249.45C1407.46 1259.1 1404 1268.19 1403.15 1277.5C1400.7 1304.49 1400.49 1331.78 1400.97 1358.91C1401.52 1390.62 1405.05 1422.11 1408.58 1453.6C1409.8 1464.49 1411.02 1475.38 1412.12 1486.27C1415.71 1521.93 1420.84 1557.38 1425.96 1592.82L1425.96 1592.82C1428.25 1608.61 1430.54 1624.41 1432.69 1640.22C1434.63 1654.51 1436.13 1668.84 1437.63 1683.17L1437.63 1683.17C1439.44 1700.43 1441.24 1717.68 1443.82 1734.83C1445.45 1745.69 1446.44 1756.62 1447.43 1767.56L1447.43 1767.56C1449.08 1785.76 1450.73 1803.97 1455.34 1821.85C1455.65 1823.04 1455.99 1824.25 1456.35 1825.48L1456.35 1825.48C1458.26 1832.15 1460.32 1839.33 1456.89 1846.46C1462.47 1846.59 1468.05 1846.27 1473.58 1845.48C1472.85 1837.78 1471.63 1830.41 1470.42 1823.13C1469.35 1816.67 1468.29 1810.27 1467.59 1803.77C1466.16 1790.36 1464.63 1776.96 1463.1 1763.55L1463.1 1763.55L1463.1 1763.55C1461.4 1748.74 1459.7 1733.93 1458.15 1719.09C1455.16 1690.58 1451.27 1662.16 1447.38 1633.74L1447.38 1633.73L1447.38 1633.73C1445.72 1621.61 1444.06 1609.49 1442.47 1597.36C1444.35 1605.33 1446.78 1613.19 1449.21 1621.03C1452.69 1632.29 1456.17 1643.53 1458 1655.07C1460.62 1671.56 1464.09 1687.87 1467.56 1704.19L1467.56 1704.19C1472.07 1725.41 1476.58 1746.64 1479.22 1768.26C1480.13 1775.71 1481.24 1783.14 1482.34 1790.57C1485.09 1809.1 1487.84 1827.61 1487.61 1846.46H1506.95ZM1446.69 1300.8C1440.52 1294.44 1433.95 1288.49 1426.2 1284.08C1419.49 1280.25 1417.66 1274.26 1420.03 1267.97C1421.17 1264.95 1421.64 1261.62 1422.12 1258.28C1423.22 1250.54 1424.33 1242.77 1433.72 1238.81C1438.72 1236.7 1443.55 1238.58 1446.97 1241.06C1453.41 1245.74 1460.1 1250.94 1464.44 1257.39C1481.62 1282.93 1491.1 1311.7 1500.08 1344.32C1489.13 1333.53 1477.94 1325.05 1466.78 1316.58C1460.05 1311.48 1453.34 1306.38 1446.69 1300.8ZM1484.3 1261.42C1494.13 1284.58 1503.96 1307.74 1506.34 1333.17C1506.59 1346.17 1511.91 1355.14 1517.74 1363.97C1516.44 1358.1 1515.22 1352.2 1514 1346.3C1507.19 1313.37 1500.38 1280.44 1480.2 1251.7C1481.55 1254.95 1482.93 1258.18 1484.3 1261.42Z" fill="#63c8d8"/>
<path fill-rule="evenodd" clip-rule="evenodd" d="M446.219 1703.42C430.372 1749.74 422.043 1797.99 414.549 1846.46C409.07 1846.46 404.685 1846.46 400 1845.39C403.922 1806.68 412.676 1769.87 421.421 1733.1L421.545 1732.58C425.661 1715.27 431.407 1698.41 437.155 1681.55C438.834 1676.63 440.513 1671.7 442.152 1666.77C455.447 1626.72 469.045 1586.85 485.779 1548.04C494.583 1527.62 505.387 1508.3 516.233 1488.92C520.878 1480.62 525.187 1472.13 529.496 1463.65C538.904 1445.13 548.312 1426.61 561.22 1409.98C562.556 1408.26 563.945 1406.54 565.342 1404.81C571.179 1397.59 577.151 1390.19 579.892 1381.9C591.17 1347.77 604.09 1314.26 617.01 1280.76C624.539 1261.23 634.881 1242.78 649.74 1227.69C670.114 1207.01 697.587 1199.54 724.772 1193.2C747.697 1187.85 770.82 1183.34 793.946 1178.83C807.389 1176.2 820.832 1173.58 834.238 1170.79C868.368 1163.8 903.361 1161.81 938.08 1164.9C943.568 1165.37 948.027 1166.61 950 1175.3C935.464 1176.93 920.919 1177.32 906.395 1177.7C882.194 1178.34 858.051 1178.98 834.102 1185.4C808.876 1192.17 783.163 1197.52 756.717 1203.03C744.282 1205.62 731.685 1208.24 718.901 1211.06C728.008 1220.62 728.308 1230.14 728.606 1239.58C728.653 1241.08 728.7 1242.57 728.782 1244.06C729.544 1257.85 727.386 1271.34 725.239 1284.77C723.755 1294.05 722.277 1303.3 721.769 1312.59C719.352 1356.74 712.174 1400.15 704.997 1443.54C704.541 1446.3 704.084 1449.05 703.629 1451.81C700.17 1472.78 697.646 1493.85 695.122 1514.92C692.878 1533.66 690.633 1552.39 687.731 1571.05C682.98 1601.61 681.267 1632.45 679.554 1663.29C678.39 1684.27 677.225 1705.24 675.105 1726.14C673 1746.89 671.484 1767.69 669.967 1788.51C668.559 1807.82 667.15 1827.16 665.269 1846.47H653.545C654.069 1798.07 657.723 1749.85 661.377 1701.63C663.252 1676.89 665.127 1652.15 666.579 1627.38C667.785 1606.82 670.723 1586.28 673.66 1565.73C675.171 1555.17 676.682 1544.6 677.956 1534.04C681.722 1502.82 686.698 1471.79 691.672 1440.77C695.961 1414.02 700.25 1387.28 703.762 1360.42C705.454 1347.48 707.606 1334.6 709.758 1321.72C714.225 1294.99 718.692 1268.26 719.044 1241.01C719.183 1230.23 715.625 1221.59 706.524 1214.43C721.121 1244.07 714.729 1272.66 708.364 1301.14C706.695 1308.61 705.028 1316.06 703.741 1323.53C702.609 1330.09 701.229 1336.64 699.848 1343.18C697.068 1356.36 694.29 1369.53 693.549 1382.81C692.937 1393.78 690.831 1404.39 688.73 1414.96C687.254 1422.39 685.782 1429.8 684.832 1437.32C682.373 1456.77 679.176 1476.1 675.979 1495.44C670.994 1525.6 666.008 1555.76 663.816 1586.36C661.946 1612.45 656.874 1638.39 651.835 1664.17C651.583 1665.46 651.332 1666.75 651.08 1668.03C648.615 1680.66 648.136 1693.44 647.667 1705.95C647.641 1706.63 647.616 1707.31 647.59 1707.99C646.904 1726.18 645.165 1744.3 643.427 1762.41C641.164 1786 638.901 1809.58 638.965 1833.31C638.969 1834.74 639.072 1836.17 639.178 1837.65C639.35 1840.04 639.532 1842.58 639.326 1845.49C635.592 1846.27 631.777 1846.59 627.963 1846.46C625.21 1801.91 628.373 1757.52 632.37 1710.7C618.331 1749.95 611.42 1788.77 604.396 1828.22C603.381 1833.92 602.364 1839.63 601.323 1845.36C595.907 1846.41 590.346 1846.5 584.898 1845.63C588.817 1836.93 589.469 1828.01 590.108 1819.28C590.512 1813.75 590.911 1808.3 592.129 1803.02C593.236 1798.22 594.326 1793.42 595.416 1788.61C603.24 1754.11 611.068 1719.6 625.404 1686.73C626.387 1684.47 627.461 1682.21 628.545 1679.92C632.289 1672.01 636.155 1663.85 636.825 1655.05C637.945 1640.34 640.923 1625.89 643.881 1611.53C644.714 1607.49 645.546 1603.45 646.334 1599.42C649.901 1581.17 652.014 1562.76 654.128 1544.35C656.296 1525.47 658.465 1506.58 662.203 1487.85C665.896 1469.34 669.108 1450.75 672.321 1432.14C677.345 1403.05 682.371 1373.95 689.244 1345.15C689.897 1342.42 690.589 1339.67 691.287 1336.89C694.164 1325.45 697.155 1313.55 697.981 1300.58C696.331 1301.22 694.871 1301.7 693.573 1302.13C691.195 1302.91 689.365 1303.51 687.921 1304.61L686.895 1305.38C655.673 1329.09 624.356 1352.87 599.825 1383.64C578.458 1410.45 559.336 1438.55 543.955 1469.56C538.074 1481.42 531.963 1493.15 525.852 1504.88C512.734 1530.06 499.617 1555.23 488.779 1581.66C477.09 1610.16 467.493 1639.29 457.901 1668.41C454.051 1680.1 450.202 1691.78 446.219 1703.42ZM689.54 1287.1C695.69 1283.65 699.935 1278.98 700.999 1271.89C705.484 1259.9 705.378 1249.44 703.868 1239.03C701.687 1223.99 691.146 1219.73 677.411 1226.13C657.501 1235.4 648.785 1253.3 640.299 1270.72C639.412 1272.54 638.528 1274.35 637.634 1276.15C629.382 1292.76 622.643 1310.1 615.458 1328.58C612.242 1336.85 608.936 1345.36 605.366 1354.13C609.286 1350.55 613.109 1347.02 616.869 1343.55C635.563 1326.29 652.675 1310.5 672.192 1297.54C677.807 1293.81 683.652 1290.4 689.54 1287.1Z" fill="#63c8d8"/>
<path d="M1122.13 1614.18C1122.13 1614.18 971.977 1657.86 950.161 1656.33C940.619 1655.66 936.487 1649.38 938.301 1640.1C938.88 1635.63 941.347 1631.82 943.847 1628.18C946.697 1624.03 1129.87 1402.52 1147.32 1443.56C1149.02 1447.55 1148.51 1452.23 1146.76 1456.12C1142.54 1464.02 1136.05 1470.45 1130.48 1477.39C1109.07 1502.18 1088.86 1527.96 1067.39 1552.69C1054.74 1567.58 1036.9 1586.85 1029.53 1600.39C1034.88 1599.89 1044.61 1596.89 1050.64 1595.52C1064.13 1592.05 1077.59 1588.49 1091.12 1585.18C1110.85 1580.31 1130.98 1576.46 1151.32 1575.51C1160.55 1575.35 1171.73 1575.07 1178.33 1582.6C1183.45 1589.07 1184.31 1598.35 1181.15 1605.88C1177.06 1614.14 1170.4 1620.83 1164.5 1627.81C1154.96 1638.44 1144.94 1648.64 1134.89 1658.78C1116.14 1677.28 1097.64 1696.01 1078.69 1714.3C1056.7 1735.2 1035.19 1756.59 1013.64 1777.95C997.834 1793.49 981.693 1808.68 965.834 1824.15C960.988 1828.85 956.165 1833.58 950.973 1837.9C949.246 1839.33 947.523 1840.78 945.687 1842.08C944.493 1842.88 943.315 1843.84 941.822 1843.91C939.337 1843.46 938.48 1840.35 938.248 1838.17C937.334 1832.38 940.956 1827.54 943.788 1822.86C968.423 1784.19 1122.13 1614.18 1122.13 1614.18Z" fill="#63c8d8"/>
<path d="M1295.1 621.412C1267.63 578.97 1232.23 546.376 1190.91 518.947C1165.09 501.803 1111.98 474.286 1095.21 464.453C1073.98 451.998 1061.5 435.619 1063.21 409.635C1063.9 399.186 1054.77 396.478 1046.11 396.996C1023.25 398.364 1000.3 399.048 977.709 403.409C974.792 404.008 971.819 404.291 968.842 404.255C918.77 402.965 869.888 411.515 821.404 422.634C808.864 425.509 803.533 436.298 801.262 448.107C794.507 483.223 789.169 518.507 790.833 554.459C791.042 558.981 788.977 562.651 786.589 566.259C767.489 595.113 766.905 617.951 763.428 651.934C759.353 691.763 774.416 721.518 783.774 754.125C785.168 758.982 790.474 773.387 793.407 777.125C795.307 772.048 802.758 773.987 800.395 766.896C796.641 755.633 797.725 739.17 797.775 733.536C798.026 704.846 810.516 694.486 820.729 667.458C825.875 653.842 829.187 638.911 842.188 628.57C871.979 647.776 904.978 653.91 939.62 651.581C956.082 650.475 972.285 646.935 988.889 645.881C1017.39 644.074 1044.72 648.517 1071.42 657.536C1104.22 668.621 1134.47 684.521 1160.21 708.121C1181.39 727.54 1197.87 750.527 1210.41 776.255C1222.79 801.632 1230.29 828.555 1233.88 856.545C1234.62 861.203 1236.51 865.6 1239.4 869.332C1242.53 873.7 1247.25 873.481 1252.12 872.3C1256.65 871.2 1257.62 868.243 1258.57 864.089C1264.64 837.759 1270.16 811.249 1287.24 788.989C1294.76 779.196 1305.17 775.231 1317.46 778.789C1322.69 780.299 1327.43 783.748 1336.72 782.719C1334.23 726.234 1325.49 671.743 1295.1 621.412Z" fill="black"/>
<path d="M978.556 1051.05C969.28 1045.47 960.2 1042.44 950.145 1043.25C943.914 1043.75 939.365 1046.75 939.099 1053.16C938.791 1060.6 944.811 1060.26 949.931 1060.29C957.916 1060.35 965.908 1060.42 973.888 1060.19C979.371 1060.03 981.658 1057.36 978.556 1051.05Z" fill="black"/>
<path d="M974.256 1005.12C979.819 1016.9 990.137 1019.04 1000.23 1019.67C1008.46 1020.19 1012.93 1013.47 1010.79 1006.24C1007.52 995.172 1000.86 985.729 989.278 981.281C984.171 979.32 978.943 976.805 973.678 981.04C968.034 985.584 969.302 991.64 970.42 997.44C970.887 999.832 972.587 1001.99 974.256 1005.12Z" fill="black"/>
<path d="M904.173 1022.82C918.491 1019.84 925.433 1009.56 931.533 998.93C937.347 988.799 928.316 985.283 921.833 982.087C914.395 978.421 900.897 987.087 896.459 998.631C892.941 1007.78 889.974 1017.78 904.173 1022.82Z" fill="black"/>
<path d="M988.782 951.177C983.706 943.046 978.248 946.895 972.182 948.987C957.839 953.931 943.541 959.951 928.202 950.71C920.683 946.181 912.715 942.51 912.594 932.552C912.507 925.369 927.541 912.997 936.738 912.17C943.516 911.56 950.376 911.894 957.198 911.721C961.12 911.621 965.432 911.265 966.323 906.605C967.17 902.175 963.829 899.783 960.149 898.005C938.294 887.438 891.874 906.387 897.337 938.262C898.937 947.625 911.697 963.714 921.02 965.699C938.32 969.382 955.659 969.682 972.864 965.458C980.088 963.682 985.956 959.542 988.782 951.177Z" fill="black"/>
<path fill-rule="evenodd" clip-rule="evenodd" d="M963.914 789.771L963.909 789.771C911.885 790.116 860.67 790.455 809.455 790.869C804.779 791.024 800.116 791.436 795.485 792.103C788.369 792.951 785.085 796.29 783.506 804.135C777.28 834.984 780.706 865.149 789.783 894.524C795.241 912.198 809.774 922.594 827.331 928.065C850.261 935.209 873.778 940.441 897.131 931.965C917.87 924.435 934.307 911.97 939.986 888.029C940.697 885.035 941.585 882.098 942.47 879.173L942.47 879.173C944.984 870.862 947.467 862.652 945.743 853.499C945.004 849.575 948.805 847.638 951.792 846.115L951.822 846.099C966.812 838.453 981.522 845.908 984.23 862.577C987.2 880.865 993.23 898.386 1003.59 913.367C1020.14 937.281 1045.24 942.751 1072.6 939.514C1094.15 936.964 1112.76 927.926 1128.8 912.926C1143.15 899.504 1150.42 883.384 1148.88 864.131C1147.98 852.925 1154.3 847.831 1162.58 846.421C1176.89 843.981 1190.16 838.575 1203.36 833.197L1203.36 833.197C1208.11 831.262 1212.85 829.331 1217.63 827.542C1224.82 824.851 1232.13 822.558 1239.43 820.266L1239.43 820.266C1247.46 817.744 1255.5 815.223 1263.36 812.176C1263.71 812.039 1264.06 811.907 1264.41 811.777L1264.41 811.776C1268.23 810.346 1271.43 809.145 1270.81 803.311C1265.11 800.65 1259.87 802.358 1254.44 804.127C1250.85 805.297 1247.18 806.494 1243.24 806.469C1245.93 797.488 1251.52 794.096 1260.5 793.698C1271.28 793.22 1280.9 789.521 1288.03 780.523C1283.26 775.871 1279.01 776.203 1274.85 777.33C1253.48 783.129 1231.65 786.416 1209.82 789.705C1191.82 792.415 1173.83 795.126 1156.08 799.242C1145.79 801.627 1134.74 801.67 1125.04 792.82C1118.82 787.148 1109.55 787.336 1101.07 787.508C1100.02 787.53 1098.98 787.551 1097.96 787.56C1072.71 787.797 1047.46 788.351 1021.76 788.916L1021.76 788.916C1011.11 789.149 1000.38 789.385 989.544 789.6C980.977 789.658 972.435 789.714 963.914 789.771ZM1139.64 855.461C1136.28 897.172 1112.9 918.446 1076.86 926.455C1053.29 931.695 1024.59 926.593 1010.05 899.675C1001.87 884.522 997.232 868.535 993.041 852.091C989.17 836.898 978.806 832.045 957.4 833.83C943.106 835.022 936.524 841.674 934.6 856.295C933.157 867.254 931.524 878.195 929.579 889.079C927.123 902.827 910.146 919.403 896.267 922.188C874.928 926.602 852.78 924.971 832.317 917.48C820.337 913.141 809.412 907.109 803.64 894.486C793.558 872.437 790.545 849.2 790.861 825.27C791.151 803.349 792.476 801.87 815.161 801.78C829.252 801.724 843.344 801.741 857.435 801.757C876.972 801.78 896.509 801.803 916.045 801.632C941.019 801.415 965.992 801.094 990.965 800.773L990.965 800.773C1020.02 800.4 1049.08 800.026 1078.14 799.815C1081.62 799.79 1085.21 799.453 1088.82 799.114C1099.56 798.105 1110.47 797.081 1119.06 804.215C1128 811.633 1136.9 811.61 1146.47 811.586H1146.47C1147.61 811.583 1148.77 811.58 1149.94 811.589C1152.44 811.611 1154.91 811.097 1157.4 810.577C1161.6 809.7 1165.88 808.806 1170.54 810.443C1169.22 825.259 1165.85 838.209 1148.6 841.668C1142.25 842.938 1138.88 846.499 1139.65 855.461H1139.64ZM1215.45 802.051C1206.61 800.902 1198.44 799.84 1195.56 812.604H1195.56C1194.05 817.346 1192.91 820.334 1191.5 824.005L1191.49 824.052C1204.49 821.283 1214.66 816.331 1219.61 802.541C1218.22 802.41 1216.83 802.229 1215.45 802.051Z" fill="#63c8d8"/>
<path fill-rule="evenodd" clip-rule="evenodd" d="M1025.67 789.773C999.393 789.605 973.302 789.434 947.324 789.264C905.27 788.989 863.51 788.716 821.748 788.463C819.689 788.45 817.6 788.353 815.504 788.256C808.253 787.92 800.919 787.581 794.458 790.71C784.354 795.602 783.776 805.686 783.241 815.045C783.154 816.56 783.068 818.057 782.943 819.51C780.743 845.064 783.123 870.549 792.034 894.616C797.44 909.175 809.247 920.436 824.046 925.148C847.521 932.965 872.066 938.647 896.084 930.025C914.784 923.313 930.509 911.38 938.128 890.968C939.332 887.745 940.768 884.631 942.203 881.522C945.621 874.117 949.027 866.735 949.243 857.949C949.357 853.329 954.943 849.888 960.875 849.879C967.912 849.867 971.617 854.348 974.483 859.751C976.867 864.246 977.981 869.12 979.105 874.041C979.937 877.686 980.776 881.357 982.141 884.918C996.341 921.982 1020.86 940.21 1060.24 939.417C1085.88 938.903 1107.89 929.107 1126.95 912.018C1141.85 898.661 1148.18 882.004 1147.78 862.364C1147.73 859.824 1147.74 857.283 1147.76 854.526C1147.76 853.184 1147.77 851.79 1147.77 850.321C1168.54 845.588 1188.03 837.772 1207.44 829.989C1225.84 822.61 1244.17 815.261 1263.44 810.597C1266.7 809.807 1268.86 808.606 1270.22 805.697C1274.12 797.384 1279.76 790.198 1286.82 781.214L1286.82 781.214C1287.74 780.038 1288.68 778.832 1289.66 777.589C1283.12 778.726 1276.89 779.837 1270.85 780.912L1270.85 780.913C1258.02 783.198 1246.08 785.324 1234.11 787.209C1224.25 788.759 1214.44 790.575 1204.62 792.391L1204.62 792.391C1184.5 796.113 1164.38 799.834 1143.92 801.273C1137.29 801.738 1131.43 801.624 1125.7 795.407C1119.45 788.623 1109.36 789.074 1100.78 789.457C1099.78 789.502 1098.81 789.545 1097.86 789.577C1074.18 790.366 1050.56 790.638 1025.67 789.773ZM1193.93 827.197C1191.1 828.668 1188.69 828.292 1188.69 824.742C1188.69 805.92 1203.25 795.704 1222.8 801.249C1218.83 815.354 1208.23 821.839 1193.93 827.197ZM1177.86 830.781C1179.86 829.333 1180.89 826.565 1183.53 819.454H1183.53C1187.01 813.404 1188.51 808.88 1187.15 801.568C1180.04 807.671 1177.89 815.133 1175.79 822.426C1174.78 825.956 1173.77 829.447 1172.22 832.725C1174.94 832.091 1176.6 831.704 1177.86 830.781Z" fill="black"/>
<path d="M1003.1 820.245C1003.77 814.245 999.968 812.911 996.08 812.899C977.007 812.841 957.927 812.915 938.863 813.413C934.514 813.433 930.421 815.473 927.787 818.933C934.689 826.991 981.361 828.317 1003.1 820.245Z" fill="black"/>
<path d="M1072.52 790.052C1062.09 785.507 1052.76 778.77 1045.17 770.297C1042.45 767.25 1039.09 764.559 1035.34 765.213C1028.57 766.392 1019.11 764.387 1016.54 772.754C1014.37 779.798 1021.72 783.254 1026.82 787.154C1040.64 797.698 1055 806.161 1073.4 803.925C1078.04 803.361 1083.09 804.139 1084.49 797.699C1082.82 792.188 1077.1 792.835 1072.52 790.052Z" fill="black"/>
<path d="M874.582 767.546C866.113 765.839 862.001 771.621 857.469 775.718C849.354 783.055 842.756 792.108 831.494 795.462C828.194 796.445 825.783 799.462 827.538 803.547C829.02 806.993 831.582 809.189 835.585 808.112C849.806 804.283 864.672 802.236 876.09 791.306C886.188 781.64 886.318 777.286 874.582 767.546Z" fill="black"/>
</g>
</svg>
