<svg width="48" height="48" viewBox="0 0 48 48" fill="none" xmlns="http://www.w3.org/2000/svg">
<path d="M24.0001 24.0001L32.6605 29L24.0001 44.0001C35.0458 44.0001 44 35.0458 44 24.0001C44 20.3561 43.0207 16.9427 41.3178 14H23.9999L24.0001 24.0001Z" fill="#FBBF12"/>
<path d="M24 4C16.5975 4 10.1392 8.02461 6.68091 14.0025L15.3396 29.0002L24 24.0002V14.0001H41.318C37.8591 8.02373 31.4017 4 24 4V4Z" fill="url(#paint0_linear_3395_229)"/>
<path d="M4.00012 23.9997C4.00012 35.0454 12.9541 43.9997 24.0001 43.9997L32.6605 28.9996L24.0001 23.9997L15.3396 28.9996L6.68093 14.002C4.97905 16.9438 4 20.356 4 23.9994" fill="url(#paint1_linear_3395_229)"/>
<path d="M34.0002 24.0001C34.0002 29.523 29.5229 34.0002 24.0001 34.0002C18.4772 34.0002 13.9999 29.523 13.9999 24.0001C13.9999 18.4773 18.4772 14 24.0001 14C29.5229 14 34.0002 18.4773 34.0002 24.0001Z" fill="white"/>
<path d="M32.1252 24.0001C32.1252 28.4874 28.4874 32.1252 24.0001 32.1252C19.5127 32.1252 15.8749 28.4874 15.8749 24.0001C15.8749 19.5128 19.5127 15.875 24.0001 15.875C28.4874 15.875 32.1252 19.5128 32.1252 24.0001Z" fill="#1A73E8"/>
<defs>
<linearGradient id="paint0_linear_3395_229" x1="12.6809" y1="16.4999" x2="30.7772" y2="16.4999" gradientUnits="userSpaceOnUse">
<stop stop-color="#DB3328"/>
<stop offset="1" stop-color="#E53D30"/>
</linearGradient>
<linearGradient id="paint1_linear_3395_229" x1="11.6218" y1="17.5633" x2="19.0385" y2="30.4096" gradientUnits="userSpaceOnUse">
<stop stop-color="#32A651"/>
<stop offset="1" stop-color="#279847"/>
</linearGradient>
</defs>
</svg>
