<svg width="48" height="48" viewBox="0 0 48 48" fill="none" xmlns="http://www.w3.org/2000/svg">
<path d="M8.32049 28.237C8.32049 29.7644 8.65572 30.937 9.09389 31.6464C9.66838 32.5756 10.5252 32.9693 11.3988 32.9693C12.5255 32.9693 13.5563 32.6897 15.5426 29.9424C17.134 27.7404 19.009 24.6496 20.2707 22.7119L22.4073 19.4291C23.8915 17.1493 25.6094 14.6148 27.5791 12.8969C29.1871 11.4948 30.9217 10.7158 32.6674 10.7158C35.5983 10.7158 38.39 12.4142 40.5266 15.5997C42.8649 19.0883 44 23.4825 44 28.0173C44 30.713 43.4686 32.6938 42.5645 34.2587C41.6909 35.7722 39.9883 37.2842 37.1242 37.2842V32.9693C39.5766 32.9693 40.1886 30.7158 40.1886 28.1369C40.1886 24.4618 39.3318 20.3834 37.4441 17.4692C36.1046 15.4021 34.3686 14.1391 32.4588 14.1391C30.3931 14.1391 28.7308 15.697 26.8627 18.4749C25.8695 19.9508 24.8499 21.7493 23.7051 23.7788L22.4448 26.0114C19.9132 30.5002 19.2719 31.5226 18.0061 33.2099C15.7875 36.1644 13.8929 37.2842 11.3988 37.2842C8.44012 37.2842 6.5692 36.0031 5.41049 34.0723C4.4646 32.4991 4 30.4348 4 28.0826L8.32049 28.237Z" fill="#0081FB"/>
<path d="M7.40662 15.9043C9.38742 12.851 12.246 10.7158 15.5246 10.7158C17.4233 10.7158 19.3109 11.2778 21.282 12.8872C23.4381 14.6468 25.736 17.5443 28.6029 22.3197L29.6308 24.0334C32.1124 28.1675 33.5243 30.2943 34.3506 31.2973C35.4133 32.5853 36.1575 32.9693 37.1242 32.9693C39.5766 32.9693 40.1886 30.7158 40.1886 28.1369L44 28.0173C44 30.713 43.4687 32.6938 42.5645 34.2587C41.6909 35.7722 39.9883 37.2842 37.1242 37.2842C35.3437 37.2842 33.7663 36.8975 32.022 35.2519C30.6811 33.9889 29.1134 31.7452 27.9074 29.7282L24.32 23.7357C22.52 20.7283 20.8689 18.486 19.9132 17.4706C18.8853 16.3786 17.5638 15.06 15.455 15.06C13.7482 15.06 12.2988 16.2576 11.0858 18.0896L7.40662 15.9043Z" fill="url(#paint0_linear_3395_241)"/>
<path d="M15.455 15.06C13.7482 15.06 12.2988 16.2576 11.0858 18.0896C9.3707 20.6783 8.32049 24.5342 8.32049 28.237C8.32049 29.7644 8.65572 30.937 9.09389 31.6464L5.41049 34.0723C4.4646 32.4991 4 30.4348 4 28.0826C4 23.8053 5.17402 19.3471 7.40659 15.9043C9.3874 12.851 12.2459 10.7158 15.5246 10.7158L15.455 15.06Z" fill="url(#paint1_linear_3395_241)"/>
<defs>
<linearGradient id="paint0_linear_3395_241" x1="12.4852" y1="26.9907" x2="40.0273" y2="28.3817" gradientUnits="userSpaceOnUse">
<stop stop-color="#0064E1"/>
<stop offset="0.4" stop-color="#0064E1"/>
<stop offset="0.83" stop-color="#0073EE"/>
<stop offset="1" stop-color="#0082FB"/>
</linearGradient>
<linearGradient id="paint1_linear_3395_241" x1="10.2596" y1="30.0509" x2="10.2596" y2="19.8965" gradientUnits="userSpaceOnUse">
<stop stop-color="#0082FB"/>
<stop offset="1" stop-color="#0064E0"/>
</linearGradient>
</defs>
</svg>
