<svg width="48" height="48" viewBox="0 0 48 48" fill="none" xmlns="http://www.w3.org/2000/svg">
<path fill-rule="evenodd" clip-rule="evenodd" d="M13.8545 10.0159L24 9L34.1454 10.0159L41.9999 20.0032L24 39.857L6 20.0032L13.8545 10.0159Z" fill="#FDB300"/>
<path d="M13.2908 20.0029L23.9999 39.8569L6 20.0029H13.2908ZM34.7092 20.0029L24.0001 39.8569L42 20.0029" fill="#EA6C00"/>
<path fill-rule="evenodd" clip-rule="evenodd" d="M13.291 20.0029H34.7091L24 39.8569" fill="#FDAD00"/>
<path d="M24 9L13.8546 10.0158L13.291 20.003L24 9ZM24.0002 9L34.1456 10.0158L34.7093 20.003" fill="#FDD231"/>
<path d="M42 20.0029L34.1456 10.0156L34.7092 20.0029H42ZM6 20.0029L13.8544 10.0156L13.2908 20.0029" fill="#FDAD00"/>
<path fill-rule="evenodd" clip-rule="evenodd" d="M24 9L13.291 20.003H34.7091" fill="#FEEEB7"/>
</svg>
