<svg width="48" height="48" viewBox="0 0 48 48" fill="none" xmlns="http://www.w3.org/2000/svg">
<path d="M26.5624 24.0004C26.5624 30.2735 21.5116 35.3588 15.2814 35.3588C9.05122 35.3588 4 30.2724 4 24.0004C4 17.7285 9.05083 12.6416 15.2814 12.6416C21.512 12.6416 26.5624 17.7273 26.5624 24.0004ZM38.9381 24.0004C38.9381 29.9052 36.4126 34.6939 33.2974 34.6939C30.1821 34.6939 27.6567 29.9052 27.6567 24.0004C27.6567 18.0956 30.1817 13.307 33.297 13.307C36.4123 13.307 38.9377 18.0941 38.9377 24.0004H38.9381ZM44 24.0004C44 29.2896 43.1119 33.5801 42.0162 33.5801C40.9204 33.5801 40.0327 29.2908 40.0327 24.0004C40.0327 18.71 40.9207 14.4208 42.0162 14.4208C43.1116 14.4208 44 18.7097 44 24.0004" fill="white"/>
</svg>
