<svg width="48" height="48" viewBox="0 0 48 48" fill="none" xmlns="http://www.w3.org/2000/svg">
<mask id="mask0_3395_311" style="mask-type:alpha" maskUnits="userSpaceOnUse" x="6" y="6" width="36" height="36">
<path d="M24 42C33.9411 42 42 33.9411 42 24C42 14.0589 33.9411 6 24 6C14.0589 6 6 14.0589 6 24C6 33.9411 14.0589 42 24 42Z" fill="white"/>
</mask>
<g mask="url(#mask0_3395_311)">
<path d="M24 42C33.9411 42 42 33.9411 42 24C42 14.0589 33.9411 6 24 6C14.0589 6 6 14.0589 6 24C6 33.9411 14.0589 42 24 42Z" fill="white"/>
<path d="M31.8171 7.61448C29.4495 6.48911 26.8007 5.85938 24.0048 5.85938C19.1274 5.85938 14.6975 7.77581 11.4273 10.8968C7.95044 14.2148 37.971 10.5395 31.8171 7.61448Z" fill="#FCC397"/>
<path d="M38.2596 12.7116C38.2804 12.7376 36.7735 14.7516 32.2446 15.3234C23.1032 16.4775 7.40899 16.5995 7.43264 16.5475C8.40351 14.4142 9.7737 12.501 11.4477 10.9034C13.4201 11.5193 15.567 11.6727 17.5977 11.2985C20.9508 10.6851 23.934 8.74763 27.2506 7.95807C28.7228 7.6044 30.3267 7.5011 31.8373 7.62109C34.3473 8.81412 36.5414 10.5642 38.2596 12.7116Z" fill="#FC9F95"/>
<path d="M41.9946 21.2357C42.0062 21.3092 21.3808 23.2479 11.3316 22.6828C8.0575 22.4987 6.12525 20.5191 6.14741 20.4111C6.42356 19.0642 6.84834 17.7714 7.40385 16.5508C10.3071 14.9617 13.7228 14.0446 17.0348 14.0808C21.1883 14.1233 25.2629 15.5081 29.4163 15.4048C32.5008 15.3264 35.6098 14.3419 38.2308 12.7148C40.1623 15.1288 41.4926 18.0447 41.9946 21.2357Z" fill="#F77C88"/>
<path d="M42.1591 23.9871C42.1591 24.0881 42.1567 24.2894 42.1567 24.2894C42.1567 24.2894 36.428 25.7343 29.0501 25.6481C18.7163 25.5274 5.71849 23.8605 5.71875 23.83C5.72896 22.6211 5.85691 21.4402 6.09169 20.2983C8.56751 21.826 11.5701 22.5742 14.46 22.2592C16.758 22.0102 18.9408 21.1599 21.0691 20.255C23.1973 19.35 25.3135 18.3783 27.563 17.856C30.8675 17.0907 34.4025 17.3579 37.5615 18.603C39.0983 19.209 40.6232 20.0803 41.9366 21.131C42.0831 22.0615 42.1591 23.0154 42.1591 23.9871Z" fill="#F25192"/>
<path d="M21.4961 29.9086C16.0295 30.9181 6.64817 29.7538 6.62453 29.6818C6.03672 27.8917 5.71875 25.9793 5.71875 23.9926C5.71875 23.9401 5.71897 23.8877 5.71941 23.8353C6.54928 23.1773 7.51863 22.5905 8.46491 22.1346C10.8054 20.9989 13.4612 20.5251 16.0502 20.7802C18.609 21.0353 21.0525 21.9828 23.4173 23.0031C25.4095 23.8628 27.3889 24.7914 29.4569 25.433C29.6594 25.4959 27.5135 28.7974 21.4961 29.9086Z" fill="#D34CA3"/>
<path d="M41.5244 28.9013C41.1427 29.546 37.5123 31.7177 32.5912 32.0896C26.0753 32.582 18.3778 30.6124 20.9312 29.6101C24.9513 28.031 28.4377 25.1947 32.5912 24.0103C35.6939 23.1215 39.1334 23.262 42.1793 24.3361C42.1536 25.9148 41.9272 27.4447 41.5244 28.9013Z" fill="#9A50A5"/>
<path d="M39.8331 33.0803C36.6869 38.5426 13.8683 39.9124 10.5349 36.2381C8.83803 34.3677 7.52455 32.1431 6.71851 29.6885C9.52073 28.0869 12.801 27.4066 15.954 27.8378C20.0347 28.3966 23.6909 30.6742 27.717 31.5609C30.967 32.2776 34.411 32.0529 37.5397 30.9232C38.954 30.4086 40.3564 29.7189 41.5965 28.8663C41.1846 30.3563 40.588 31.7697 39.8331 33.0803Z" fill="#59569E"/>
<path d="M39.7581 33.0039C36.6185 38.4913 30.7071 42.1891 23.932 42.1891C18.5792 42.1891 13.7654 39.8808 10.4319 36.2053C10.9851 36.4168 11.6038 36.5996 12.1709 36.7594C15.342 37.634 18.7557 37.6097 21.9087 36.6804C23.9278 36.0852 25.8256 35.1377 27.8084 34.4211C31.5918 33.0568 35.7562 32.5763 39.7581 33.0039Z" fill="#39477F"/>
</g>
</svg>
