<svg width="48" height="48" viewBox="0 0 48 48" fill="none" xmlns="http://www.w3.org/2000/svg">
<path d="M37.7297 31.5732C32.7742 29.1737 31.9845 25.4689 31.9493 25.1941C31.9068 24.8612 31.8585 24.5995 32.2256 24.2609C32.5797 23.9338 34.1503 22.9614 34.586 22.6572C35.3063 22.1534 35.6235 21.6504 35.3897 21.0321C35.2262 20.6044 34.828 20.4433 34.4086 20.4433C34.2763 20.4437 34.1444 20.4585 34.0154 20.4875C33.2239 20.6592 32.4554 21.0559 32.0106 21.163C31.9572 21.1768 31.9023 21.1842 31.8471 21.1851C31.61 21.1851 31.5201 21.0796 31.543 20.7941C31.5986 19.9289 31.7163 18.2401 31.5798 16.6625C31.3925 14.4919 30.6927 13.4165 29.8628 12.4653C29.4614 12.0041 27.5973 10.0225 23.9999 10.0225C20.4025 10.0225 18.5408 12.0041 18.1419 12.4596C17.3096 13.4107 16.6105 14.4862 16.4249 16.6567C16.2884 18.2343 16.411 19.9223 16.4617 20.7884C16.4781 21.0599 16.3947 21.1793 16.1576 21.1793C16.1024 21.1784 16.0475 21.171 15.994 21.1573C15.5501 21.0501 14.7816 20.6535 13.9901 20.4817C13.861 20.4528 13.7292 20.438 13.5969 20.4376C13.1758 20.4376 12.7793 20.6011 12.6158 21.0264C12.3819 21.6447 12.6975 22.1477 13.4203 22.6514C13.8561 22.9557 15.4266 23.9273 15.7807 24.2552C16.1469 24.5938 16.0995 24.8555 16.057 25.1884C16.0218 25.4672 15.2312 29.172 10.2766 31.5675C9.9864 31.7081 9.49258 32.0058 10.3633 32.4867C11.7303 33.2424 12.6403 33.1614 13.3475 33.617C13.9476 34.0038 13.5928 34.838 14.0294 35.1389C14.5657 35.5094 16.151 35.1128 18.1991 35.7891C19.916 36.3551 20.9593 37.9539 24.004 37.9539C27.0487 37.9539 28.1222 36.3477 29.8089 35.7891C31.8528 35.1128 33.4414 35.5094 33.9786 35.1389C34.4143 34.838 34.0603 34.0038 34.6604 33.617C35.3676 33.1614 36.2768 33.2424 37.6446 32.4867C38.5137 32.0116 38.0199 31.7139 37.7297 31.5732Z" fill="white"/>
<path d="M39.8855 31.2904C39.6631 30.6852 39.2396 30.3614 38.7572 30.0931C38.6665 30.04 38.5831 29.9974 38.5119 29.9647C38.368 29.8903 38.2209 29.8183 38.0745 29.7423C36.571 28.9449 35.3969 27.9389 34.5826 26.7465C34.3513 26.4109 34.1508 26.055 33.9833 25.6834C33.9138 25.4846 33.9171 25.3718 33.967 25.2687C34.0164 25.1893 34.0818 25.1211 34.1591 25.0683C34.4174 24.8974 34.684 24.724 34.8647 24.6071C35.1868 24.3985 35.4419 24.2333 35.6062 24.1164C36.2235 23.6846 36.6552 23.2258 36.925 22.713C37.1132 22.3587 37.223 21.968 37.2468 21.5675C37.2707 21.167 37.208 20.7661 37.0632 20.392C36.6544 19.3157 35.6381 18.6475 34.4068 18.6475C34.1471 18.6473 33.8881 18.6747 33.6342 18.7293C33.5663 18.744 33.4985 18.7596 33.4322 18.7767C33.4437 18.0407 33.4273 17.2638 33.3619 16.4991C33.1297 13.8109 32.1887 12.4017 31.2076 11.278C30.5793 10.5739 29.8393 9.97814 29.0173 9.51478C27.5284 8.66424 25.8401 8.23242 23.9997 8.23242C22.1593 8.23242 20.4792 8.66424 18.9887 9.51478C18.1647 9.97828 17.4232 10.5752 16.7943 11.2813C15.8132 12.405 14.8722 13.8166 14.64 16.5024C14.5745 17.267 14.5582 18.0481 14.5688 18.78C14.5026 18.7628 14.4356 18.7473 14.3677 18.7326C14.1138 18.678 13.8548 18.6506 13.5951 18.6508C12.363 18.6508 11.3451 19.319 10.9379 20.3952C10.7924 20.7695 10.7291 21.1708 10.7524 21.5717C10.7757 21.9726 10.8849 22.3638 11.0728 22.7187C11.3434 23.2315 11.7751 23.6903 12.3924 24.1221C12.5559 24.2366 12.8118 24.4018 13.134 24.6128C13.3081 24.7257 13.5624 24.8909 13.8117 25.0561C13.899 25.1125 13.9731 25.187 14.0292 25.2744C14.0815 25.3816 14.0832 25.4969 14.0055 25.7095C13.8403 26.0734 13.643 26.4218 13.416 26.7506C12.6197 27.916 11.48 28.904 10.0247 29.6948C9.25368 30.1037 8.45244 30.3769 8.11396 31.297C7.85887 31.9913 8.02566 32.7813 8.67401 33.447C8.91196 33.6955 9.18794 33.9045 9.4916 34.0662C10.1234 34.4135 10.7953 34.6824 11.4922 34.8668C11.6361 34.9039 11.7726 34.965 11.8961 35.0476C12.1324 35.2545 12.0989 35.5661 12.4137 36.0224C12.5717 36.2583 12.7724 36.4624 13.0056 36.6243C13.6662 37.0807 14.4086 37.1093 15.1951 37.1396C15.9056 37.1666 16.7109 37.1976 17.6307 37.5011C18.0117 37.627 18.4074 37.8707 18.8661 38.1553C19.9674 38.8325 21.475 39.7591 23.9981 39.7591C26.5212 39.7591 28.0394 38.8276 29.1489 38.148C29.6043 37.8683 29.9976 37.627 30.3679 37.5043C31.2877 37.2001 32.093 37.1698 32.8035 37.1428C33.59 37.1126 34.3324 37.084 34.993 36.6276C35.2691 36.435 35.4992 36.1836 35.6667 35.8916C35.8932 35.5064 35.8875 35.2373 36.1 35.0492C36.2159 34.9706 36.3441 34.912 36.4794 34.8758C37.1859 34.6908 37.8669 34.4194 38.507 34.0678C38.8296 33.8947 39.12 33.6672 39.3655 33.3955L39.3737 33.3857C39.982 32.7347 40.1348 31.9676 39.8855 31.2904ZM37.6428 32.4959C36.275 33.2516 35.3658 33.1706 34.6586 33.6262C34.0577 34.013 34.4134 34.8472 33.9768 35.1481C33.4404 35.5186 31.8551 35.122 29.8071 35.7983C28.1179 36.3569 27.0403 37.9631 24.0022 37.9631C20.964 37.9631 19.9118 36.3602 18.1948 35.7942C16.1509 35.1179 14.5623 35.5145 14.0251 35.1441C13.5894 34.8431 13.9434 34.0089 13.3433 33.6221C12.6352 33.1665 11.7261 33.2475 10.3591 32.4959C9.48833 32.015 9.98215 31.7173 10.2724 31.5767C15.227 29.1771 16.0176 25.4724 16.0528 25.1976C16.0953 24.8647 16.1427 24.603 15.7764 24.2644C15.4224 23.9373 13.8518 22.9649 13.416 22.6606C12.6949 22.1569 12.3777 21.6539 12.6115 21.0356C12.775 20.6079 13.174 20.4468 13.5926 20.4468C13.7249 20.4472 13.8568 20.462 13.9859 20.4909C14.7773 20.6627 15.5458 21.0593 15.9898 21.1665C16.0433 21.1802 16.0981 21.1876 16.1533 21.1885C16.3904 21.1885 16.4738 21.0691 16.4575 20.7976C16.4068 19.9315 16.2841 18.2435 16.4207 16.6659C16.6079 14.4954 17.3069 13.4199 18.1376 12.4688C18.5366 12.0116 20.4113 10.03 23.9964 10.03C27.5816 10.03 29.4612 12.0035 29.8602 12.459C30.6917 13.4101 31.3915 14.4856 31.5771 16.6561C31.7137 18.2337 31.5959 19.9225 31.5403 20.7878C31.5215 21.0732 31.6074 21.1787 31.8445 21.1787C31.8997 21.1778 31.9546 21.1704 32.008 21.1566C32.4528 21.0495 33.2213 20.6529 34.0127 20.4811C34.1418 20.4522 34.2737 20.4374 34.406 20.437C34.8271 20.437 35.2236 20.6005 35.3871 21.0258C35.6209 21.6441 35.3053 22.147 34.5834 22.6508C34.1476 22.9551 32.577 23.9266 32.223 24.2546C31.8559 24.5932 31.9042 24.8549 31.9467 25.1877C31.9818 25.4666 32.7716 29.1714 37.727 31.5669C38.0197 31.7132 38.5136 32.0109 37.6428 32.4959Z" fill="black"/>
</svg>
