<svg width="48" height="48" viewBox="0 0 48 48" fill="none" xmlns="http://www.w3.org/2000/svg">
<path d="M24.0002 0C10.747 0 0 11.0169 0 24.6076C0 35.4799 6.87679 44.7039 16.4128 47.9577C17.6123 48.1855 18.0526 47.4239 18.0526 46.7739C18.0526 46.1872 18.0304 44.2487 18.02 42.1925C11.3431 43.6811 9.93424 39.2891 9.93424 39.2891C8.84249 36.4448 7.26945 35.6885 7.26945 35.6885C5.09191 34.1613 7.43359 34.1926 7.43359 34.1926C9.84363 34.3662 11.1126 36.7285 11.1126 36.7285C13.2532 40.4904 16.7272 39.4028 18.0967 38.7741C18.3121 37.1836 18.9341 36.0981 19.6205 35.4836C14.2897 34.8613 8.6859 32.7513 8.6859 23.3224C8.6859 20.6358 9.62345 18.4406 11.1587 16.7174C10.9095 16.0976 10.088 13.5947 11.3912 10.2052C11.3912 10.2052 13.4066 9.54386 17.993 12.7276C19.9074 12.1824 21.9606 11.9089 24.0002 11.8996C26.0398 11.9089 28.0946 12.1824 30.0126 12.7276C34.5934 9.54386 36.606 10.2052 36.606 10.2052C37.9124 13.5947 37.0905 16.0976 36.8413 16.7174C38.3801 18.4406 39.3113 20.6358 39.3113 23.3224C39.3113 32.7737 33.6968 34.8548 28.3525 35.464C29.2133 36.2276 29.9804 37.7252 29.9804 40.021C29.9804 43.3135 29.9526 45.9634 29.9526 46.7739C29.9526 47.4288 30.3846 48.1961 31.6011 47.9544C41.132 44.697 48 35.4762 48 24.6076C48 11.0169 37.2546 0 24.0002 0" fill="#ffffff"/>
<path d="M9.16085 35.1622C9.10809 35.2832 8.92085 35.3195 8.75027 35.2364C8.57652 35.1569 8.47893 34.9919 8.53526 34.8705C8.58683 34.7458 8.77447 34.7111 8.94782 34.7946C9.12197 34.8741 9.22115 35.0407 9.16085 35.1622Z" fill="#ffffff"/>
<path d="M10.1312 36.2628C10.0169 36.3706 9.79358 36.3205 9.64204 36.1503C9.48534 35.9804 9.45599 35.7533 9.57182 35.6439C9.68964 35.5362 9.90624 35.5866 10.0633 35.7565C10.22 35.9284 10.2506 36.1539 10.1312 36.2628Z" fill="#ffffff"/>
<path d="M11.0757 37.6661C10.9289 37.7698 10.6889 37.6726 10.5406 37.4559C10.3938 37.2393 10.3938 36.9794 10.5437 36.8753C10.6925 36.7712 10.9289 36.8648 11.0793 37.0799C11.2256 37.3002 11.2256 37.56 11.0757 37.6661Z" fill="#ffffff"/>
<path d="M12.3697 39.0218C12.2384 39.1691 11.9587 39.1295 11.754 38.9286C11.5446 38.7321 11.4863 38.4533 11.618 38.306C11.7509 38.1584 12.0321 38.1999 12.2384 38.3992C12.4463 38.5953 12.5097 38.8761 12.3697 39.0218Z" fill="#ffffff"/>
<path d="M14.1548 39.809C14.0969 39.9998 13.8276 40.0866 13.5562 40.0055C13.2853 39.9219 13.108 39.6984 13.1627 39.5056C13.219 39.3135 13.4896 39.2231 13.7629 39.3099C14.0334 39.393 14.2112 39.6149 14.1548 39.809Z" fill="#ffffff"/>
<path d="M16.1153 39.955C16.122 40.156 15.892 40.3226 15.6071 40.3262C15.3207 40.3327 15.089 40.1701 15.0859 39.9724C15.0859 39.7694 15.3108 39.6044 15.5972 39.5996C15.882 39.5939 16.1153 39.7553 16.1153 39.955Z" fill="#ffffff"/>
<path d="M17.9397 39.6391C17.9738 39.8352 17.7759 40.0365 17.493 40.0902C17.2149 40.1418 16.9575 40.0208 16.9222 39.8263C16.8877 39.6254 17.0892 39.4241 17.3669 39.372C17.6501 39.322 17.9036 39.4398 17.9397 39.6391Z" fill="#ffffff"/>
</svg>
