<svg width="48" height="48" viewBox="0 0 48 48" fill="none" xmlns="http://www.w3.org/2000/svg">
<path d="M23.9999 40.5808L30.6285 20.1802H17.3713L23.9999 40.5808Z" fill="#E24329"/>
<path d="M24 40.5808L17.3714 20.1802H8.08154L24 40.5808Z" fill="#FC6D26"/>
<path d="M8.08158 20.1802L6.06727 26.3797C5.88354 26.9452 6.08477 27.5646 6.56579 27.9141L24 40.5808L8.08158 20.1802Z" fill="#FCA326"/>
<path d="M8.08154 20.1802H17.3714L13.3789 7.89312C13.1736 7.2608 12.2791 7.26097 12.0738 7.89312L8.08154 20.1802Z" fill="#E24329"/>
<path d="M24 40.5808L30.6286 20.1802H39.9184L24 40.5808Z" fill="#FC6D26"/>
<path d="M39.9184 20.1802L41.9327 26.3797C42.1165 26.9452 41.9152 27.5646 41.4342 27.9141L24 40.5808L39.9184 20.1802Z" fill="#FCA326"/>
<path d="M39.9184 20.1802H30.6285L34.621 7.89312C34.8263 7.2608 35.7208 7.26097 35.9261 7.89312L39.9184 20.1802Z" fill="#E24329"/>
</svg>
