<svg width="48" height="48" viewBox="0 0 48 48" fill="none" xmlns="http://www.w3.org/2000/svg">
<path d="M8.45455 37.1314H14.1818V23.2223L6 17.0859V34.6768C6 36.033 7.09841 37.1314 8.45455 37.1314Z" fill="#4285F4"/>
<path d="M33.8182 37.1314H39.5455C40.9016 37.1314 42 36.033 42 34.6768V17.0859L33.8182 23.2223V37.1314Z" fill="#34A853"/>
<path d="M33.8182 12.5862V23.2225L42 17.0862V13.8134C42 10.78 38.537 9.04752 36.1091 10.868L33.8182 12.5862Z" fill="#FBBC04"/>
<path fill-rule="evenodd" clip-rule="evenodd" d="M14.1818 23.2223V12.5859L24 19.9496L33.8182 12.5859V23.2223L24 30.5859L14.1818 23.2223Z" fill="#EA4335"/>
<path d="M6 13.8134V17.0862L14.1818 23.2225V12.5862L11.8909 10.868C9.46296 9.04752 6 10.78 6 13.8134Z" fill="#C5221F"/>
</svg>
