<svg width="48" height="48" viewBox="0 0 48 48" fill="none" xmlns="http://www.w3.org/2000/svg">
<path d="M24 42C33.9411 42 42 33.9411 42 24C42 14.0589 33.9411 6 24 6C14.0589 6 6 14.0589 6 24C6 33.9411 14.0589 42 24 42Z" fill="#FF4500"/>
<path d="M35.9742 24.1714C35.9742 22.7122 34.7942 21.5534 33.3562 21.5534C32.6482 21.5534 32.0042 21.8322 31.5322 22.283C29.7298 20.9954 27.2618 20.1586 24.515 20.0514L25.7166 14.429L29.6222 15.2658C29.6654 16.253 30.4806 17.047 31.4894 17.047C32.5194 17.047 33.3562 16.2102 33.3562 15.1798C33.3562 14.1498 32.5194 13.313 31.4894 13.313C30.7598 13.313 30.1158 13.7422 29.8154 14.3646L25.4594 13.4418C25.3306 13.4202 25.2018 13.4418 25.1158 13.5062C25.0086 13.5706 24.9442 13.6778 24.923 13.8066L23.5922 20.0726C20.8026 20.1586 18.2918 20.9954 16.4678 22.3046C15.9958 21.8538 15.3518 21.575 14.6438 21.575C13.1846 21.575 12.0258 22.755 12.0258 24.193C12.0258 25.2658 12.6694 26.167 13.571 26.575C13.5278 26.8322 13.5066 27.0898 13.5066 27.369C13.5066 31.403 18.2062 34.6866 24.0002 34.6866C29.7942 34.6866 34.4938 31.4246 34.4938 27.369C34.4938 27.1114 34.4722 26.8322 34.4294 26.575C35.3306 26.167 35.9742 25.2442 35.9742 24.1714ZM17.9914 26.0382C17.9914 25.0082 18.8282 24.1714 19.8586 24.1714C20.8886 24.1714 21.7254 25.0082 21.7254 26.0382C21.7254 27.0682 20.8886 27.9054 19.8586 27.9054C18.8282 27.9266 17.9914 27.0682 17.9914 26.0382ZM28.4422 30.9954C27.1546 32.283 24.7082 32.369 24.0002 32.369C23.2706 32.369 20.8242 32.2614 19.5578 30.9954C19.365 30.8022 19.365 30.5018 19.5578 30.3086C19.751 30.1158 20.0514 30.1158 20.2446 30.3086C21.0602 31.1242 22.777 31.403 24.0002 31.403C25.2234 31.403 26.9614 31.1242 27.7554 30.3086C27.9486 30.1158 28.249 30.1158 28.4422 30.3086C28.6138 30.5018 28.6138 30.8022 28.4422 30.9954ZM28.0986 27.9266C27.0686 27.9266 26.2318 27.0898 26.2318 26.0598C26.2318 25.0298 27.0686 24.193 28.0986 24.193C29.129 24.193 29.9658 25.0298 29.9658 26.0598C29.9658 27.0682 29.129 27.9266 28.0986 27.9266Z" fill="white"/>
</svg>
