<svg width="48" height="48" viewBox="0 0 48 48" fill="none" xmlns="http://www.w3.org/2000/svg">
<path d="M38.3931 14.2266V16.4174H29.435V14.2266H38.3931ZM31.4337 31.0084C32.0939 31.6386 33.0393 31.9537 34.2547 31.9537C35.14 31.9537 35.9053 31.7436 36.5505 31.2935C37.1957 30.8583 37.5708 30.3782 37.7209 29.883H41.6072C41.007 31.8036 40.0317 33.1841 38.7562 34.0094C37.4808 34.8497 35.9353 35.2548 34.1346 35.2548C32.8892 35.2548 31.7638 35.0598 30.7285 34.6546C29.7231 34.2495 28.8678 33.6793 28.1476 32.944C27.4574 32.2088 26.9172 31.3235 26.527 30.2881C26.1519 29.2528 25.9718 28.1124 25.9718 26.882C25.9718 25.6665 26.1669 24.5712 26.5721 23.5358C26.9772 22.4854 27.5474 21.6151 28.2526 20.8499C29.0029 20.0846 29.8582 19.4994 30.8635 19.0493C31.8689 18.5991 32.9642 18.404 34.1947 18.404C35.5601 18.404 36.7305 18.6441 37.7659 19.1843C38.7712 19.6945 39.5965 20.4147 40.2567 21.285C40.917 22.1703 41.3821 23.1757 41.6672 24.3161C41.9523 25.4415 42.0424 26.6269 41.9823 27.8873H30.4434C30.4434 29.1477 30.8635 30.3481 31.5087 30.9934L31.4337 31.0084ZM36.4709 22.589C35.9458 22.0188 35.0605 21.7037 33.9801 21.7037C33.2899 21.7037 32.7047 21.8087 32.2395 22.0638C31.7743 22.2889 31.4142 22.589 31.1291 22.9491C30.844 23.3092 30.649 23.6694 30.5289 24.0745C30.4239 24.4646 30.3488 24.8247 30.3338 25.1399H37.4763C37.3713 24.0145 36.9811 23.1892 36.4709 22.604V22.589ZM16.4136 12.7456C17.4639 12.7456 18.4243 12.8356 19.2946 13.0307C20.1649 13.2258 20.9001 13.5259 21.5153 13.946C22.1305 14.3662 22.6257 14.9214 22.9558 15.6266C23.3009 16.3318 23.466 17.2021 23.466 18.2225C23.466 19.3329 23.2109 20.2632 22.7157 21.0134C22.2056 21.7637 21.4553 22.3639 20.45 22.8441C21.8154 23.2342 22.8208 23.9244 23.496 24.8998C24.1562 25.8901 24.4863 27.0755 24.4863 28.441C24.4863 29.5664 24.2913 30.5267 23.8711 31.337C23.451 32.1623 22.8658 32.8375 22.1305 33.3627C21.4103 33.8879 20.555 34.263 19.6247 34.5181C18.7094 34.7582 17.749 34.8932 16.7587 34.8932H6V12.7606H16.4136V12.7456ZM15.7834 21.6707C16.6386 21.6707 17.3589 21.4756 17.9291 21.0555C18.4843 20.6503 18.7544 19.9751 18.7544 19.0448C18.7544 18.5346 18.6493 18.0994 18.4843 17.7693C18.2892 17.4392 18.0341 17.1841 17.734 17.0041C17.4189 16.824 17.0588 16.689 16.6537 16.6139C16.2485 16.5389 15.8134 16.5089 15.3932 16.5089H10.8467V21.6707H15.7834ZM10.8617 25.0138V31.0909H16.0534V31.0759C16.5336 31.0759 16.9838 31.0309 17.4189 30.9258C17.8541 30.8358 18.2292 30.6858 18.5593 30.4757C18.8744 30.2806 19.1445 29.9955 19.3396 29.6054C19.5346 29.2453 19.6247 28.7501 19.6247 28.1649C19.6247 27.0395 19.2946 26.2292 18.6643 25.7341C18.0191 25.2539 17.1788 25.0138 16.1285 25.0138H10.8617Z" fill="#1769FF"/>
</svg>
