<svg width="48" height="48" viewBox="0 0 48 48" fill="none" xmlns="http://www.w3.org/2000/svg">
<path d="M8.34783 25.1112L6 17.1286L13.3565 6.6416L27.6 25.1112H8.34783Z" fill="#468BCC"/>
<path d="M6 17.1286L13.3565 6.6416L24 9.92856L27.6 25.1112L6 17.1286Z" fill="#4BA8FF"/>
<path d="M13.3566 6.6416L24 9.92856L34.6435 6.6416L27.6 25.1112L13.3566 6.6416Z" fill="#468BCC"/>
<path d="M24 9.92856L34.6435 6.6416L42 17.1286L27.6 25.1112L24 9.92856Z" fill="#468BCC"/>
<path d="M34.6435 6.6416L42 17.1286L39.6521 25.1112H27.6L34.6435 6.6416Z" fill="#4BA8FF"/>
<path d="M42 17.1284L39.6522 25.111L24 38.8849L27.6 25.111L42 17.1284Z" fill="#468BCC"/>
<path d="M39.6521 25.1113L24 38.8852L8.34778 25.1113H27.6H39.6521Z" fill="#468BCC"/>
<path d="M24 38.8849L8.34783 25.111L6 17.1284L27.6 25.111L24 38.8849Z" fill="#468BCC"/>
<path d="M8.34783 25.111L6 17.1284L27.6 25.111H8.34783Z" fill="#468BCC"/>
<path d="M16.9566 29.0244L19.6174 30.7462L15.3914 34.0331L16.9566 29.0244Z" fill="white"/>
<path d="M16.8371 28.9869L15.2718 33.9956C15.2352 34.1126 15.3714 34.2071 15.4682 34.1317L19.6943 30.8448C19.7624 30.7919 19.7578 30.6876 19.6855 30.6408L17.0246 28.9191C16.9551 28.8741 16.8618 28.9078 16.8371 28.9869ZM17.0269 29.2189L19.4014 30.7553L15.6301 33.6885L17.0269 29.2189Z" fill="#082744"/>
<path d="M31.0434 29.0244L28.3826 30.7462L32.6087 34.0331L31.0434 29.0244Z" fill="white"/>
<path d="M30.9755 28.9191L28.3146 30.6408C28.2423 30.6876 28.2378 30.7919 28.3058 30.8448L32.5319 34.1317C32.6287 34.2071 32.7649 34.1126 32.7283 33.9956L31.1631 28.9869C31.1383 28.9078 31.0451 28.8741 30.9755 28.9191ZM30.9732 29.2189L32.3699 33.6885L28.5987 30.7553L30.9732 29.2189Z" fill="#082744"/>
<path d="M15.3914 15.2503L20.5566 8.86426H27.4435L24.0001 19.946L15.3914 15.2503Z" fill="#4BA8FF"/>
<path d="M20.5565 8.86426H27.4435L32.6087 15.2503L24 19.946L20.5565 8.86426Z" fill="#468BCC"/>
<path d="M27.4435 8.86426L32.6087 15.2503V28.5547L24 19.946L27.4435 8.86426Z" fill="#166EBF"/>
<path d="M32.6087 15.2505V28.5548L27.4435 31.9983L24 19.9461L32.6087 15.2505Z" fill="#0B457F"/>
<path d="M32.6087 28.5545L27.4435 31.998L24 41.2328V19.9458L32.6087 28.5545Z" fill="#0C3861"/>
<path d="M27.4435 31.998V39.511L24 41.2328L20.5565 31.998L24 19.9458L27.4435 31.998Z" fill="#166EBF"/>
<path d="M24.0001 41.2328L20.5566 39.511V31.998L15.3914 28.5545L24.0001 19.9458V41.2328Z" fill="#4BA8FF"/>
<path d="M20.5566 31.9983L15.3914 28.5548V15.2505L24.0001 19.9461L20.5566 31.9983Z" fill="#166EBF"/>
<path d="M15.3914 28.5548V15.2505L24.0001 19.9461L15.3914 28.5548Z" fill="#468BCC"/>
<path d="M27.4435 8.73877H20.5565C20.5187 8.73877 20.483 8.75585 20.4592 8.78524L15.294 15.1713C15.2759 15.1936 15.2661 15.2214 15.2661 15.2501V28.5544L15.2663 28.5618C15.2686 28.6008 15.2891 28.6368 15.3219 28.6586L20.4313 32.0649V39.5109C20.4313 39.5584 20.4581 39.6017 20.5005 39.6229L23.944 41.3447C23.9793 41.3623 24.0208 41.3623 24.056 41.3447L27.4995 39.6229L27.5055 39.6198C27.5444 39.5976 27.5687 39.5561 27.5687 39.5109V32.0649L32.6782 28.6586C32.713 28.6354 32.7339 28.5963 32.7339 28.5544V15.2501C32.7339 15.2214 32.7241 15.1936 32.7061 15.1713L27.5409 8.78524C27.5171 8.75585 27.4813 8.73877 27.4435 8.73877ZM27.3837 8.9892L32.4835 15.2944V28.4874L27.374 31.8937L27.368 31.898C27.3368 31.9215 27.3183 31.9585 27.3183 31.9979V39.4336L24 41.0927L20.6818 39.4336V31.9979L20.6816 31.9905C20.6793 31.9515 20.6588 31.9156 20.626 31.8937L15.5165 28.4874V15.2944L20.6163 8.9892H27.3837Z" fill="#082744"/>
<path d="M17.2695 18.8501L21.3391 20.1023L17.2695 21.6675V18.8501Z" fill="white"/>
<path d="M30.7305 18.8501L26.6609 20.1023L30.7305 21.6675V18.8501Z" fill="white"/>
</svg>
