<svg width="48" height="48" viewBox="0 0 48 48" fill="none" xmlns="http://www.w3.org/2000/svg">
<path fill-rule="evenodd" clip-rule="evenodd" d="M12.89 39.5173H35.1894V8.51562H12.89V39.5173Z" fill="#121119"/>
<path fill-rule="evenodd" clip-rule="evenodd" d="M12.8888 40.4445H8.4444V7.55566H12.8888V40.4445Z" fill="#00FF99"/>
<path fill-rule="evenodd" clip-rule="evenodd" d="M35.1111 40.4443H39.5555V16.4443H35.1111V40.4443Z" fill="#9933FF"/>
<path fill-rule="evenodd" clip-rule="evenodd" d="M39.5555 44.0001H8.4444V39.5557H39.5555V44.0001Z" fill="#00CCFF"/>
<path fill-rule="evenodd" clip-rule="evenodd" d="M8.4444 8.44444H26.2222V4H8.4444V8.44444Z" fill="#FFF35C"/>
<path fill-rule="evenodd" clip-rule="evenodd" d="M35.1111 12.8889V8.44444H30.6667V4H26.2222V8.47289V8.47955V12.9107V12.9173V17.3333H30.6716H35.1053H39.5556V12.8889H35.1111" fill="#FF6666"/>
<path d="M26.2222 8.44444H21.772L26.2222 4V8.44444" fill="#9F983D"/>
<path d="M35.1111 21.8137V17.3335H39.5498L35.1111 21.8137Z" fill="#62259F"/>
</svg>
