<svg width="48" height="48" viewBox="0 0 48 48" fill="none" xmlns="http://www.w3.org/2000/svg">
<path d="M19.9873 21.6957L14.4683 24.0001L6.03796 19.1393L10.8987 10.8608L19.2532 15.7216L19.9873 21.6957ZM28.1198 26.3371L28.8228 32.2786L37.1772 37.1393L41.962 28.8608L33.5316 24.0001L28.1198 26.3371Z" fill="#00B3E3"/>
<path d="M24.0381 28.4812L28.8229 32.2785V42H19.2533V32.2785L24.0381 28.4812ZM28.8229 15.7215V6H19.2533V15.7215L24.0381 19.5675L28.8229 15.7215Z" fill="#FFC843"/>
<path d="M28.1198 21.9054L28.8228 15.7216L37.1772 10.8608L41.962 19.1393L33.5316 24.0001L28.1198 21.9054ZM14.4683 24.0001L6.03796 28.8608L10.8228 37.1393L19.2532 32.2786L20.6474 26.326L14.4683 24.0001Z" fill="#FF4338"/>
<path d="M28.8226 21.2656L33.5314 23.9998L28.8226 26.734L27.8963 23.9998L28.8226 21.2656ZM19.253 21.2656L14.4681 23.9998L19.253 26.734L20.3165 23.9998L19.253 21.2656Z" fill="#002F32"/>
<path d="M24.0381 18.4559L28.8229 15.7217V21.266L25.6657 20.7121L24.0381 18.4559ZM19.2533 26.7343V32.2786L24.0381 29.5445L22.3622 26.9489L19.2533 26.7343Z" fill="#FF350F"/>
<path d="M28.8229 26.7343V32.2786L24.0381 29.5445L25.9605 27.4394L28.8229 26.7343ZM24.0381 18.4559L19.2533 15.7217V21.266L22.3926 20.7497L24.0381 18.4559Z" fill="#008C3C"/>
<path d="M24.0381 18.4556L19.2533 21.2657V26.734L24.0381 29.5442L28.8229 26.734V21.2657L24.0381 18.4556Z" fill="#00250D"/>
</svg>
