<svg width="220" height="70" viewBox="0 0 220 70" fill="none" xmlns="http://www.w3.org/2000/svg">
<g clip-path="url(#clip0_3447_2)">
<path fill-rule="evenodd" clip-rule="evenodd" d="M28.7872 3.40532L42.6893 0C42.6893 0 65.9415 59.1893 66.7957 60.8744C68.4785 64.6285 72.2548 67.0297 76.368 66.9595V68.0244H47.967V66.9595C48.2127 66.9595 54.9883 66.8308 54.9883 62.618C54.9883 58.8465 47.8412 41.4168 47.318 40.1407C47.3006 40.0983 47.2905 40.0737 47.2883 40.0681L18.934 46.984C18.9 47.0669 18.8633 47.1562 18.8241 47.2515C17.5283 50.4032 13.5042 60.1908 13.5042 62.7351C13.5042 67.0532 21.766 66.9595 21.766 66.9595V68.0478H0V66.9829C0.11279 66.9707 0.236052 66.9594 0.368761 66.9471C2.27384 66.7709 6.12579 66.4147 8.89362 60.9446C9.35557 60.0447 14.0804 49.3612 19.2869 37.5883C24.2361 26.3974 29.6206 14.2222 32.1925 8.53085C33.3042 5.89787 29.1734 4.4351 28.6819 4.4351V3.40532H28.7872ZM20.1276 44.0702L46.3053 37.6808H46.2936C46.2936 37.6808 35.5042 10.9064 34.9074 9.51383C34.5096 10.3564 20.2681 43.7308 20.1276 44.0702ZM212.429 59.6808V0L198.386 3.41702H198.293V4.73936C198.784 4.73936 203.032 5.90957 203.032 8.8351V59.4702C203.032 65.8595 198.515 66.784 195.461 66.9829V68.0478H220V66.9829C216.957 66.784 212.534 65.8478 212.429 59.6808ZM111.311 57.5978C108.97 62.068 93.0086 67.5563 83.5766 57.1297C82.0296 55.3276 80.8746 53.2235 80.183 50.951C79.3697 48.3742 78.9742 45.6838 79.0128 42.9818C78.9953 40.4588 79.3662 37.9487 80.1128 35.5393C80.774 33.3615 81.7862 31.3066 83.1086 29.4542C84.294 27.7609 85.8153 26.3309 87.5788 25.2531C89.2966 24.2268 91.2649 23.6921 93.266 23.7084C96.0593 23.7084 98.1025 24.489 99.3979 26.0489C100.732 27.7351 101.421 29.8439 101.34 31.9935C101.369 33.1099 101.202 34.2228 100.849 35.2818L110.796 32.9414C107.18 23.5797 95.1969 22.2808 92.9852 22.2808C74.0043 21.9765 63.5894 39.834 69.7213 54.3797C73.4988 63.1387 82.1244 68.8751 91.6628 68.9722C95.6158 69.0518 99.5302 68.1765 103.072 66.4212C106.576 64.6916 109.6 62.123 111.872 58.9435L111.311 57.5978ZM169.786 57.118C168.344 55.4493 167.247 53.5126 166.556 51.4191L166.369 50.8925L166.182 50.2489L166.065 49.851L165.878 49.1138L165.784 48.6808C165.69 48.2712 165.608 47.8383 165.538 47.4053C165.524 47.2485 165.501 47.0917 165.468 46.9372L165.374 46.1766C165.393 46.0092 165.393 45.8407 165.374 45.6734L165.316 45.0297L198.082 37.1308C197.89 35.434 197.386 33.7875 196.596 32.2744C195.381 29.6286 193.404 27.4028 190.92 25.8851C188.168 24.145 185.076 23.011 181.851 22.5617L181.301 22.4798C179.356 22.2644 177.395 22.2644 175.45 22.4798C170.292 23.0379 165.446 25.2368 161.63 28.7521C157.862 32.1808 155.341 36.7692 154.468 41.7883V41.9872C154.41 42.3148 154.363 42.6308 154.328 42.9936C154.314 43.1291 154.311 43.2205 154.308 43.2941C154.304 43.4174 154.301 43.4906 154.257 43.6372C154.273 43.8162 154.273 43.9964 154.257 44.1755C154.281 44.4868 154.281 44.8004 154.257 45.1117V46.6212C154.333 49.3314 154.904 52.0042 155.942 54.5085C159.716 63.2616 168.34 68.991 177.872 69.0776C181.825 69.1572 185.74 68.2819 189.282 66.5265C192.785 64.7958 195.809 62.2272 198.082 59.0489L197.52 57.6329C195.203 62.0563 179.218 67.5563 169.786 57.118ZM184.695 37.6808L165.211 42.3617C165.211 41.7766 165.211 41.1914 165.292 40.6414V40.4659C165.283 40.2787 165.283 40.0914 165.292 39.9042L165.386 39.1436C165.563 37.9266 165.837 36.7247 166.205 35.551C166.866 33.3733 167.879 31.3184 169.201 29.4659C170.407 27.7598 171.958 26.3239 173.753 25.2532C175.471 24.2257 177.439 23.6921 179.44 23.7085C182.234 23.7085 184.277 24.489 185.572 26.0489C186.044 26.5931 186.437 27.1992 186.742 27.851C188.041 31.1627 187.948 36.6744 184.695 37.6808ZM126.734 57.1298C136.166 67.5564 152.128 62.0681 154.468 57.5979L155.077 59.0138C152.804 62.1921 149.78 64.7607 146.277 66.4915C142.727 68.2515 138.805 69.1256 134.844 69.0425C125.294 68.936 116.668 63.1728 112.914 54.3915C106.782 39.8457 117.197 21.9883 136.178 22.2926C138.366 22.2926 150.349 23.5798 153.941 32.9415L144.053 35.2819C144.416 34.2252 144.587 33.1112 144.556 31.9936C144.628 29.8404 143.926 27.7305 142.579 26.0489C141.276 24.4891 139.232 23.7085 136.447 23.7085C134.446 23.6921 132.477 24.2258 130.76 25.2532C128.994 26.3473 127.472 27.7937 126.289 29.5011C124.971 31.3535 123.963 33.4096 123.305 35.5862C122.559 37.9956 122.188 40.5057 122.205 43.0287C122.167 45.7307 122.562 48.4211 123.376 50.9979C124.06 53.2517 125.203 55.3394 126.734 57.1298Z" fill="white"/>
</g>
<defs>
<clipPath id="clip0_3447_2">
<rect width="220" height="70" fill="white"/>
</clipPath>
</defs>
</svg>
