<svg width="262" height="52" viewBox="0 0 262 52" fill="none" xmlns="http://www.w3.org/2000/svg">
<path fill-rule="evenodd" clip-rule="evenodd" d="M59.8 52L29.9 0L0 52H59.8ZM89.957 49.633L114.945 2.363H104.137L86.9 36.694L69.663 2.362H58.855L83.842 49.632L89.957 49.633ZM260.248 2.363V49.633H251.3V2.363H260.248ZM210.441 31.99C210.441 28.306 211.21 25.066 212.747 22.27C214.284 19.474 216.428 17.3213 219.179 15.812C221.928 14.3027 225.144 13.548 228.826 13.548C232.088 13.548 235.024 14.258 237.634 15.678C240.243 17.0993 242.317 19.208 243.855 22.004C245.393 24.8 246.185 28.2173 246.232 32.256V34.32H219.878C220.064 37.25 220.926 39.558 222.464 41.244C224.049 42.886 226.169 43.7073 228.826 43.708C230.46 43.72 232.063 43.2572 233.439 42.376C234.817 41.5119 235.911 40.2617 236.585 38.781L245.743 39.447C244.624 42.775 242.527 45.438 239.451 47.436C236.375 49.434 232.833 50.4327 228.826 50.432C225.144 50.432 221.928 49.6773 219.179 48.168C216.43 46.6587 214.286 44.506 212.747 41.71C211.21 38.914 210.441 35.674 210.441 31.99ZM237.005 28.661C236.678 25.7757 235.769 23.6677 234.278 22.337C232.787 20.961 230.969 20.273 228.826 20.273C226.356 20.273 224.352 21.0053 222.814 22.47C221.276 23.9347 220.321 25.9983 219.948 28.661H237.005ZM195.345 22.337C196.836 23.535 197.768 25.1993 198.141 27.33L207.369 26.864C207.042 24.156 206.087 21.8037 204.503 19.807C202.918 17.809 200.868 16.2777 198.351 15.213C195.881 14.103 193.155 13.548 190.172 13.548C186.491 13.548 183.275 14.3027 180.525 15.812C177.776 17.3213 175.632 19.474 174.094 22.27C172.556 25.066 171.787 28.306 171.787 31.99C171.787 35.674 172.556 38.914 174.094 41.71C175.632 44.506 177.776 46.6587 180.525 48.168C183.275 49.678 186.491 50.4327 190.172 50.432C193.248 50.432 196.044 49.877 198.561 48.767C201.077 47.613 203.127 45.993 204.712 43.907C206.297 41.821 207.252 39.38 207.578 36.584L198.281 36.184C197.954 38.5367 197.046 40.3567 195.555 41.644C194.063 42.886 192.269 43.5073 190.172 43.508C187.283 43.508 185.046 42.5093 183.461 40.512C181.876 38.5147 181.084 35.674 181.084 31.99C181.084 28.306 181.876 25.4653 183.461 23.468C185.046 21.4707 187.283 20.472 190.172 20.472C192.176 20.472 193.9 21.0943 195.345 22.337ZM149.953 14.345H158.28L158.52 21.136C159.111 19.214 159.933 17.7213 160.986 16.658C162.513 15.116 164.64 14.345 167.369 14.345H170.769V21.614H167.3C165.357 21.614 163.761 21.8783 162.512 22.407C161.334 22.9128 160.358 23.7958 159.737 24.917C159.135 26.063 158.834 27.517 158.835 29.279V49.632H149.953V14.345ZM111.546 22.269C110.008 25.065 109.239 28.305 109.239 31.989C109.239 35.673 110.008 38.913 111.546 41.709C113.084 44.505 115.228 46.6577 117.977 48.167C120.727 49.677 123.943 50.4317 127.624 50.431C131.632 50.431 135.174 49.4323 138.25 47.435C141.326 45.4377 143.423 42.7743 144.541 39.445L135.384 38.78C134.71 40.2607 133.616 41.5109 132.238 42.375C130.861 43.2564 129.259 43.7192 127.624 43.707C124.968 43.707 122.848 42.8857 121.263 41.243C119.725 39.557 118.863 37.249 118.676 34.319H145.03V32.255C144.984 28.2163 144.192 24.799 142.654 22.003C141.116 19.207 139.042 17.0987 136.432 15.678C133.822 14.2573 130.886 13.5473 127.624 13.548C123.942 13.548 120.726 14.3023 117.977 15.811C115.228 17.3197 113.084 19.4723 111.546 22.269ZM133.077 22.336C134.568 23.6673 135.477 25.7753 135.803 28.66H118.746C119.119 25.9967 120.075 23.933 121.612 22.469C123.15 21.0043 125.154 20.272 127.624 20.272C129.767 20.272 131.585 20.96 133.077 22.336Z" fill="white"/>
</svg>
