<svg width="381" height="38" viewBox="0 0 381 38" fill="none" xmlns="http://www.w3.org/2000/svg">
<g clip-path="url(#clip0_3447_8)">
<path fill-rule="evenodd" clip-rule="evenodd" d="M194.47 2.61901C191.25 1.07762 187.748 0.213131 184.181 0.0790073C179.164 -0.0489927 174.401 2.11101 171.098 6.04901C167.605 9.98601 165.763 15.13 165.89 20.402C165.692 24.9839 167.313 29.4582 170.4 32.85C173.385 36.089 177.64 37.803 182.022 37.676C185.833 37.486 189.58 36.596 193.009 34.946C194.11 34.482 194.999 34.098 195.677 33.806C196.485 33.456 196.994 33.236 197.201 33.167C197.707 33.0409 198.169 32.7772 198.535 32.405C198.789 32.024 198.916 31.643 198.852 31.198C198.852 30.951 198.825 30.624 198.789 30.181C198.77 29.941 198.747 29.669 198.725 29.357C198.662 28.785 198.662 28.213 198.662 27.642C198.535 26.118 198.789 24.657 199.233 23.196C199.614 22.306 200.376 21.672 201.329 21.545C201.964 21.418 202.282 21.164 202.282 20.719C202.282 20.274 201.964 20.021 201.329 20.021C201.112 20.041 200.891 20.0577 200.664 20.071C200.226 20.099 199.779 20.127 199.36 20.211C197.709 20.3377 196.058 20.401 194.406 20.401C192.247 20.401 190.278 20.275 188.563 20.148C188.119 20.084 187.801 20.084 187.611 20.084C186.976 20.084 186.658 20.338 186.658 20.846C186.658 21.291 186.912 21.545 187.484 21.608C189.023 21.5535 190.532 22.0491 191.739 23.006C192.628 24.276 193.073 25.863 192.882 27.388C192.945 28.7538 192.816 30.1217 192.501 31.452C192.247 32.214 191.739 32.977 191.04 33.422C189.961 34.056 188.818 34.501 187.611 34.819C186.404 35.199 185.197 35.39 183.927 35.454C180.688 35.454 177.957 33.739 175.734 30.309C173.448 26.499 172.305 22.053 172.432 17.607C172.245 13.6057 173.384 9.65447 175.671 6.36601C177.64 3.57101 180.879 2.04701 184.245 2.11101C187.865 2.04701 191.421 3.63501 193.835 6.36601C195.55 8.01701 196.756 10.176 197.201 12.526C197.328 13.225 197.582 13.606 197.963 13.606C198.535 13.606 198.789 13.352 198.789 12.78V12.336C198.762 12.0826 198.742 11.8285 198.728 11.574C198.716 11.3193 198.694 11.0651 198.662 10.812L198.598 8.90601L198.725 5.28601V3.44401C198.725 2.80934 198.471 2.49201 197.963 2.49201C197.845 2.48615 197.727 2.50581 197.618 2.54965C197.508 2.59348 197.409 2.66046 197.328 2.74601L197.01 3.00001C196.883 3.19001 196.629 3.25401 196.375 3.25401C195.714 3.12869 195.074 2.91511 194.47 2.61901ZM217.524 34.056C216.699 33.676 216.317 31.834 216.317 28.531L216.381 5.66701C216.381 3.31701 217.27 2.11101 219.048 1.98401C219.811 1.98401 220.192 1.73001 220.192 1.28501C220.192 0.777007 219.683 0.523007 218.604 0.523007C217.207 0.523007 215.809 0.586341 214.412 0.713007C213.015 0.904007 211.681 0.967007 210.347 1.03101C209.839 1.03101 209.014 0.967007 207.934 0.841007L206.791 0.777007L206.46 0.727007C206.181 0.684007 205.961 0.650007 205.775 0.650007C205.648 0.650007 205.521 0.634007 205.394 0.618007C205.268 0.59925 205.141 0.588562 205.013 0.586007H204.822C204.441 0.650007 204.187 1.03101 204.251 1.41201C204.251 1.85701 204.632 2.11101 205.267 2.23801L206.854 2.49201C209.204 2.87201 210.347 4.46101 210.347 7.25501V29.23C210.475 30.754 210.22 32.278 209.712 33.675C209.475 34.1322 209.143 34.5332 208.737 34.851C208.332 35.1687 207.864 35.3958 207.363 35.517C206.918 35.644 206.664 35.898 206.664 36.216C206.664 36.66 206.918 36.914 207.426 36.914C207.595 36.914 207.878 36.886 208.254 36.848C208.443 36.8287 208.654 36.8087 208.887 36.788C211.08 36.5351 213.285 36.4076 215.492 36.406C216.699 36.406 217.842 36.406 218.794 36.47L221.652 36.597L224.828 36.787C225.257 36.8103 225.638 36.832 225.971 36.852C226.574 36.888 227.018 36.914 227.305 36.914C229.337 36.978 231.306 36.089 232.576 34.564C233.973 32.914 234.735 30.817 234.735 28.594C234.735 27.896 234.545 27.514 234.227 27.514C234.037 27.514 233.529 28.023 232.767 29.103C230.29 32.596 226.098 34.373 220.128 34.373C219.239 34.437 218.35 34.373 217.524 34.056ZM269.539 4.77801C265.899 1.52897 261.14 -0.178854 256.265 0.0150073C253.407 0.0150073 250.549 0.523007 247.882 1.66601C243.119 3.44401 239.499 7.25501 237.847 12.018C237.022 14.305 236.577 16.718 236.577 19.131C236.48 21.5876 236.886 24.038 237.771 26.3317C238.656 28.6255 240 30.714 241.722 32.469C245.405 35.899 250.359 37.739 255.376 37.486C261.346 37.486 266.046 35.517 269.412 31.706C272.905 27.769 274.747 22.625 274.62 17.353C274.81 12.653 272.969 8.08101 269.539 4.77801ZM246.104 5.92101C248.009 3.31701 251.121 1.85701 254.36 1.98401C257.536 1.92001 260.648 3.19001 262.934 5.47701C264.712 7.25501 266.11 9.41401 266.935 11.764C267.951 14.304 268.459 17.036 268.459 19.83C268.647 23.891 267.51 27.9029 265.22 31.262C263.252 33.992 260.013 35.581 256.583 35.517C254.661 35.5108 252.769 35.0326 251.075 34.1245C249.381 33.2165 247.936 31.9063 246.866 30.309C244.198 26.309 242.928 21.609 243.119 16.845C243.119 12.209 244.135 8.52501 246.104 5.92101ZM278.685 2.49101C281.543 2.87301 283.003 4.77801 283.003 8.33501V30.182C283.003 33.485 281.924 35.263 279.828 35.644C279.383 35.771 279.129 36.025 279.129 36.406C279.129 36.851 279.447 37.105 279.955 37.105C280.463 37.105 281.034 37.041 281.606 36.978C283.892 36.724 286.179 36.66 288.465 36.66L292.593 36.724L297.928 36.851C301.358 37.041 304.724 35.961 307.391 33.802C308.546 32.769 309.459 31.4929 310.063 30.0655C310.667 28.6381 310.947 27.0947 310.884 25.546C310.946 23.4752 310.271 21.4497 308.979 19.83C307.632 18.2958 305.789 17.2841 303.771 16.972C303.072 16.845 302.755 16.654 302.755 16.337C302.818 16.147 303.136 15.892 303.771 15.638C306.439 14.622 308.153 12.018 307.963 9.16001C308.026 6.62001 306.756 4.14301 304.597 2.74601C301.929 1.03101 298.754 0.206007 295.578 0.332007C294.118 0.332007 292.403 0.459007 290.307 0.650007C286.941 0.967007 284.655 1.09501 283.384 1.09501C283.137 1.09501 282.712 1.07501 282.099 1.04601C281.612 1.02334 281.003 0.997007 280.272 0.967007L278.303 0.840007H277.668C277.16 0.840007 276.906 1.09434 276.906 1.60301C276.906 2.04701 277.097 2.30101 277.478 2.36501L278.685 2.49101ZM289.037 13.606V6.04801C288.91 4.96801 289.227 3.88901 289.926 3.00001C290.815 2.36501 291.958 2.11001 293.101 2.23801C295.515 2.11101 297.928 3.00001 299.706 4.65101C301.358 6.30201 302.31 8.65201 302.183 11.002C302.183 14.242 300.659 16.019 297.674 16.401L296.023 16.464L292.403 16.401C291.45 16.464 290.561 16.273 289.799 15.765C289.227 15.194 288.973 14.432 289.037 13.606ZM289.037 27.959V23.577C288.973 22.18 289.1 20.719 289.545 19.322C289.862 18.75 290.688 18.432 291.958 18.432C294.372 18.432 296.849 18.687 299.198 19.259C302.882 20.211 304.724 22.751 304.724 26.879C304.724 28.785 304.152 30.69 303.009 32.279C301.612 34.119 299.071 35.009 295.324 35.009C291.514 35.009 289.481 33.739 289.291 31.199L289.1 28.975L289.037 27.959ZM345.116 31.262L333.113 3.69801L332.541 2.36501C331.843 0.904007 331.335 0.142007 331.081 0.142007C330.89 0.142007 330.509 0.840007 329.937 2.17401V2.11101L328.667 4.58801L326.19 9.60501C325.936 10.113 325.555 11.002 324.984 12.335L317.807 28.912C317.108 30.627 316.283 32.342 315.266 33.929C314.695 34.691 313.869 35.327 312.98 35.581C312.472 35.771 312.218 36.025 312.218 36.406C312.218 36.851 312.472 37.041 312.98 37.041C313.298 37.041 314.123 36.978 315.521 36.851C317.362 36.661 318.696 36.597 319.522 36.597C320.566 36.661 321.605 36.7879 322.634 36.977C323.078 37.041 323.523 37.105 323.967 37.105C324.539 37.105 324.857 36.851 324.92 36.406C324.984 35.962 324.602 35.708 323.967 35.644C320.855 35.263 319.331 33.993 319.331 31.77C319.331 31.135 319.458 30.563 319.712 29.992L320.538 27.959C321.363 25.927 322.126 24.784 322.761 24.466L325.111 24.022H328.54C330.509 23.958 332.541 24.022 334.574 24.276C335.145 24.466 335.653 25.038 336.161 26.054C337.241 28.0879 338.011 30.2711 338.448 32.532C338.448 33.294 338.13 33.992 337.622 34.564C337.059 35.1925 336.334 35.654 335.526 35.898C335.145 36.0247 334.955 36.2153 334.955 36.47V36.66C335.018 37.041 335.336 37.295 335.717 37.232C335.971 37.232 336.225 37.168 336.415 37.105C338.448 36.724 340.48 36.597 342.576 36.66C344.735 36.597 346.958 36.724 349.117 37.105C349.435 37.168 349.816 37.232 350.134 37.232C350.578 37.232 350.769 37.042 350.769 36.533C350.769 36.089 350.642 35.835 350.324 35.771C349.187 35.5715 348.117 35.0913 347.212 34.374C346.323 33.484 345.561 32.469 345.116 31.262ZM330.699 12.082L334.129 20.148L334.256 20.402C334.32 20.529 334.383 20.719 334.383 20.846C334.383 21.227 334.002 21.418 333.367 21.418H325.619C324.348 21.418 323.713 21.1 323.713 20.528C323.713 20.275 323.777 20.021 323.904 19.83L324.221 19.195L327.27 12.145L327.778 11.065C328.35 9.85901 328.731 9.22401 328.921 9.22401C329.302 9.22401 329.874 10.177 330.699 12.082ZM363.852 34.056C363.026 33.676 362.645 31.834 362.645 28.531L362.582 5.66701C362.582 3.31701 363.471 2.11101 365.249 1.98401C366.011 1.98401 366.392 1.73001 366.392 1.28501C366.392 0.777007 365.884 0.523007 364.804 0.523007C363.405 0.52257 362.006 0.585969 360.613 0.713007C358.771 0.904007 357.374 1.03101 356.548 1.03101C356.04 1.03101 355.214 0.967007 354.135 0.841007L352.992 0.777007L352.66 0.727007C352.381 0.684007 352.161 0.650007 351.975 0.650007C351.848 0.650007 351.721 0.634007 351.594 0.618007C351.468 0.59925 351.341 0.588562 351.213 0.586007H351.023C350.642 0.650007 350.388 1.03101 350.451 1.41201C350.451 1.85701 350.769 2.11101 351.467 2.23801L353.055 2.49201C355.405 2.87201 356.548 4.46101 356.548 7.25501V29.23C356.612 30.754 356.421 32.278 355.913 33.675C355.676 34.1323 355.343 34.5334 354.938 34.8511C354.533 35.1689 354.064 35.396 353.563 35.517C353.119 35.644 352.865 35.898 352.865 36.216C352.865 36.66 353.119 36.914 353.627 36.914C353.796 36.914 354.078 36.886 354.455 36.848C354.644 36.8287 354.854 36.8087 355.087 36.788C357.28 36.5351 359.485 36.4076 361.692 36.406C362.899 36.406 364.042 36.406 364.995 36.47L367.853 36.597L371.028 36.787C371.513 36.8123 371.935 36.8357 372.293 36.857C372.874 36.89 373.294 36.914 373.569 36.914C375.601 36.978 377.57 36.089 378.84 34.564C380.237 32.914 381 30.817 381 28.594C381 27.896 380.809 27.514 380.491 27.514C380.301 27.514 379.793 28.023 379.031 29.103C376.554 32.596 372.362 34.373 366.392 34.373C365.567 34.437 364.677 34.373 363.852 34.056ZM20.515 26.943V7.06401C20.515 5.41401 20.832 4.39701 21.531 4.14301C23.182 3.57101 24.834 3.38101 26.548 3.50801C28.1473 3.38676 29.7449 3.76406 31.121 4.58801C32.264 5.47701 32.963 6.74701 33.217 8.14401C33.344 8.84301 33.661 9.16001 34.042 9.16001C34.487 9.16001 34.742 8.84301 34.742 8.27101C34.742 7.57301 34.678 6.81101 34.551 6.04801C34.495 5.54601 34.439 5.12901 34.394 4.79301C34.336 4.36501 34.297 4.06701 34.297 3.88901L34.17 1.98401C34.106 1.15801 33.598 0.777007 32.645 0.777007C32.391 0.777007 31.756 0.777007 30.867 0.840007C26.231 1.03101 21.849 1.15801 17.72 1.15801L11.306 1.09501L5.907 1.03101C4.637 1.03101 3.685 1.03101 2.986 0.967007C2.605 0.904007 2.287 0.904007 2.097 0.904007H1.97C1.462 0.904007 1.017 1.34901 1.017 1.92001L0.827 3.50801L0.509 5.85801L0.255 8.14401C0.128 8.77901 0.065 9.47801 0.001 10.177C0.001 10.748 0.255 11.002 0.827 11.002C1.207 11.002 1.525 10.622 1.716 9.92201L1.906 9.16001C2.224 7.89001 2.605 6.68301 3.176 5.54001C3.621 4.90501 4.256 4.46001 5.018 4.20701C7.305 3.57101 9.782 3.31701 12.195 3.44401C13.655 3.44401 14.418 4.14301 14.418 5.54001V30.373C14.4904 31.6979 14.0848 33.0048 13.275 34.056C12.449 34.946 11.305 35.517 10.099 35.517C9.782 35.517 9.4 35.644 9.083 35.771C8.893 35.961 8.829 36.279 8.829 36.533C8.829 36.978 9.083 37.232 9.655 37.232C9.812 37.232 10.017 37.208 10.301 37.174C10.477 37.154 10.682 37.129 10.925 37.104L16.768 36.787C17.53 36.724 18.483 36.724 19.498 36.724H20.578L23.881 36.914L25.85 36.978H26.485C27.056 36.978 27.31 36.724 27.31 36.343C27.31 35.771 26.9927 35.4533 26.358 35.39C24.579 35.454 22.928 34.628 21.785 33.294C20.7727 31.339 20.3325 29.137 20.515 26.943ZM47.38 31.263L47.19 28.595L47.126 6.24001C46.999 5.22401 47.189 4.20801 47.634 3.25501C48.269 2.62001 49.158 2.23901 50.047 2.17501C50.237 2.17501 50.492 2.04801 50.682 1.92101C50.809 1.73101 50.809 1.54101 50.809 1.28601C50.809 0.841007 50.492 0.651007 49.92 0.651007C48.904 0.651007 47.5067 0.714341 45.728 0.841007L43.823 0.968007C42.363 1.09601 41.093 1.15901 40.139 1.15901C39.059 1.22301 38.044 1.15901 36.964 0.969007C36.519 0.905007 36.074 0.841007 35.567 0.778007C35.122 0.714007 34.932 0.968007 34.932 1.47701C34.932 1.79401 35.059 2.04801 35.312 2.17501C35.884 2.36567 36.456 2.49267 37.028 2.55601C38.2029 2.61768 39.3123 3.1159 40.139 3.95301C40.775 4.97001 41.092 6.17601 40.965 7.38301V30.69C41.029 31.833 40.838 32.977 40.33 33.993C39.6951 34.8155 38.7994 35.3977 37.79 35.644L37.028 36.279L37.091 36.469C37.154 36.851 37.472 37.041 37.853 37.041C38.488 36.978 39.123 36.914 39.758 36.787C41.156 36.597 42.553 36.533 43.95 36.533C45.855 36.533 47.697 36.66 49.539 36.914L50.111 36.956C50.733 37.003 51.241 37.041 51.635 37.041C52.7783 37.041 53.35 36.787 53.35 36.279C53.35 35.708 52.968 35.454 52.08 35.454C50.9217 35.5168 49.7839 35.1299 48.904 34.374C48.078 33.548 47.507 32.469 47.38 31.262M84.025 2.61901C80.786 1.09501 77.293 0.205007 73.736 0.0790073C68.783 -0.0499927 64.02 2.11001 60.653 6.04801C57.16 9.98501 55.318 15.129 55.445 20.401C55.2471 24.9829 56.8682 29.4572 59.955 32.849C62.94 36.088 67.195 37.802 71.577 37.675C75.387 37.485 79.135 36.595 82.564 34.945C83.664 34.481 84.554 34.097 85.232 33.805C86.041 33.455 86.549 33.235 86.756 33.166C87.2624 33.0399 87.7241 32.7762 88.09 32.404C88.344 32.023 88.47 31.642 88.407 31.197C88.407 30.95 88.381 30.622 88.344 30.18C88.324 29.9413 88.3027 29.6667 88.28 29.356C88.217 28.784 88.217 28.212 88.217 27.641C88.1525 26.1373 88.3456 24.6336 88.788 23.195C89.169 22.305 89.932 21.671 90.884 21.544C91.519 21.417 91.837 21.163 91.837 20.718C91.837 20.273 91.519 20.02 90.884 20.02C90.6667 20.04 90.445 20.0567 90.219 20.07C89.781 20.098 89.335 20.126 88.915 20.21C87.2667 20.3363 85.6141 20.3997 83.961 20.4C81.802 20.4 79.833 20.274 78.119 20.147C77.674 20.083 77.356 20.083 77.166 20.083C76.5307 20.083 76.213 20.337 76.213 20.845C76.213 21.29 76.467 21.544 77.039 21.607C78.5784 21.5525 80.0869 22.0481 81.294 23.005C82.184 24.275 82.628 25.862 82.437 27.387C82.4999 28.7528 82.372 30.1206 82.057 31.451C81.802 32.213 81.294 32.976 80.595 33.421C79.579 34.055 78.436 34.5 77.23 34.818C76.023 35.198 74.816 35.389 73.546 35.453C70.306 35.453 67.575 33.738 65.353 30.308C63.067 26.498 61.923 22.052 62.051 17.606C61.8644 13.605 63.0029 9.65419 65.29 6.36601C66.2519 4.99926 67.5398 3.89426 69.0369 3.15123C70.5339 2.4082 72.1928 2.05065 73.863 2.11101C77.483 2.04701 81.04 3.63501 83.453 6.36601C85.168 8.01701 86.311 10.176 86.82 12.526C86.947 13.225 87.2 13.606 87.582 13.606C88.153 13.606 88.407 13.352 88.407 12.78V12.336C88.3382 12.0009 88.2924 11.6614 88.27 11.32C88.2571 11.1502 88.2395 10.9808 88.217 10.812L88.153 8.90601L88.28 5.28601V3.44401C88.28 2.80934 88.026 2.49201 87.518 2.49201C87.4001 2.48615 87.2823 2.50581 87.1728 2.54965C87.0632 2.59348 86.9643 2.66046 86.883 2.74601L86.566 3.00001C86.439 3.19001 86.184 3.25401 85.93 3.25401C85.2694 3.12869 84.6287 2.91511 84.025 2.61901ZM105.873 12.526V6.81001L106 5.79401C106 4.27001 106.444 3.38101 107.333 3.12701L109.112 2.93701H112.351C114.446 2.74601 116.606 3.19001 118.511 4.08001C119.781 4.90501 120.543 6.36601 120.416 7.89001C120.416 8.65201 120.607 9.03301 120.925 9.03301C121.623 9.03301 121.941 8.33501 121.941 7.00101C121.941 6.36601 121.877 5.22301 121.75 3.69801C121.623 2.68201 121.56 1.92001 121.56 1.53901C121.56 0.968007 121.306 0.649007 120.798 0.649007H120.416C119.083 0.840007 115.59 0.904007 109.81 0.904007L99.84 0.777007L97.171 0.650007H95.901C95.456 0.586007 95.202 0.586007 95.075 0.586007C94.503 0.586007 94.185 0.840007 94.185 1.22201C94.185 1.66601 94.503 1.98401 94.885 1.98401C96.3376 2.04349 97.7356 2.55377 98.885 3.44401C99.6365 4.63589 99.9717 6.04332 99.838 7.44601V28.276C99.838 29.547 99.775 30.817 99.521 32.087C99.457 32.913 99.139 33.675 98.695 34.374C98.123 34.946 97.425 35.327 96.663 35.581C96.281 35.771 96.0903 36.025 96.091 36.343V36.406C96.155 36.724 96.472 36.978 96.79 36.914C97.107 36.914 97.615 36.914 98.314 36.851C100.918 36.661 102.887 36.597 104.157 36.597C106.062 36.597 107.586 36.6603 108.73 36.787L111.778 37.041C113.048 37.168 114.255 37.231 115.525 37.231C117.117 37.2872 118.702 36.9837 120.161 36.343C121.427 35.7128 122.453 34.6869 123.083 33.421C123.972 31.897 124.48 30.182 124.48 28.404C124.48 28.214 124.353 27.959 124.226 27.832C124.099 27.705 123.909 27.578 123.718 27.642C123.654 27.642 123.527 27.769 123.4 27.959C121.241 32.342 116.541 34.501 109.428 34.501C108.094 34.691 106.761 33.802 106.507 32.469C106.062 30.7272 105.87 28.9305 105.935 27.134V24.784C105.935 23.3867 105.999 21.9893 106.126 20.592C106.189 20.021 106.38 19.512 106.761 19.068C107.275 18.7562 107.878 18.6223 108.476 18.687H110.254C111.46 18.687 112.731 18.75 113.937 18.877C114.509 19.004 115.144 19.259 115.589 19.703C116.478 20.656 117.049 21.863 117.176 23.133C117.303 23.831 117.557 24.213 118.002 24.149C118.085 24.1512 118.168 24.1354 118.245 24.1026C118.322 24.0698 118.391 24.0208 118.447 23.959C118.51 23.768 118.51 23.641 118.51 23.45L118.447 22.116C118.447 21.1 118.447 19.894 118.32 18.56C118.129 16.528 118.066 15.194 118.066 14.622C118.066 14.305 118.066 13.924 118.129 13.479C118.193 12.844 118.193 12.463 118.193 12.336C118.193 11.891 118.002 11.637 117.621 11.637C117.458 11.6369 117.299 11.6852 117.163 11.7756C117.027 11.866 116.922 11.9945 116.859 12.145L116.224 13.415C115.589 15.067 113.937 16.21 112.159 16.273H107.967C107.078 16.273 106.507 16.083 106.253 15.638C105.934 14.6333 105.806 13.578 105.873 12.526ZM138.643 33.294C137.822 31.1286 137.496 28.8068 137.69 26.499L137.817 21.164C137.817 20.465 137.944 20.021 138.198 19.894L139.405 19.703H141.056C142.072 19.576 143.152 19.893 144.041 20.465C145.057 21.545 145.82 22.815 146.391 24.149C148.042 27.769 150.011 31.135 152.361 34.247C153.568 35.835 155.41 36.851 157.378 36.914C158.712 36.914 159.982 36.534 161.189 35.962C162.65 35.327 163.348 34.755 163.348 34.247C163.348 33.802 163.158 33.612 162.84 33.612C162.65 33.612 162.459 33.612 162.269 33.675C161.888 33.802 161.507 33.802 161.126 33.802C160.173 33.802 159.22 33.485 158.522 32.85C157.505 31.897 156.68 30.754 156.045 29.484L153.314 24.657L150.964 20.465C150.804 20.1803 150.664 19.9397 150.543 19.743C150.445 19.5846 150.353 19.4232 150.265 19.259C150.138 19.068 150.075 18.877 150.011 18.623C150.011 18.433 150.202 18.243 150.519 18.115C152.107 17.48 153.504 16.337 154.52 14.876C155.476 13.4718 155.985 11.8116 155.981 10.113C156.045 7.44601 154.774 4.90501 152.679 3.25301C150.329 1.41301 147.344 0.396007 144.359 0.523007C143.216 0.523007 141.183 0.586007 138.198 0.840007C135.658 1.03101 133.499 1.15801 131.72 1.15801C130.26 1.22201 128.735 1.09501 127.275 0.968007C126.957 0.904007 126.64 0.904007 126.322 0.904007H126.131C125.75 0.968007 125.496 1.28501 125.56 1.66601C125.56 2.11101 125.941 2.42801 126.639 2.55601C128.227 2.61901 129.815 3.38101 130.831 4.65101C131.53 5.98501 131.784 7.44601 131.657 8.90601V27.96L131.593 28.977V31.453C131.659 32.4547 131.415 33.4523 130.895 34.311C130.26 35.01 129.37 35.581 128.418 35.772C128.1 35.899 127.846 36.217 127.91 36.534C127.91 36.979 128.227 37.233 128.862 37.233C129.053 37.233 129.37 37.233 129.878 37.169L131.657 37.042L133.88 36.852C134.916 36.773 135.953 36.7306 136.992 36.725C138.389 36.725 139.85 36.7883 141.374 36.915C141.882 36.979 142.263 36.979 142.454 36.979C143.025 36.979 143.343 36.725 143.343 36.217C143.343 35.709 143.025 35.391 142.263 35.327C141.536 35.3271 140.821 35.1402 140.187 34.7843C139.553 34.4285 139.022 33.9146 138.643 33.294ZM137.69 15.068V5.92001C137.573 4.96357 137.798 3.99647 138.325 3.19001C139.024 2.61801 139.913 2.30001 140.802 2.42701H141.437C146.391 2.55401 150.202 6.68201 150.075 11.573C150.202 13.415 149.503 15.193 148.169 16.4C147.598 16.9659 146.866 17.3428 146.074 17.48C144.105 17.67 142.199 17.733 140.231 17.67C139.469 17.797 138.77 17.606 138.135 17.225C137.771 16.567 137.615 15.8135 137.69 15.065" fill="white"/>
</g>
<defs>
<clipPath id="clip0_3447_8">
<rect width="381" height="38" fill="white"/>
</clipPath>
</defs>
</svg>
