<svg width="340" height="45" viewBox="0 0 340 45" fill="none" xmlns="http://www.w3.org/2000/svg">
<g clip-path="url(#clip0_3447_11)">
<path fill-rule="evenodd" clip-rule="evenodd" d="M268.257 0C275.678 0 280.173 1.147 284.882 3.019V13.493H283.669L278.104 4.528C275.821 2.475 273.18 1.391 268.828 1.391C260.266 1.391 253.63 8.029 253.63 21.914C253.63 33.867 258.624 42.738 269.256 42.738C272.752 42.738 275.892 41.715 278.175 39.844L283.74 30.274H284.882V40.75C278.959 42.742 274.821 43.708 267.329 44.312C253.202 44.312 241.001 37.249 241.001 23.182C241.001 9.177 251.347 1.511 268.257 0.002M213.039 0.002C227.786 0.002 237.45 8.755 237.45 21.372C237.45 34.17 229.289 41.354 211.463 44.312C196.788 44.312 187.124 35.559 187.124 22.942C187.124 10.144 195.285 2.96 213.039 0.002ZM308.693 1.028V1.994L304.401 2.722V24.507L328.88 2.72L322.688 1.992V1.026H337.64V1.992L331.13 2.72L306.833 24.327L315.798 22.847L336.709 41.591L340 42.319V43.284H324.477L304.401 25.775V41.347L308.693 42.319V43.284H288.807V42.319L293.314 41.591V3.086L288.807 1.992V1.026L308.693 1.028ZM30.103 1.028C39.343 1.028 44.109 5.616 44.109 10.325C44.109 16.301 37.9 20.407 27.431 20.769C41.077 21.011 46.131 25.84 46.131 31.212C46.131 38.698 39.055 42.744 27.576 43.286H0V42.32L4.548 41.593V6.729L13.96 2.719H4.548L0 1.993V1.027L30.103 1.028ZM88.669 1.028V11.624H87.514L82.027 2.42H67.916L63.357 3.295V20.34H73.87L77.336 13.914H78.563V28.282H77.336L73.87 21.672H63.357V41.892H82.316L87.442 32.265H88.669V43.283H47.618V42.318L52.166 41.59V2.72L47.618 1.992V1.026L88.669 1.028ZM117.165 1.028C132.977 1.028 141.64 8.695 141.64 21.191C141.64 23.114 141.457 24.947 141.085 26.676C139.05 36.13 131.353 42.47 116.949 43.286H93.341V42.32L98.177 41.593V2.72L93.341 1.992V1.026L117.165 1.028ZM169.06 1.028C176.712 1.028 183.86 6.671 183.86 14.036C183.86 21.221 177.858 25.943 164.711 27.802L175.99 29.612L186.893 41.837L189.853 42.32V43.286H175.341L162.995 28.168L157.751 30.856V41.59L161.938 42.317V43.283H142.012V42.318L146.56 41.59V2.964L142.012 1.992V1.026L169.06 1.028ZM210.89 1.876C203.374 1.876 199.795 10.627 199.795 20.769C199.795 33.627 205.593 42.439 213.683 42.439C221.199 42.439 224.708 33.688 224.708 23.546C224.708 10.748 218.98 1.876 210.89 1.876ZM114.855 2.238L109.441 3.597V41.59L115.288 42.073C124.097 42.073 129.727 33.805 129.727 21.43C129.727 10.262 125.395 2.235 114.855 2.235M24.667 21.431H15.739V41.591L20.287 42.074H22.89C29.604 42.074 35.613 37.489 35.613 31.452C35.613 24.752 29.792 21.431 24.667 21.431ZM163.86 2.236L157.75 2.617V29.218C157.75 29.218 171.955 23.504 172.692 14.578C172.879 12.304 172.376 9.946 171.645 8.163C170.068 4.313 166.969 2.278 163.86 2.236ZM24.81 2.236H20.72L15.738 2.72V20.1H24.448C29.141 20.1 33.591 16.18 33.591 10.384C33.591 5.313 29.503 2.237 24.811 2.237" fill="white"/>
</g>
<defs>
<clipPath id="clip0_3447_11">
<rect width="340" height="45" fill="white"/>
</clipPath>
</defs>
</svg>
