<svg width="360" height="42" viewBox="0 0 360 42" fill="none" xmlns="http://www.w3.org/2000/svg">
<g clip-path="url(#clip0_3447_14)">
<path d="M26.014 25.514H21.29V22.624H38.744V25.514H34.63V34.297H37.965C34.408 38.021 27.682 40.522 21.067 40.522C10.395 40.522 0 33.63 0 21.345C0 9.005 10.395 1.056 20.345 1.056C24.458 1.056 27.46 2.223 29.85 3.669L34.63 1.056V15.564C30.74 9.95 26.737 4.17 20.79 4.17C14.397 4.17 9.45 9.84 9.45 19.678C9.45 30.351 16.176 37.244 23.29 37.244C24.291 37.244 25.125 37.133 26.014 36.91V25.514ZM61.29 37.02V39.967H41.892V37.02H47.172V4.558H41.892V1.612H60.68C69.908 1.612 76.634 4.892 76.634 12.118C76.634 17.232 72.576 20.345 67.462 21.734L82.915 39.967H71.797L58.234 22.624H55.954V37.02H61.29ZM55.956 4.558V19.733H58.9C63.513 19.733 67.627 17.676 67.627 12.173C67.627 6.615 63.513 4.558 58.9 4.558H55.956ZM103.862 18.621L109.032 12.285V27.96L103.862 21.567H97.97V37.02H108.476L118.759 25.347L116.425 39.967H83.907V37.02H89.187V4.558H83.907V1.612H112.811L115.813 0V13.897L108.142 4.558H97.97V18.621H103.862ZM141.752 18.621L146.921 12.285V27.96L141.752 21.567H135.86V37.02H146.366L156.649 25.347L154.314 39.967H121.796V37.02H127.077V4.558H121.796V1.612H150.701L153.703 0V13.897L146.032 4.558H135.86V18.621H141.752ZM174.417 39.967H159.408V37.02H164.745V8.171L158.686 1.612H170.414L192.315 25.57V4.558H186.145V1.612H201.154V4.558H195.817V41.69L168.302 12.007V37.02H174.417V39.967ZM244.51 20.79C244.51 32.184 234.727 40.522 224.277 40.522C213.827 40.522 204.099 32.184 204.099 20.789C204.099 9.394 213.827 1.056 224.277 1.056C234.727 1.056 244.51 9.394 244.51 20.79ZM213.549 20.79C213.549 30.85 218.83 37.799 224.277 37.799C229.78 37.799 235.061 30.85 235.061 20.789C235.061 10.729 229.78 3.835 224.277 3.835C218.83 3.835 213.549 10.728 213.549 20.789M259.122 1.612H268.571L283.246 37.02H287.415V39.967H267.015V37.02H273.852L269.405 26.348H256.509L252.118 37.02H258.955V39.967H244.503V37.02H248.727L261.345 7.004L259.122 1.612ZM257.732 23.402H268.182L262.957 10.784L257.732 23.402ZM289.261 1.612H308.66V4.558H303.324V18.51H305.881L320.667 4.558H314.775V1.612H329.894V4.558H324.78L311.884 16.676L330.728 39.966H319.555L303.324 19.177V37.02H308.66V39.967H289.261V37.02H294.542V4.558H289.261V1.612ZM346.048 4.28C342.768 4.28 340.656 6.226 340.656 9.283C340.656 17.565 360 15.397 360 28.015C360 35.242 353.274 40.522 345.047 40.522C340.1 40.522 335.153 38.688 332.596 36.353V25.625C336.153 32.795 340.934 37.465 345.659 37.465C349.216 37.465 352.107 35.464 352.107 31.629C352.107 22.29 333.319 25.236 333.319 12.729C333.319 6.003 339.155 1.056 345.937 1.056C349.216 1.056 352.273 2.39 354.052 3.891L358.388 1.001V14.786C354.553 9.061 350.773 4.28 346.048 4.28Z" fill="white"/>
</g>
<defs>
<clipPath id="clip0_3447_14">
<rect width="360" height="42" fill="white"/>
</clipPath>
</defs>
</svg>
