<svg width="340" height="44" viewBox="0 0 340 44" fill="none" xmlns="http://www.w3.org/2000/svg">
<g clip-path="url(#clip0_3447_17)">
<path fill-rule="evenodd" clip-rule="evenodd" d="M339.999 16.453C339.999 19.39 337.567 21.771 334.568 21.771C331.569 21.771 329.137 19.39 329.137 16.453C329.137 13.515 331.568 11.133 334.568 11.133C337.568 11.133 339.999 13.515 339.999 16.453ZM340 38.183C340 41.121 337.568 43.503 334.568 43.503C331.569 43.503 329.137 41.121 329.137 38.183C329.137 35.246 331.569 32.865 334.568 32.865C337.567 32.865 340 35.245 340 38.183ZM116.659 36.61V43.11H92.397V36.61H100.47V6.52H92.397V0H108.648V36.61H116.659ZM145.76 36.61V43.11H121.498V36.61H129.571V6.52H121.498V0H137.75V36.61H145.76ZM155.523 18.005V43.09H163.66V17.985H174.184V11.486H163.554V9.148C163.554 7.244 164.399 6.395 166.365 6.395H174.184V0H164.991C158.608 0 155.523 3.146 155.523 8.94V11.507H147.788V18.005H155.523ZM193.184 11.135C183.356 11.135 176.72 17.633 176.72 27.319C176.72 37.005 183.356 43.503 193.184 43.503C203.012 43.503 209.71 37.025 209.71 27.319C209.71 17.613 203.074 11.135 193.184 11.135ZM193.184 36.921C188.238 36.921 185.026 32.907 185.026 27.319C185.026 21.731 188.238 17.716 193.184 17.716C198.13 17.716 201.405 21.71 201.405 27.319C201.405 32.927 198.171 36.921 193.184 36.921ZM245.152 11.507H237.036V27.981C237.036 33.714 234.309 36.901 229.872 36.901C225.434 36.901 223.468 33.983 223.468 28.726V11.507H215.331V29.367C215.331 40.171 221.271 43.482 227.822 43.482C232.365 43.482 235.176 41.64 237.226 39.26V43.11H245.152V11.507ZM313.118 0V15.315C311.068 12.852 307.919 11.114 303.501 11.114C294.985 11.114 288.433 17.488 288.433 27.236C288.433 36.983 294.731 43.461 303.333 43.461C308.045 43.461 311.194 41.288 313.287 38.536V43.089H321.212V0H313.118ZM305.023 36.921C299.994 36.921 296.76 32.968 296.76 27.319C296.76 21.67 299.994 17.716 305.023 17.716C310.053 17.716 313.244 21.689 313.244 27.401C313.244 33.113 310.011 36.942 305.023 36.942V36.921ZM0 11.507L10.017 43.11V43.13H19.929L26.333 20.303L32.609 43.13H42.542L52.686 11.507H43.366L37.45 34.231L31.025 11.507H21.663L15.238 34.231L9.32 11.507H0ZM87.557 29.161C87.704 28.188 87.768 27.029 87.768 26.284C87.683 16.992 81.301 11.114 71.897 11.114C62.493 11.114 55.772 17.55 55.772 27.36C55.772 37.17 62.112 43.482 72.488 43.482C80.836 43.482 86.288 38.619 87.324 32.431H79.294C78.469 35.618 75.87 37.315 72.171 37.315C67.521 37.315 64.436 34.315 64.246 29.513V29.161H87.557ZM71.96 17.199C76.018 17.199 78.85 19.454 79.526 23.49H64.5C65.092 19.6 68.135 17.199 71.96 17.199ZM261.128 43.109H261.149L261.128 43.13V43.109ZM253.013 43.109H261.128V26.636C261.128 20.903 263.854 17.716 268.293 17.716C272.731 17.716 274.696 20.634 274.696 25.891V43.11H282.833V25.248C282.833 14.445 276.894 11.134 270.343 11.134C265.799 11.134 262.988 12.975 260.938 15.355V11.506H253.013V43.109Z" fill="white"/>
</g>
<defs>
<clipPath id="clip0_3447_17">
<rect width="340" height="44" fill="white"/>
</clipPath>
</defs>
</svg>
