<svg width="1227" height="334" viewBox="0 0 1227 334" fill="none" xmlns="http://www.w3.org/2000/svg">
<path d="M223.1 0H0V327.52H49.22V179.86H206.08V136.62H49.22V44.16H223.1V0Z" fill="black"/>
<path d="M453.492 292.1C444.752 292.1 440.612 288.42 440.612 280.14V154.56C440.612 108.1 409.332 84.64 346.772 84.64C282.832 84.64 249.252 111.32 246.032 164.22H291.572C292.492 148.58 297.552 137.54 305.832 131.1C314.112 124.66 327.452 121.44 346.772 121.44C364.252 121.44 376.672 124.2 384.032 129.72C391.392 135.24 395.532 143.52 395.532 155.48C395.532 164.68 392.312 171.58 386.792 176.18C381.272 180.78 372.072 184 360.112 185.38L325.152 189.06C265.352 195.5 235.912 219.88 235.912 262.66C235.912 284.74 243.272 302.22 258.452 314.64C273.632 327.06 294.332 333.04 320.552 333.04C355.972 333.04 381.732 320.62 397.832 295.32C399.212 307.28 403.352 315.56 410.712 321.08C418.072 326.6 429.112 328.9 443.832 328.9C452.112 328.9 459.472 328.44 466.372 327.52V292.1H453.492ZM327.452 297.16C312.732 297.16 301.692 294.4 294.332 287.96C286.972 281.52 283.292 272.78 283.292 261.28C283.292 250.24 286.972 241.5 294.792 235.06C302.152 228.62 315.032 224.48 332.972 222.18L366.092 218.5C379.892 217.12 389.552 213.9 395.532 208.84V233.68C395.532 253.92 389.092 269.56 376.212 280.6C363.332 291.64 346.772 297.16 327.452 297.16Z" fill="black"/>
<path d="M987.404 84.64C955.664 84.64 930.824 98.44 912.884 125.58V90.16H868.724V327.52H914.724V193.66C914.724 171.58 920.704 154.56 933.124 142.6C945.084 131.1 958.884 125.12 974.524 125.12C1007.64 125.12 1024.66 141.68 1024.66 174.8V327.52H1070.66V168.36C1070.66 141.68 1063.3 121.44 1048.58 106.72C1033.86 92 1013.16 84.64 987.404 84.64Z" fill="black"/>
<path d="M1226.7 90.16H1178.86V22.08H1132.86V90.16H1094.68V127.88H1132.86V274.62C1132.86 293.94 1137.92 307.74 1148.96 316.02C1159.54 324.76 1176.1 328.9 1198.64 328.9C1206.92 328.9 1216.58 328.44 1226.7 327.52V290.72H1206C1195.88 290.72 1188.98 289.34 1184.84 286.12C1180.7 282.9 1178.86 277.84 1178.86 270.48V127.88H1226.7V90.16Z" fill="black"/>
<path d="M556.212 280.04H506.992V326.96H556.212V280.04ZM827.152 280.5H589.792V326.5H827.152V280.5Z" fill="black"/>
</svg>
