<svg width="1383" height="319" viewBox="0 0 1383 319" fill="none" xmlns="http://www.w3.org/2000/svg">
<path d="M177.289 156.364C194.815 159.631 209.222 168.394 220.51 182.653C231.798 196.911 237.442 213.249 237.442 231.666C237.442 248.301 233.283 263.006 224.966 275.779C216.945 288.255 205.212 298.058 189.765 305.187C174.318 312.316 156.049 315.881 134.959 315.881H0.839355V4.86667H129.166C150.257 4.86667 168.377 8.28278 183.527 15.115C198.974 21.9472 210.559 31.4529 218.282 43.6321C226.302 55.8112 230.313 69.6242 230.313 85.0709C230.313 103.191 225.411 118.341 215.609 130.52C206.103 142.699 193.33 151.314 177.289 156.364ZM63.2204 133.193H120.255C135.107 133.193 146.544 129.926 154.564 123.391C162.585 116.559 166.595 106.904 166.595 94.4281C166.595 81.9519 162.585 72.2976 154.564 65.4654C146.544 58.6332 135.107 55.2171 120.255 55.2171H63.2204V133.193ZM126.047 265.085C141.197 265.085 152.93 261.52 161.248 254.391C169.862 247.262 174.17 237.162 174.17 224.092C174.17 210.724 169.714 200.327 160.802 192.901C151.891 185.178 139.86 181.316 124.71 181.316H63.2204V265.085H126.047Z" fill="black"/>
<path d="M431.526 319C402.415 319 375.68 312.168 351.322 298.503C326.964 284.839 307.655 265.976 293.397 241.915C279.138 217.556 272.009 190.079 272.009 159.483C272.009 129.183 279.138 102.003 293.397 77.9417C307.655 53.5833 326.964 34.5719 351.322 20.9075C375.68 7.24309 402.415 0.410889 431.526 0.410889C460.935 0.410889 487.669 7.24309 511.731 20.9075C536.089 34.5719 555.249 53.5833 569.21 77.9417C583.469 102.003 590.598 129.183 590.598 159.483C590.598 190.079 583.469 217.556 569.21 241.915C555.249 265.976 536.089 284.839 511.731 298.503C487.372 312.168 460.638 319 431.526 319ZM431.526 263.303C450.241 263.303 466.727 259.144 480.986 250.826C495.244 242.212 506.384 230.033 514.404 214.289C522.425 198.545 526.435 180.276 526.435 159.483C526.435 138.689 522.425 120.569 514.404 105.122C506.384 89.3782 495.244 77.3476 480.986 69.0301C466.727 60.7126 450.241 56.5539 431.526 56.5539C412.812 56.5539 396.177 60.7126 381.622 69.0301C367.363 77.3476 356.224 89.3782 348.203 105.122C340.183 120.569 336.172 138.689 336.172 159.483C336.172 180.276 340.183 198.545 348.203 214.289C356.224 230.033 367.363 242.212 381.622 250.826C396.177 259.144 412.812 263.303 431.526 263.303Z" fill="black"/>
<path d="M781.376 319C752.265 319 725.53 312.168 701.171 298.503C676.813 284.839 657.505 265.976 643.246 241.915C628.988 217.556 621.858 190.079 621.858 159.483C621.858 129.183 628.988 102.003 643.246 77.9417C657.505 53.5833 676.813 34.5719 701.171 20.9075C725.53 7.24309 752.265 0.410889 781.376 0.410889C810.784 0.410889 837.519 7.24309 861.58 20.9075C885.938 34.5719 905.098 53.5833 919.06 77.9417C933.318 102.003 940.447 129.183 940.447 159.483C940.447 190.079 933.318 217.556 919.06 241.915C905.098 265.976 885.938 284.839 861.58 298.503C837.222 312.168 810.487 319 781.376 319ZM781.376 263.303C800.09 263.303 816.576 259.144 830.835 250.826C845.094 242.212 856.233 230.033 864.253 214.289C872.274 198.545 876.284 180.276 876.284 159.483C876.284 138.689 872.274 120.569 864.253 105.122C856.233 89.3782 845.094 77.3476 830.835 69.0301C816.576 60.7126 800.09 56.5539 781.376 56.5539C762.661 56.5539 746.026 60.7126 731.471 69.0301C717.212 77.3476 706.073 89.3782 698.052 105.122C690.032 120.569 686.022 138.689 686.022 159.483C686.022 180.276 690.032 198.545 698.052 214.289C706.073 230.033 717.212 242.212 731.471 250.826C746.026 259.144 762.661 263.303 781.376 263.303Z" fill="black"/>
<path d="M1178.37 153.748L1380.52 17.4495V116.02L1200.1 229.289L1194.22 232.983H1201.17L1380.52 232.983V310.797H977.489V232.983H1158.01H1165L1159.07 229.286L977.489 116.017V22.0889L1176.15 153.757L1177.27 154.495L1178.37 153.748Z" fill="black" stroke="white" stroke-width="4"/>
</svg>
