<svg width="1956" height="378" viewBox="0 0 1956 378" fill="none" xmlns="http://www.w3.org/2000/svg">
<path d="M377.42 360.909C347.875 360.909 324.568 351.717 307.498 333.334C290.756 314.951 282.385 287.54 282.385 251.102V110.765H334.58V245.685C334.58 292.956 353.948 316.592 392.684 316.592C412.053 316.592 427.974 309.698 440.448 295.911C452.922 282.123 459.16 262.427 459.16 236.822V110.765H511.355V355H465.069L461.129 312.16C453.579 327.261 442.418 339.243 427.645 348.106C413.201 356.641 396.46 360.909 377.42 360.909Z" fill="black"/>
<path d="M691.992 360.909C668.028 360.909 646.691 355.656 627.979 345.152C609.596 334.319 595.152 319.382 584.647 300.342C574.142 281.303 568.89 259.144 568.89 233.867C568.89 208.262 573.978 185.775 584.155 166.407C594.659 147.039 609.103 131.939 627.487 121.106C646.198 110.273 667.864 104.856 692.485 104.856C716.449 104.856 737.294 110.273 755.021 121.106C772.747 131.61 786.535 145.726 796.383 163.453C806.231 181.179 811.155 200.712 811.155 222.049C811.155 225.332 810.991 228.943 810.663 232.882C810.663 236.493 810.499 240.597 810.17 245.193H620.1C621.742 268.828 629.456 286.883 643.244 299.358C657.359 311.504 673.609 317.577 691.992 317.577C706.764 317.577 719.075 314.294 728.923 307.729C739.099 300.835 746.65 291.643 751.574 280.154H803.769C797.204 303.133 784.073 322.337 764.376 337.766C745.008 353.194 720.88 360.909 691.992 360.909ZM691.992 147.696C674.594 147.696 659.165 152.948 645.706 163.453C632.247 173.629 624.04 189.058 621.085 209.739H758.96C757.975 190.699 751.245 175.599 738.771 164.438C726.297 153.276 710.704 147.696 691.992 147.696Z" fill="black"/>
<path d="M962.81 360.909C931.952 360.909 906.511 353.359 886.486 338.258C866.461 323.157 854.972 303.133 852.017 278.184H904.705C907.331 289.345 913.569 299.029 923.417 307.236C933.265 315.115 946.232 319.054 962.317 319.054C978.074 319.054 989.564 315.771 996.786 309.206C1004.01 302.64 1007.62 295.09 1007.62 286.555C1007.62 274.081 1002.53 265.71 992.354 261.442C982.506 256.846 968.718 252.743 950.992 249.132C937.204 246.177 923.417 242.238 909.629 237.314C896.17 232.39 884.845 225.496 875.653 216.633C866.79 207.441 862.358 195.131 862.358 179.702C862.358 158.365 870.565 140.638 886.979 126.522C903.392 112.078 926.371 104.856 955.916 104.856C983.162 104.856 1005.16 111.422 1021.9 124.552C1038.97 137.683 1048.98 156.231 1051.94 180.195H1001.71C1000.07 169.69 995.144 161.483 986.938 155.574C979.059 149.665 968.39 146.711 954.931 146.711C941.8 146.711 931.624 149.501 924.402 155.082C917.18 160.334 913.569 167.228 913.569 175.763C913.569 184.298 918.493 191.028 928.341 195.952C938.517 200.876 951.812 205.308 968.226 209.247C984.64 212.858 999.74 217.125 1013.53 222.049C1027.64 226.645 1038.97 233.539 1047.5 242.731C1056.04 251.922 1060.31 265.381 1060.31 283.108C1060.63 305.431 1051.94 323.978 1034.21 338.75C1016.81 353.523 993.011 360.909 962.81 360.909Z" fill="black"/>
<path d="M1210.57 355C1186.61 355 1167.57 349.255 1153.45 337.766C1139.34 325.948 1132.28 305.102 1132.28 275.23V154.589H1090.42V110.765H1132.28L1138.68 48.7214H1184.47V110.765H1253.41V154.589H1184.47V275.23C1184.47 288.689 1187.26 298.045 1192.85 303.297C1198.75 308.221 1208.77 310.683 1222.88 310.683H1250.95V355H1210.57Z" fill="black"/>
<path d="M1336.78 64.4785C1326.93 64.4785 1318.72 61.5241 1312.15 55.6151C1305.92 49.378 1302.8 41.6636 1302.8 32.4719C1302.8 23.2803 1305.92 15.73 1312.15 9.8211C1318.72 3.58392 1326.93 0.465332 1336.78 0.465332C1346.62 0.465332 1354.67 3.58392 1360.9 9.8211C1367.47 15.73 1370.75 23.2803 1370.75 32.4719C1370.75 41.6636 1367.47 49.378 1360.9 55.6151C1354.67 61.5241 1346.62 64.4785 1336.78 64.4785ZM1310.68 355V110.765H1362.87V355H1310.68Z" fill="black"/>
<path d="M1546.01 360.909C1522.71 360.909 1501.7 355.656 1482.99 345.152C1464.6 334.319 1449.99 319.382 1439.16 300.342C1428.33 280.974 1422.91 258.488 1422.91 232.882C1422.91 207.277 1428.33 184.955 1439.16 165.915C1450.32 146.547 1465.26 131.61 1483.97 121.106C1502.68 110.273 1523.53 104.856 1546.51 104.856C1569.81 104.856 1590.66 110.273 1609.04 121.106C1627.75 131.61 1642.53 146.547 1653.36 165.915C1664.52 184.955 1670.1 207.277 1670.1 232.882C1670.1 258.488 1664.52 280.974 1653.36 300.342C1642.53 319.382 1627.75 334.319 1609.04 345.152C1590.33 355.656 1569.32 360.909 1546.01 360.909ZM1546.01 316.1C1558.49 316.1 1569.98 312.981 1580.48 306.744C1591.32 300.507 1600.02 291.315 1606.58 279.169C1613.15 266.695 1616.43 251.266 1616.43 232.882C1616.43 214.499 1613.15 199.234 1606.58 187.088C1600.34 174.614 1591.81 165.258 1580.98 159.021C1570.47 152.784 1558.98 149.665 1546.51 149.665C1534.03 149.665 1522.38 152.784 1511.55 159.021C1501.04 165.258 1492.51 174.614 1485.94 187.088C1479.37 199.234 1476.09 214.499 1476.09 232.882C1476.09 251.266 1479.37 266.695 1485.94 279.169C1492.51 291.315 1501.04 300.507 1511.55 306.744C1522.05 312.981 1533.54 316.1 1546.01 316.1Z" fill="black"/>
<path d="M1726.55 355V110.765H1772.83L1776.77 153.605C1784.32 138.504 1795.32 126.686 1809.76 118.151C1824.54 109.288 1841.44 104.856 1860.48 104.856C1890.03 104.856 1913.17 114.048 1929.91 132.431C1946.98 150.814 1955.52 178.225 1955.52 214.663V355H1903.81V220.08C1903.81 172.809 1884.45 149.173 1845.71 149.173C1826.34 149.173 1810.26 156.067 1797.45 169.854C1784.98 183.642 1778.74 203.338 1778.74 228.943V355H1726.55Z" fill="black"/>
<path d="M166.094 273.071L168.064 192.809H149.352C131.625 192.809 115.376 191.167 100.604 187.885C85.503 184.602 73.5211 178.201 64.6577 168.681C55.4661 159.161 50.8703 145.045 50.8703 126.333C50.8703 108.278 56.4509 94.1627 67.6122 83.9863C78.7735 73.4816 93.3816 68.2292 111.437 68.2292C130.148 68.2292 144.92 73.3174 155.753 83.4939C166.586 93.6703 172.003 107.458 172.003 124.856H221.244C221.572 105.16 217.305 87.7614 208.441 72.6609C199.25 57.5603 186.447 45.7425 170.033 37.2074C153.291 28.6723 133.759 24.4048 111.437 24.4048C89.7706 24.4048 70.5666 28.5082 53.8247 36.715C37.0828 44.9218 24.116 56.7396 14.9244 72.1685C5.40448 87.269 0.644531 105.488 0.644531 126.826C0.644531 150.133 5.73276 169.337 15.9092 184.438C26.0857 199.21 40.0373 210.207 57.764 217.429C75.4907 224.323 95.8436 227.77 118.823 227.77L120.3 273.071H166.094ZM142.951 377.955C153.127 377.955 161.334 374.836 167.571 368.599C173.808 362.033 176.927 354.319 176.927 345.456C176.927 336.264 173.808 328.549 167.571 322.312C161.334 315.747 153.127 312.464 142.951 312.464C133.431 312.464 125.552 315.747 119.315 322.312C112.75 328.549 109.467 336.264 109.467 345.456C109.467 354.319 112.75 362.033 119.315 368.599C125.552 374.836 133.431 377.955 142.951 377.955Z" fill="black"/>
</svg>
