<svg width="2232" height="345" viewBox="0 0 2232 345" fill="none" xmlns="http://www.w3.org/2000/svg">
<path d="M818.108 345L944.164 0.313477H1015.07L1141.13 345H1074.16L1046.59 265.23H912.158L884.09 345H818.108ZM929.392 215.989H1029.35L979.125 72.6976L929.392 215.989Z" fill="black"/>
<path d="M1494.98 345L1621.03 0.313477H1691.94L1818 345H1751.03L1723.46 265.23H1589.03L1560.96 345H1494.98ZM1606.26 215.989H1706.22L1656 72.6976L1606.26 215.989Z" fill="black"/>
<path d="M1837.78 345V0.313477H1900.81V345H1837.78Z" fill="black"/>
<path d="M1942.99 345V0.313477H2006.02L2168.02 243.071V0.313477H2231.05V345H2168.02L2006.02 102.735V345H1942.99Z" fill="black"/>
<path d="M100.937 345V51.0316H0.485352V0.313477H264.909V51.0316H163.965V345H100.937Z" fill="black"/>
<path fill-rule="evenodd" clip-rule="evenodd" d="M286.979 345V0.313477H413.528C441.103 0.313477 463.754 5.07344 481.481 14.5934C499.536 23.785 512.995 36.4235 521.858 52.5088C530.722 68.266 535.153 85.8285 535.153 105.197C535.153 126.206 529.573 145.41 518.411 162.809C507.578 180.207 490.508 192.845 467.201 200.724L538.6 345H466.216L402.203 209.095H350.007V345H286.979ZM409.589 162.809H350.007V53.0012H409.096C430.762 53.0012 446.355 57.9253 455.875 67.7735C465.724 77.6217 470.648 90.7526 470.648 107.166C470.648 123.908 465.724 137.367 455.875 147.544C446.027 157.72 430.598 162.809 409.589 162.809Z" fill="black"/>
<path d="M646.257 345V222.39L530.541 0.313477H601.94L678.263 159.362L754.094 0.313477H824.509L709.285 222.39V345H646.257Z" fill="black"/>
</svg>
