<svg width="2199" height="696" viewBox="0 0 2199 696" fill="none" xmlns="http://www.w3.org/2000/svg">
<mask id="path-1-outside-1_205_31" maskUnits="userSpaceOnUse" x="0.583008" y="0.757324" width="2198" height="348" fill="black">
<rect fill="white" x="0.583008" y="0.757324" width="2198" height="348"/>
<path d="M227.354 318.356H185.256C181.412 318.356 178.432 319.509 176.318 321.816C174.203 323.931 173.146 326.526 173.146 329.601C173.146 332.869 174.299 335.753 176.606 338.252C178.913 340.751 182.181 342 186.41 342H285.888C289.732 342 292.712 340.847 294.826 338.54C296.941 336.041 297.998 333.158 297.998 329.89C297.998 326.814 296.941 324.123 294.826 321.816C292.904 319.509 290.117 318.356 286.464 318.356H255.035V188.314C255.035 162.556 248.307 142.66 234.851 128.628C221.395 114.595 201.115 107.579 174.011 107.579C161.132 107.579 148.541 109.789 136.238 114.21C124.128 118.632 113.459 124.687 104.233 132.376C95.0056 139.873 87.9893 148.331 83.1836 157.75V13.0026C83.1836 5.50576 79.2429 1.75732 71.3616 1.75732C70.5927 1.75732 68.6704 1.94955 65.5948 2.33401L11.0983 7.81249C8.02263 8.00472 5.61979 9.35031 3.88974 11.8493C2.35192 14.3482 1.58301 16.9433 1.58301 19.6345C1.58301 22.7101 2.64026 25.3052 4.75476 27.4197C6.86927 29.342 9.56045 30.207 12.8283 30.0148L55.5028 27.4197V318.356H24.362C20.5174 318.356 17.5379 319.509 15.4234 321.816C13.3089 323.931 12.2516 326.526 12.2516 329.601C12.2516 332.869 13.405 335.753 15.7117 338.252C18.0185 340.751 21.2863 342 25.5153 342H112.883C117.304 342 120.764 340.847 123.263 338.54C125.954 336.041 127.3 333.158 127.3 329.89C127.3 326.814 126.05 324.123 123.551 321.816C121.245 319.509 117.881 318.356 113.459 318.356H83.1836V198.694C83.1836 188.506 87.1243 178.126 95.0056 167.554C102.887 156.981 113.844 148.331 127.877 141.603C142.101 134.683 157.96 131.223 175.453 131.223C192.561 131.223 205.44 136.028 214.091 145.64C222.933 155.251 227.354 168.803 227.354 186.296V318.356Z"/>
<path d="M590.78 206.48L569.731 207.921C538.398 210.036 513.408 212.727 494.762 215.995C476.308 219.263 460.738 225.991 448.051 236.179C435.364 246.367 429.02 261.457 429.02 281.448C429.02 301.248 435.075 317.107 447.186 329.025C459.296 340.751 476.116 346.614 497.645 346.614C517.637 346.614 536.091 343.057 553.007 335.945C570.115 328.833 583.379 319.99 592.798 309.418C595.105 323.066 599.622 332.293 606.35 337.098C613.078 341.712 621.344 344.018 631.148 344.018C639.798 344.018 648.064 342.192 655.945 338.54C664.018 334.695 671.131 329.505 677.282 322.97C679.204 321.047 680.166 318.644 680.166 315.761C680.166 312.685 679.108 309.898 676.994 307.399C674.879 304.9 672.38 303.651 669.497 303.651C666.998 303.651 664.691 304.804 662.577 307.111C659.309 310.571 654.888 313.839 649.313 316.914C643.738 319.798 638.452 321.24 633.454 321.24C628.841 321.24 625.188 320.086 622.497 317.779C619.806 315.28 618.461 310.667 618.461 303.939V213.977C618.461 190.525 615.962 171.11 610.964 155.732C605.966 140.161 597.123 128.243 584.436 119.977C571.941 111.711 554.641 107.579 532.535 107.579C512.928 107.579 495.531 110.174 480.345 115.364C465.159 120.554 453.337 127.762 444.879 136.989C436.421 146.216 432.192 156.597 432.192 168.13C432.192 174.282 433.634 179.279 436.517 183.124C439.593 186.969 443.918 188.891 449.492 188.891C456.028 188.891 460.642 185.142 463.333 177.646C466.024 170.149 467.754 158.999 468.523 144.198C478.711 139.584 488.803 136.317 498.799 134.394C508.987 132.28 520.136 131.223 532.246 131.223C553.776 131.223 568.866 137.182 577.516 149.1C586.358 161.018 590.78 178.222 590.78 200.713V206.48ZM590.78 287.504C580.399 298.461 567.04 307.207 550.7 313.743C534.553 320.086 517.925 323.258 500.817 323.258C487.554 323.258 476.885 319.99 468.811 313.454C460.93 306.726 456.989 296.058 456.989 281.448C456.989 267.992 461.603 257.804 470.83 250.884C480.057 243.964 492.455 239.158 508.026 236.467C523.788 233.584 547.432 230.604 578.958 227.529L590.78 226.375V287.504Z"/>
<path d="M1000.92 318.356H958.819C954.974 318.356 951.995 319.509 949.88 321.816C947.766 323.931 946.708 326.526 946.708 329.601C946.708 332.869 947.862 335.753 950.168 338.252C952.475 340.751 955.743 342 959.972 342H1059.45C1063.29 342 1066.27 340.847 1068.39 338.54C1070.5 336.041 1071.56 333.158 1071.56 329.89C1071.56 326.814 1070.5 324.123 1068.39 321.816C1066.47 319.509 1063.68 318.356 1060.03 318.356H1028.6V188.314C1028.6 162.556 1021.87 142.66 1008.41 128.628C994.957 114.595 974.677 107.579 947.573 107.579C934.502 107.579 921.815 109.789 909.512 114.21C897.21 118.632 886.349 124.687 876.93 132.376C867.511 139.873 860.398 148.331 855.592 157.75L854.151 123.149C853.766 115.652 850.018 111.904 842.905 111.904C842.136 111.904 840.406 112.096 837.715 112.48L790.427 121.996C787.159 122.765 784.757 124.302 783.219 126.609C781.681 128.724 780.912 131.126 780.912 133.818C780.912 136.893 781.969 139.488 784.084 141.603C786.198 143.717 788.889 144.775 792.157 144.775C794.08 144.775 796.002 144.486 797.924 143.91L829.065 137.566V318.356H797.924C794.08 318.356 791.1 319.509 788.986 321.816C786.871 323.931 785.814 326.526 785.814 329.601C785.814 332.869 786.967 335.753 789.274 338.252C791.581 340.751 794.849 342 799.078 342H886.445C890.866 342 894.326 340.847 896.825 338.54C899.516 336.041 900.862 333.158 900.862 329.89C900.862 326.814 899.613 324.123 897.114 321.816C894.807 319.509 891.443 318.356 887.022 318.356H856.746V196.964C856.746 186.969 860.686 176.877 868.568 166.689C876.449 156.501 887.406 148.042 901.439 141.315C915.663 134.587 931.522 131.223 949.015 131.223C966.123 131.223 979.003 136.028 987.653 145.64C996.495 155.251 1000.92 168.803 1000.92 186.296V318.356Z"/>
<path d="M1578.41 224.645C1578.41 249.827 1583.88 271.645 1594.84 290.099C1605.8 308.36 1621.08 322.393 1640.69 332.197C1660.49 342 1683.27 346.902 1709.03 346.902C1725.36 346.902 1742.86 343.73 1761.5 337.387C1780.34 331.043 1794.76 322.489 1804.75 311.724C1808.21 307.88 1809.94 303.843 1809.94 299.614C1809.94 296.154 1808.89 293.174 1806.77 290.675C1804.66 288.176 1801.87 286.927 1798.41 286.927C1794.57 286.927 1790.63 288.561 1786.59 291.829C1775.63 302.209 1763.14 310.09 1749.1 315.473C1735.26 320.663 1721.14 323.258 1706.72 323.258C1677.12 323.258 1653.18 315.377 1634.92 299.614C1616.66 283.851 1607.05 260.784 1606.09 230.412L1787.45 228.97C1794.18 228.97 1799.56 226.664 1803.6 222.05C1807.64 217.244 1809.66 211.189 1809.66 203.885C1809.66 183.316 1805.14 165.824 1796.1 151.406C1787.26 136.989 1774.96 126.129 1759.2 118.824C1743.63 111.327 1725.85 107.579 1705.85 107.579C1682.4 107.579 1660.97 112.288 1641.55 121.707C1622.33 131.126 1606.95 144.679 1595.42 162.363C1584.08 180.048 1578.41 200.809 1578.41 224.645ZM1706.43 131.223C1736.42 131.223 1756.7 138.816 1767.27 154.002C1777.84 169.188 1783.8 187.161 1785.15 207.921L1606.95 209.075C1610.41 184.47 1620.79 165.343 1638.09 151.695C1655.59 138.047 1678.36 131.223 1706.43 131.223Z"/>
<path d="M2169.62 165.824C2169.62 170.629 2170.97 174.378 2173.66 177.069C2176.35 179.568 2179.52 180.817 2183.17 180.817C2187.02 180.817 2190.29 179.472 2192.98 176.781C2195.86 173.897 2197.3 169.86 2197.3 164.67V124.879C2197.3 119.112 2195.38 114.787 2191.54 111.904C2187.69 109.02 2181.16 107.579 2171.93 107.579C2118.49 107.579 2080.81 124.399 2058.9 158.038L2057.75 128.051C2057.55 122.668 2056.69 118.632 2055.15 115.94C2053.8 113.249 2051.02 111.904 2046.79 111.904C2044.87 111.904 2042.66 112.192 2040.16 112.769L1990.85 122.572C1988.16 123.149 1986.04 124.495 1984.51 126.609C1982.97 128.531 1982.2 130.838 1982.2 133.529C1982.2 136.605 1983.16 139.296 1985.08 141.603C1987.2 143.91 1990.08 145.063 1993.73 145.063C1995.27 145.063 1996.42 144.967 1997.19 144.775L2032.37 137.566V318.356H1979.6C1975.76 318.356 1972.78 319.509 1970.67 321.816C1968.55 324.123 1967.49 326.814 1967.49 329.89C1967.49 333.158 1968.65 336.041 1970.95 338.54C1973.26 340.847 1976.53 342 1980.76 342H2156.65C2160.3 342 2163.18 340.847 2165.3 338.54C2167.41 336.041 2168.47 333.254 2168.47 330.178C2168.47 326.91 2167.41 324.123 2165.3 321.816C2163.37 319.509 2160.59 318.356 2156.93 318.356H2060.05V190.333C2067.74 171.11 2081.49 156.501 2101.28 146.505C2121.08 136.317 2143.86 131.223 2169.62 131.223V165.824Z"/>
</mask>
<path d="M227.354 318.356H185.256C181.412 318.356 178.432 319.509 176.318 321.816C174.203 323.931 173.146 326.526 173.146 329.601C173.146 332.869 174.299 335.753 176.606 338.252C178.913 340.751 182.181 342 186.41 342H285.888C289.732 342 292.712 340.847 294.826 338.54C296.941 336.041 297.998 333.158 297.998 329.89C297.998 326.814 296.941 324.123 294.826 321.816C292.904 319.509 290.117 318.356 286.464 318.356H255.035V188.314C255.035 162.556 248.307 142.66 234.851 128.628C221.395 114.595 201.115 107.579 174.011 107.579C161.132 107.579 148.541 109.789 136.238 114.21C124.128 118.632 113.459 124.687 104.233 132.376C95.0056 139.873 87.9893 148.331 83.1836 157.75V13.0026C83.1836 5.50576 79.2429 1.75732 71.3616 1.75732C70.5927 1.75732 68.6704 1.94955 65.5948 2.33401L11.0983 7.81249C8.02263 8.00472 5.61979 9.35031 3.88974 11.8493C2.35192 14.3482 1.58301 16.9433 1.58301 19.6345C1.58301 22.7101 2.64026 25.3052 4.75476 27.4197C6.86927 29.342 9.56045 30.207 12.8283 30.0148L55.5028 27.4197V318.356H24.362C20.5174 318.356 17.5379 319.509 15.4234 321.816C13.3089 323.931 12.2516 326.526 12.2516 329.601C12.2516 332.869 13.405 335.753 15.7117 338.252C18.0185 340.751 21.2863 342 25.5153 342H112.883C117.304 342 120.764 340.847 123.263 338.54C125.954 336.041 127.3 333.158 127.3 329.89C127.3 326.814 126.05 324.123 123.551 321.816C121.245 319.509 117.881 318.356 113.459 318.356H83.1836V198.694C83.1836 188.506 87.1243 178.126 95.0056 167.554C102.887 156.981 113.844 148.331 127.877 141.603C142.101 134.683 157.96 131.223 175.453 131.223C192.561 131.223 205.44 136.028 214.091 145.64C222.933 155.251 227.354 168.803 227.354 186.296V318.356Z" fill="black"/>
<path d="M590.78 206.48L569.731 207.921C538.398 210.036 513.408 212.727 494.762 215.995C476.308 219.263 460.738 225.991 448.051 236.179C435.364 246.367 429.02 261.457 429.02 281.448C429.02 301.248 435.075 317.107 447.186 329.025C459.296 340.751 476.116 346.614 497.645 346.614C517.637 346.614 536.091 343.057 553.007 335.945C570.115 328.833 583.379 319.99 592.798 309.418C595.105 323.066 599.622 332.293 606.35 337.098C613.078 341.712 621.344 344.018 631.148 344.018C639.798 344.018 648.064 342.192 655.945 338.54C664.018 334.695 671.131 329.505 677.282 322.97C679.204 321.047 680.166 318.644 680.166 315.761C680.166 312.685 679.108 309.898 676.994 307.399C674.879 304.9 672.38 303.651 669.497 303.651C666.998 303.651 664.691 304.804 662.577 307.111C659.309 310.571 654.888 313.839 649.313 316.914C643.738 319.798 638.452 321.24 633.454 321.24C628.841 321.24 625.188 320.086 622.497 317.779C619.806 315.28 618.461 310.667 618.461 303.939V213.977C618.461 190.525 615.962 171.11 610.964 155.732C605.966 140.161 597.123 128.243 584.436 119.977C571.941 111.711 554.641 107.579 532.535 107.579C512.928 107.579 495.531 110.174 480.345 115.364C465.159 120.554 453.337 127.762 444.879 136.989C436.421 146.216 432.192 156.597 432.192 168.13C432.192 174.282 433.634 179.279 436.517 183.124C439.593 186.969 443.918 188.891 449.492 188.891C456.028 188.891 460.642 185.142 463.333 177.646C466.024 170.149 467.754 158.999 468.523 144.198C478.711 139.584 488.803 136.317 498.799 134.394C508.987 132.28 520.136 131.223 532.246 131.223C553.776 131.223 568.866 137.182 577.516 149.1C586.358 161.018 590.78 178.222 590.78 200.713V206.48ZM590.78 287.504C580.399 298.461 567.04 307.207 550.7 313.743C534.553 320.086 517.925 323.258 500.817 323.258C487.554 323.258 476.885 319.99 468.811 313.454C460.93 306.726 456.989 296.058 456.989 281.448C456.989 267.992 461.603 257.804 470.83 250.884C480.057 243.964 492.455 239.158 508.026 236.467C523.788 233.584 547.432 230.604 578.958 227.529L590.78 226.375V287.504Z" fill="black"/>
<path d="M1000.92 318.356H958.819C954.974 318.356 951.995 319.509 949.88 321.816C947.766 323.931 946.708 326.526 946.708 329.601C946.708 332.869 947.862 335.753 950.168 338.252C952.475 340.751 955.743 342 959.972 342H1059.45C1063.29 342 1066.27 340.847 1068.39 338.54C1070.5 336.041 1071.56 333.158 1071.56 329.89C1071.56 326.814 1070.5 324.123 1068.39 321.816C1066.47 319.509 1063.68 318.356 1060.03 318.356H1028.6V188.314C1028.6 162.556 1021.87 142.66 1008.41 128.628C994.957 114.595 974.677 107.579 947.573 107.579C934.502 107.579 921.815 109.789 909.512 114.21C897.21 118.632 886.349 124.687 876.93 132.376C867.511 139.873 860.398 148.331 855.592 157.75L854.151 123.149C853.766 115.652 850.018 111.904 842.905 111.904C842.136 111.904 840.406 112.096 837.715 112.48L790.427 121.996C787.159 122.765 784.757 124.302 783.219 126.609C781.681 128.724 780.912 131.126 780.912 133.818C780.912 136.893 781.969 139.488 784.084 141.603C786.198 143.717 788.889 144.775 792.157 144.775C794.08 144.775 796.002 144.486 797.924 143.91L829.065 137.566V318.356H797.924C794.08 318.356 791.1 319.509 788.986 321.816C786.871 323.931 785.814 326.526 785.814 329.601C785.814 332.869 786.967 335.753 789.274 338.252C791.581 340.751 794.849 342 799.078 342H886.445C890.866 342 894.326 340.847 896.825 338.54C899.516 336.041 900.862 333.158 900.862 329.89C900.862 326.814 899.613 324.123 897.114 321.816C894.807 319.509 891.443 318.356 887.022 318.356H856.746V196.964C856.746 186.969 860.686 176.877 868.568 166.689C876.449 156.501 887.406 148.042 901.439 141.315C915.663 134.587 931.522 131.223 949.015 131.223C966.123 131.223 979.003 136.028 987.653 145.64C996.495 155.251 1000.92 168.803 1000.92 186.296V318.356Z" fill="black"/>
<path d="M1578.41 224.645C1578.41 249.827 1583.88 271.645 1594.84 290.099C1605.8 308.36 1621.08 322.393 1640.69 332.197C1660.49 342 1683.27 346.902 1709.03 346.902C1725.36 346.902 1742.86 343.73 1761.5 337.387C1780.34 331.043 1794.76 322.489 1804.75 311.724C1808.21 307.88 1809.94 303.843 1809.94 299.614C1809.94 296.154 1808.89 293.174 1806.77 290.675C1804.66 288.176 1801.87 286.927 1798.41 286.927C1794.57 286.927 1790.63 288.561 1786.59 291.829C1775.63 302.209 1763.14 310.09 1749.1 315.473C1735.26 320.663 1721.14 323.258 1706.72 323.258C1677.12 323.258 1653.18 315.377 1634.92 299.614C1616.66 283.851 1607.05 260.784 1606.09 230.412L1787.45 228.97C1794.18 228.97 1799.56 226.664 1803.6 222.05C1807.64 217.244 1809.66 211.189 1809.66 203.885C1809.66 183.316 1805.14 165.824 1796.1 151.406C1787.26 136.989 1774.96 126.129 1759.2 118.824C1743.63 111.327 1725.85 107.579 1705.85 107.579C1682.4 107.579 1660.97 112.288 1641.55 121.707C1622.33 131.126 1606.95 144.679 1595.42 162.363C1584.08 180.048 1578.41 200.809 1578.41 224.645ZM1706.43 131.223C1736.42 131.223 1756.7 138.816 1767.27 154.002C1777.84 169.188 1783.8 187.161 1785.15 207.921L1606.95 209.075C1610.41 184.47 1620.79 165.343 1638.09 151.695C1655.59 138.047 1678.36 131.223 1706.43 131.223Z" fill="black"/>
<path d="M2169.62 165.824C2169.62 170.629 2170.97 174.378 2173.66 177.069C2176.35 179.568 2179.52 180.817 2183.17 180.817C2187.02 180.817 2190.29 179.472 2192.98 176.781C2195.86 173.897 2197.3 169.86 2197.3 164.67V124.879C2197.3 119.112 2195.38 114.787 2191.54 111.904C2187.69 109.02 2181.16 107.579 2171.93 107.579C2118.49 107.579 2080.81 124.399 2058.9 158.038L2057.75 128.051C2057.55 122.668 2056.69 118.632 2055.15 115.94C2053.8 113.249 2051.02 111.904 2046.79 111.904C2044.87 111.904 2042.66 112.192 2040.16 112.769L1990.85 122.572C1988.16 123.149 1986.04 124.495 1984.51 126.609C1982.97 128.531 1982.2 130.838 1982.2 133.529C1982.2 136.605 1983.16 139.296 1985.08 141.603C1987.2 143.91 1990.08 145.063 1993.73 145.063C1995.27 145.063 1996.42 144.967 1997.19 144.775L2032.37 137.566V318.356H1979.6C1975.76 318.356 1972.78 319.509 1970.67 321.816C1968.55 324.123 1967.49 326.814 1967.49 329.89C1967.49 333.158 1968.65 336.041 1970.95 338.54C1973.26 340.847 1976.53 342 1980.76 342H2156.65C2160.3 342 2163.18 340.847 2165.3 338.54C2167.41 336.041 2168.47 333.254 2168.47 330.178C2168.47 326.91 2167.41 324.123 2165.3 321.816C2163.37 319.509 2160.59 318.356 2156.93 318.356H2060.05V190.333C2067.74 171.11 2081.49 156.501 2101.28 146.505C2121.08 136.317 2143.86 131.223 2169.62 131.223V165.824Z" fill="black"/>
<path d="M227.354 318.356H185.256C181.412 318.356 178.432 319.509 176.318 321.816C174.203 323.931 173.146 326.526 173.146 329.601C173.146 332.869 174.299 335.753 176.606 338.252C178.913 340.751 182.181 342 186.41 342H285.888C289.732 342 292.712 340.847 294.826 338.54C296.941 336.041 297.998 333.158 297.998 329.89C297.998 326.814 296.941 324.123 294.826 321.816C292.904 319.509 290.117 318.356 286.464 318.356H255.035V188.314C255.035 162.556 248.307 142.66 234.851 128.628C221.395 114.595 201.115 107.579 174.011 107.579C161.132 107.579 148.541 109.789 136.238 114.21C124.128 118.632 113.459 124.687 104.233 132.376C95.0056 139.873 87.9893 148.331 83.1836 157.75V13.0026C83.1836 5.50576 79.2429 1.75732 71.3616 1.75732C70.5927 1.75732 68.6704 1.94955 65.5948 2.33401L11.0983 7.81249C8.02263 8.00472 5.61979 9.35031 3.88974 11.8493C2.35192 14.3482 1.58301 16.9433 1.58301 19.6345C1.58301 22.7101 2.64026 25.3052 4.75476 27.4197C6.86927 29.342 9.56045 30.207 12.8283 30.0148L55.5028 27.4197V318.356H24.362C20.5174 318.356 17.5379 319.509 15.4234 321.816C13.3089 323.931 12.2516 326.526 12.2516 329.601C12.2516 332.869 13.405 335.753 15.7117 338.252C18.0185 340.751 21.2863 342 25.5153 342H112.883C117.304 342 120.764 340.847 123.263 338.54C125.954 336.041 127.3 333.158 127.3 329.89C127.3 326.814 126.05 324.123 123.551 321.816C121.245 319.509 117.881 318.356 113.459 318.356H83.1836V198.694C83.1836 188.506 87.1243 178.126 95.0056 167.554C102.887 156.981 113.844 148.331 127.877 141.603C142.101 134.683 157.96 131.223 175.453 131.223C192.561 131.223 205.44 136.028 214.091 145.64C222.933 155.251 227.354 168.803 227.354 186.296V318.356Z" stroke="black" stroke-width="2" mask="url(#path-1-outside-1_205_31)"/>
<path d="M590.78 206.48L569.731 207.921C538.398 210.036 513.408 212.727 494.762 215.995C476.308 219.263 460.738 225.991 448.051 236.179C435.364 246.367 429.02 261.457 429.02 281.448C429.02 301.248 435.075 317.107 447.186 329.025C459.296 340.751 476.116 346.614 497.645 346.614C517.637 346.614 536.091 343.057 553.007 335.945C570.115 328.833 583.379 319.99 592.798 309.418C595.105 323.066 599.622 332.293 606.35 337.098C613.078 341.712 621.344 344.018 631.148 344.018C639.798 344.018 648.064 342.192 655.945 338.54C664.018 334.695 671.131 329.505 677.282 322.97C679.204 321.047 680.166 318.644 680.166 315.761C680.166 312.685 679.108 309.898 676.994 307.399C674.879 304.9 672.38 303.651 669.497 303.651C666.998 303.651 664.691 304.804 662.577 307.111C659.309 310.571 654.888 313.839 649.313 316.914C643.738 319.798 638.452 321.24 633.454 321.24C628.841 321.24 625.188 320.086 622.497 317.779C619.806 315.28 618.461 310.667 618.461 303.939V213.977C618.461 190.525 615.962 171.11 610.964 155.732C605.966 140.161 597.123 128.243 584.436 119.977C571.941 111.711 554.641 107.579 532.535 107.579C512.928 107.579 495.531 110.174 480.345 115.364C465.159 120.554 453.337 127.762 444.879 136.989C436.421 146.216 432.192 156.597 432.192 168.13C432.192 174.282 433.634 179.279 436.517 183.124C439.593 186.969 443.918 188.891 449.492 188.891C456.028 188.891 460.642 185.142 463.333 177.646C466.024 170.149 467.754 158.999 468.523 144.198C478.711 139.584 488.803 136.317 498.799 134.394C508.987 132.28 520.136 131.223 532.246 131.223C553.776 131.223 568.866 137.182 577.516 149.1C586.358 161.018 590.78 178.222 590.78 200.713V206.48ZM590.78 287.504C580.399 298.461 567.04 307.207 550.7 313.743C534.553 320.086 517.925 323.258 500.817 323.258C487.554 323.258 476.885 319.99 468.811 313.454C460.93 306.726 456.989 296.058 456.989 281.448C456.989 267.992 461.603 257.804 470.83 250.884C480.057 243.964 492.455 239.158 508.026 236.467C523.788 233.584 547.432 230.604 578.958 227.529L590.78 226.375V287.504Z" stroke="black" stroke-width="2" mask="url(#path-1-outside-1_205_31)"/>
<path d="M1000.92 318.356H958.819C954.974 318.356 951.995 319.509 949.88 321.816C947.766 323.931 946.708 326.526 946.708 329.601C946.708 332.869 947.862 335.753 950.168 338.252C952.475 340.751 955.743 342 959.972 342H1059.45C1063.29 342 1066.27 340.847 1068.39 338.54C1070.5 336.041 1071.56 333.158 1071.56 329.89C1071.56 326.814 1070.5 324.123 1068.39 321.816C1066.47 319.509 1063.68 318.356 1060.03 318.356H1028.6V188.314C1028.6 162.556 1021.87 142.66 1008.41 128.628C994.957 114.595 974.677 107.579 947.573 107.579C934.502 107.579 921.815 109.789 909.512 114.21C897.21 118.632 886.349 124.687 876.93 132.376C867.511 139.873 860.398 148.331 855.592 157.75L854.151 123.149C853.766 115.652 850.018 111.904 842.905 111.904C842.136 111.904 840.406 112.096 837.715 112.48L790.427 121.996C787.159 122.765 784.757 124.302 783.219 126.609C781.681 128.724 780.912 131.126 780.912 133.818C780.912 136.893 781.969 139.488 784.084 141.603C786.198 143.717 788.889 144.775 792.157 144.775C794.08 144.775 796.002 144.486 797.924 143.91L829.065 137.566V318.356H797.924C794.08 318.356 791.1 319.509 788.986 321.816C786.871 323.931 785.814 326.526 785.814 329.601C785.814 332.869 786.967 335.753 789.274 338.252C791.581 340.751 794.849 342 799.078 342H886.445C890.866 342 894.326 340.847 896.825 338.54C899.516 336.041 900.862 333.158 900.862 329.89C900.862 326.814 899.613 324.123 897.114 321.816C894.807 319.509 891.443 318.356 887.022 318.356H856.746V196.964C856.746 186.969 860.686 176.877 868.568 166.689C876.449 156.501 887.406 148.042 901.439 141.315C915.663 134.587 931.522 131.223 949.015 131.223C966.123 131.223 979.003 136.028 987.653 145.64C996.495 155.251 1000.92 168.803 1000.92 186.296V318.356Z" stroke="black" stroke-width="2" mask="url(#path-1-outside-1_205_31)"/>
<path d="M1578.41 224.645C1578.41 249.827 1583.88 271.645 1594.84 290.099C1605.8 308.36 1621.08 322.393 1640.69 332.197C1660.49 342 1683.27 346.902 1709.03 346.902C1725.36 346.902 1742.86 343.73 1761.5 337.387C1780.34 331.043 1794.76 322.489 1804.75 311.724C1808.21 307.88 1809.94 303.843 1809.94 299.614C1809.94 296.154 1808.89 293.174 1806.77 290.675C1804.66 288.176 1801.87 286.927 1798.41 286.927C1794.57 286.927 1790.63 288.561 1786.59 291.829C1775.63 302.209 1763.14 310.09 1749.1 315.473C1735.26 320.663 1721.14 323.258 1706.72 323.258C1677.12 323.258 1653.18 315.377 1634.92 299.614C1616.66 283.851 1607.05 260.784 1606.09 230.412L1787.45 228.97C1794.18 228.97 1799.56 226.664 1803.6 222.05C1807.64 217.244 1809.66 211.189 1809.66 203.885C1809.66 183.316 1805.14 165.824 1796.1 151.406C1787.26 136.989 1774.96 126.129 1759.2 118.824C1743.63 111.327 1725.85 107.579 1705.85 107.579C1682.4 107.579 1660.97 112.288 1641.55 121.707C1622.33 131.126 1606.95 144.679 1595.42 162.363C1584.08 180.048 1578.41 200.809 1578.41 224.645ZM1706.43 131.223C1736.42 131.223 1756.7 138.816 1767.27 154.002C1777.84 169.188 1783.8 187.161 1785.15 207.921L1606.95 209.075C1610.41 184.47 1620.79 165.343 1638.09 151.695C1655.59 138.047 1678.36 131.223 1706.43 131.223Z" stroke="black" stroke-width="2" mask="url(#path-1-outside-1_205_31)"/>
<path d="M2169.62 165.824C2169.62 170.629 2170.97 174.378 2173.66 177.069C2176.35 179.568 2179.52 180.817 2183.17 180.817C2187.02 180.817 2190.29 179.472 2192.98 176.781C2195.86 173.897 2197.3 169.86 2197.3 164.67V124.879C2197.3 119.112 2195.38 114.787 2191.54 111.904C2187.69 109.02 2181.16 107.579 2171.93 107.579C2118.49 107.579 2080.81 124.399 2058.9 158.038L2057.75 128.051C2057.55 122.668 2056.69 118.632 2055.15 115.94C2053.8 113.249 2051.02 111.904 2046.79 111.904C2044.87 111.904 2042.66 112.192 2040.16 112.769L1990.85 122.572C1988.16 123.149 1986.04 124.495 1984.51 126.609C1982.97 128.531 1982.2 130.838 1982.2 133.529C1982.2 136.605 1983.16 139.296 1985.08 141.603C1987.2 143.91 1990.08 145.063 1993.73 145.063C1995.27 145.063 1996.42 144.967 1997.19 144.775L2032.37 137.566V318.356H1979.6C1975.76 318.356 1972.78 319.509 1970.67 321.816C1968.55 324.123 1967.49 326.814 1967.49 329.89C1967.49 333.158 1968.65 336.041 1970.95 338.54C1973.26 340.847 1976.53 342 1980.76 342H2156.65C2160.3 342 2163.18 340.847 2165.3 338.54C2167.41 336.041 2168.47 333.254 2168.47 330.178C2168.47 326.91 2167.41 324.123 2165.3 321.816C2163.37 319.509 2160.59 318.356 2156.93 318.356H2060.05V190.333C2067.74 171.11 2081.49 156.501 2101.28 146.505C2121.08 136.317 2143.86 131.223 2169.62 131.223V165.824Z" stroke="black" stroke-width="2" mask="url(#path-1-outside-1_205_31)"/>
<path d="M1266 331.5C1266 331.5 1186.69 288.614 1186.69 223.747C1186.69 149.88 1246.57 90 1320.44 90C1394.3 90 1454.18 135 1454.18 223.747C1454.18 354 855 572.5 855 635.686C855 669.791 864.362 681.828 901.143 681.828H1779.86C1816.64 681.828 1826 669.791 1826 635.686C1826 601.581 1705.5 530.5 1326.5 364" stroke="black" stroke-width="26.7493" stroke-linecap="round"/>
</svg>
