<svg width="1134" height="453" viewBox="0 0 1134 453" fill="none" xmlns="http://www.w3.org/2000/svg">
<path d="M532.05 205.01H541.45V448H532.05V205.01ZM536.75 137.8C533.304 137.8 530.327 136.547 527.82 134.04C525.627 131.533 524.53 128.713 524.53 125.58C524.53 122.133 525.627 119.313 527.82 117.12C530.327 114.613 533.304 113.36 536.75 113.36C539.884 113.36 542.704 114.613 545.21 117.12C547.717 119.313 548.97 122.133 548.97 125.58C548.97 128.713 547.717 131.533 545.21 134.04C542.704 136.547 539.884 137.8 536.75 137.8Z" fill="black"/>
<path d="M113.26 452.23C91.9533 452.23 70.96 449.88 50.28 445.18C29.6 440.166 12.9933 433.743 0.459961 425.91L27.25 364.81C38.8433 372.016 52.63 377.813 68.61 382.2C84.59 386.273 100.413 388.31 116.08 388.31C130.493 388.31 140.677 386.9 146.63 384.08C152.897 380.946 156.03 376.56 156.03 370.92C156.03 365.28 152.27 361.363 144.75 359.17C137.543 356.663 125.95 354.313 109.97 352.12C89.6033 349.613 72.2133 346.323 57.8 342.25C43.7 338.176 31.48 330.656 21.14 319.69C10.8 308.723 5.62996 293.37 5.62996 273.63C5.62996 257.336 10.4866 242.923 20.2 230.39C29.9133 217.543 44.0133 207.516 62.5 200.31C81.3 192.79 103.703 189.03 129.71 189.03C148.197 189.03 166.527 190.91 184.7 194.67C202.873 198.43 218.07 203.756 230.29 210.65L203.5 271.28C180.94 258.746 156.5 252.48 130.18 252.48C116.08 252.48 105.74 254.203 99.16 257.65C92.58 260.783 89.29 265.013 89.29 270.34C89.29 276.293 92.8933 280.523 100.1 283.03C107.307 285.223 119.213 287.573 135.82 290.08C156.813 293.213 174.203 296.816 187.99 300.89C201.777 304.963 213.683 312.483 223.71 323.45C234.05 334.103 239.22 349.143 239.22 368.57C239.22 384.55 234.363 398.963 224.65 411.81C214.937 424.343 200.523 434.213 181.41 441.42C162.61 448.626 139.893 452.23 113.26 452.23Z" fill="black"/>
<path d="M277.701 99.2598H367.001V448H277.701V99.2598Z" fill="black"/>
<path d="M1030.41 189.03C1061.74 189.03 1086.65 198.43 1105.14 217.23C1123.94 236.03 1133.34 264.386 1133.34 302.3V448H1044.04V316.87C1044.04 299.01 1040.59 285.85 1033.7 277.39C1027.12 268.93 1017.72 264.7 1005.5 264.7C992.027 264.7 981.217 269.4 973.07 278.8C964.923 288.2 960.85 302.456 960.85 321.57V448H871.55V316.87C871.55 282.09 858.703 264.7 833.01 264.7C819.223 264.7 808.257 269.4 800.11 278.8C791.963 288.2 787.89 302.456 787.89 321.57V448H698.59V193.26H783.66V220.05C793.06 209.71 804.183 202.033 817.03 197.02C830.19 191.693 844.447 189.03 859.8 189.03C877.66 189.03 893.64 192.32 907.74 198.9C921.84 205.48 933.277 215.506 942.05 228.98C952.077 216.133 964.767 206.263 980.12 199.37C995.473 192.476 1012.24 189.03 1030.41 189.03Z" fill="black"/>
<circle cx="537" cy="116" r="90" fill="black" stroke="white" stroke-width="52"/>
</svg>
