<svg width="971" height="322" viewBox="0 0 971 322" fill="none" xmlns="http://www.w3.org/2000/svg">
<path d="M266.889 18.6912V319H211.117V190.296H55.8146V319H0.0429688V18.6912H55.8146V142.676H211.117V18.6912H266.889Z" fill="black"/>
<path d="M685.149 0.672729V319H633.667V289.398C624.801 300.266 613.79 308.418 600.634 313.852C587.763 319.286 573.463 322.003 557.732 322.003C535.71 322.003 515.832 317.141 498.1 307.417C480.653 297.692 466.925 283.964 456.914 266.231C446.904 248.213 441.899 227.62 441.899 204.454C441.899 181.287 446.904 160.837 456.914 143.105C466.925 125.372 480.653 111.644 498.1 101.92C515.832 92.1954 535.71 87.3332 557.732 87.3332C572.891 87.3332 586.762 89.9073 599.346 95.0555C611.931 100.204 622.656 107.926 631.522 118.222V0.672729H685.149ZM564.167 276.099C577.038 276.099 588.621 273.239 598.917 267.518C609.214 261.512 617.365 253.075 623.371 242.207C629.377 231.338 632.38 218.754 632.38 204.454C632.38 190.153 629.377 177.569 623.371 166.701C617.365 155.832 609.214 147.538 598.917 141.818C588.621 135.812 577.038 132.809 564.167 132.809C551.297 132.809 539.714 135.812 529.417 141.818C519.121 147.538 510.97 155.832 504.964 166.701C498.958 177.569 495.955 190.153 495.955 204.454C495.955 218.754 498.958 231.338 504.964 242.207C510.97 253.075 519.121 261.512 529.417 267.518C539.714 273.239 551.297 276.099 564.167 276.099Z" fill="black"/>
<path d="M970.667 205.741C970.667 209.459 970.381 214.75 969.809 221.614H790.053C793.199 238.489 801.35 251.931 814.506 261.941C827.949 271.666 844.537 276.528 864.272 276.528C889.44 276.528 910.176 268.233 926.479 251.645L955.222 284.679C944.926 296.977 931.913 306.273 916.182 312.565C900.452 318.857 882.719 322.003 862.985 322.003C837.816 322.003 815.65 316.998 796.488 306.988C777.325 296.977 762.453 283.106 751.87 265.373C741.574 247.355 736.426 227.048 736.426 204.454C736.426 182.145 741.431 162.124 751.441 144.392C761.738 126.373 775.895 112.359 793.914 102.349C811.932 92.3384 832.239 87.3332 854.833 87.3332C877.142 87.3332 897.02 92.3384 914.466 102.349C932.199 112.073 945.927 125.944 955.651 143.963C965.662 161.695 970.667 182.288 970.667 205.741ZM854.833 130.234C837.673 130.234 823.087 135.383 811.074 145.679C799.348 155.689 792.198 169.132 789.624 186.006H919.614C917.326 169.418 910.319 155.975 898.593 145.679C886.866 135.383 872.28 130.234 854.833 130.234Z" fill="black"/>
</svg>
