<svg width="1309" height="308" viewBox="0 0 1309 308" fill="none" xmlns="http://www.w3.org/2000/svg">
<path d="M41.9215 304V122.528H0.736328V95.4999H41.9215V88.2067C41.9215 60.4639 48.7857 39.4423 62.5141 25.1419C76.5285 10.8414 97.9791 2.83321 126.866 1.11717L143.597 0.259155L146.601 26.8579L126.866 28.145C109.133 29.575 96.2631 34.8662 88.2549 44.0184C80.5326 53.1707 76.6715 66.4701 76.6715 83.9166V95.4999H136.733V122.528H76.6715V304H41.9215Z" fill="black"/>
<path d="M241.895 307.861C225.592 307.861 210.148 305.573 195.562 300.997C180.975 296.421 168.963 289.986 159.525 281.691L170.679 257.238C180.975 265.532 192.273 271.681 204.571 275.685C217.155 279.403 229.883 281.262 242.753 281.262C259.055 281.262 271.354 278.259 279.648 272.253C287.942 266.247 292.089 258.096 292.089 247.799C292.089 239.791 289.372 233.499 283.938 228.923C278.504 224.061 269.924 220.343 258.197 217.768L219.157 209.188C183.692 201.466 165.96 183.161 165.96 154.275C165.96 135.398 173.396 120.24 188.268 108.799C203.427 97.359 223.161 91.6388 247.472 91.6388C261.773 91.6388 275.358 93.9269 288.228 98.503C301.385 102.793 312.253 109.228 320.833 117.809L309.25 142.262C300.956 134.54 291.231 128.677 280.077 124.673C269.209 120.383 258.34 118.238 247.472 118.238C231.456 118.238 219.3 121.384 211.006 127.676C202.712 133.968 198.565 142.262 198.565 152.559C198.565 168.575 209.147 178.871 230.312 183.447L269.352 191.599C287.656 195.603 301.528 202.038 310.966 210.904C320.404 219.484 325.123 231.211 325.123 246.083C325.123 265.246 317.544 280.404 302.386 291.559C287.227 302.427 267.064 307.861 241.895 307.861Z" fill="black"/>
<path d="M451.873 307.861C401.822 307.861 376.796 280.261 376.796 225.062V95.4999H411.546V224.633C411.546 243.223 415.264 256.952 422.7 265.818C430.422 274.684 442.435 279.117 458.737 279.117C476.47 279.117 490.913 273.254 502.068 261.528C513.222 249.515 518.799 233.642 518.799 213.907V95.4999H553.549V304H519.657V268.821C513.079 281.405 503.784 291.13 491.771 297.994C480.045 304.572 466.746 307.861 451.873 307.861Z" fill="black"/>
<path d="M618.565 304V1.54618H653.315V129.821C660.179 117.237 669.76 107.798 682.058 101.506C694.643 94.9279 708.657 91.6388 724.102 91.6388C773.581 91.6388 798.321 119.096 798.321 174.009V304H763.571V176.154C763.571 156.706 759.71 142.548 751.987 133.682C744.551 124.53 732.539 119.954 715.95 119.954C696.788 119.954 681.486 125.96 670.046 137.972C658.892 149.698 653.315 165.429 653.315 185.164V304H618.565Z" fill="black"/>
<path d="M873.552 304V122.528H832.367V95.4999H873.552V88.2067C873.552 60.4639 880.416 39.4423 894.145 25.1419C908.159 10.8414 929.61 2.83321 958.496 1.11717L975.228 0.259155L978.231 26.8579L958.496 28.145C940.764 29.575 927.894 34.8662 919.885 44.0184C912.163 53.1707 908.302 66.4701 908.302 83.9166V95.4999H968.364V122.528H908.302V304H873.552ZM1069.18 307.861C1048.02 307.861 1032 301.712 1021.13 289.414C1010.55 276.829 1005.26 258.668 1005.26 234.929V1.54618H1040.01V232.355C1040.01 262.958 1052.16 278.259 1076.47 278.259C1083.62 278.259 1090.06 277.401 1095.78 275.685L1094.92 304.858C1086.06 306.86 1077.48 307.861 1069.18 307.861Z" fill="black"/>
<path d="M1224.07 307.861C1191.17 307.861 1165.15 298.28 1145.99 279.117C1126.82 259.669 1117.24 233.356 1117.24 200.179C1117.24 178.728 1121.53 159.852 1130.11 143.549C1138.69 126.961 1150.42 114.233 1165.29 105.367C1180.45 96.2149 1197.9 91.6388 1217.63 91.6388C1245.94 91.6388 1268.11 100.791 1284.13 119.096C1300.14 137.114 1308.15 161.997 1308.15 193.744V207.043H1151.13C1152.28 230.782 1159.14 248.943 1171.73 261.528C1184.31 273.826 1201.76 279.975 1224.07 279.975C1236.65 279.975 1248.66 278.116 1260.1 274.398C1271.54 270.394 1282.41 263.959 1292.71 255.093L1304.72 279.546C1295.28 288.413 1283.27 295.42 1268.68 300.568C1254.1 305.43 1239.22 307.861 1224.07 307.861ZM1218.49 117.38C1198.75 117.38 1183.17 123.529 1171.73 135.827C1160.29 148.125 1153.56 164.285 1151.56 184.305H1278.12C1277.26 163.141 1271.69 146.695 1261.39 134.969C1251.38 123.243 1237.08 117.38 1218.49 117.38Z" fill="black"/>
</svg>
